<svg width="25" height="25" viewBox="0 0 25 25" fill="none" xmlns="http://www.w3.org/2000/svg">
<path d="M13.0618 2.91797V4.93797C17.4518 5.47797 20.5618 9.46797 20.0218 13.858C19.5618 17.498 16.7018 20.388 13.0618 20.818V22.818C18.5618 22.268 22.5618 17.388 22.0118 11.888C21.5618 7.13797 17.7918 3.38797 13.0618 2.91797ZM11.0618 2.94797C9.11182 3.13797 7.25182 3.88797 5.73182 5.14797L7.16182 6.62797C8.28182 5.72797 9.63182 5.14797 11.0618 4.94797V2.94797ZM4.32182 6.55797C3.07226 8.07579 2.30291 9.93128 2.11182 11.888H4.11182C4.30182 10.468 4.86182 9.11797 5.75182 7.98797L4.32182 6.55797ZM15.5618 9.38797L10.6818 14.268L8.56182 12.148L7.50182 13.208L10.6818 16.388L16.6218 10.448L15.5618 9.38797ZM2.12182 13.888C2.32182 15.848 3.09182 17.698 4.33182 19.218L5.75182 17.788C4.86866 16.6576 4.30567 15.3106 4.12182 13.888H2.12182ZM7.16182 19.258L5.73182 20.628C7.24678 21.8904 9.10118 22.6766 11.0618 22.888V20.888C9.63919 20.7041 8.29217 20.1411 7.16182 19.258Z" fill="#5BFF52"/>
</svg>
