<svg width="82" height="30" viewBox="0 0 82 30" fill="none" xmlns="http://www.w3.org/2000/svg">
<g filter="url(#filter0_f_314_8417)">
<path d="M76 22.9995L50.3582 22.9995C45.9531 22.9995 42.1946 19.8125 41.4747 15.4665V15.4665C40.7548 11.1206 36.9963 7.93359 32.5912 7.93359L5.00575 7.93358C0.788295 7.93358 -2.68197 11.2532 -2.86899 15.4665V15.4665C-3.05602 19.6798 -6.52629 22.9995 -10.7437 22.9995L-43.4658 22.9995" stroke="#9A1EFB" stroke-width="2"/>
</g>
<path d="M76 28.9995L50.3582 28.9995C45.9531 28.9995 42.1946 25.8125 41.4747 21.4665V21.4665C40.7548 17.1206 36.9963 13.9336 32.5912 13.9336L5.00575 13.9336C0.788295 13.9336 -2.68197 17.2532 -2.86899 21.4665V21.4665C-3.05602 25.6798 -6.52629 28.9995 -10.7437 28.9995L-43.4658 28.9995" stroke="#00B2B9" stroke-width="2"/>
<path d="M76 16.9995L50.3582 16.9995C45.9531 16.9995 42.1946 13.8125 41.4747 9.46655V9.46655C40.7548 5.12064 36.9963 1.93359 32.5912 1.93359L5.00575 1.93358C0.788295 1.93358 -2.68197 5.25323 -2.86899 9.46654V9.46654C-3.05602 13.6798 -6.52629 16.9995 -10.7437 16.9995L-43.4658 16.9995" stroke="#00B2B9" stroke-width="2"/>
<defs>
<filter id="filter0_f_314_8417" x="-49.4658" y="0.933594" width="131.466" height="29.0664" filterUnits="userSpaceOnUse" color-interpolation-filters="sRGB">
<feFlood flood-opacity="0" result="BackgroundImageFix"/>
<feBlend mode="normal" in="SourceGraphic" in2="BackgroundImageFix" result="shape"/>
<feGaussianBlur stdDeviation="3" result="effect1_foregroundBlur_314_8417"/>
</filter>
</defs>
</svg>
