<svg width="237" height="18" viewBox="0 0 237 18" fill="none" xmlns="http://www.w3.org/2000/svg">
<g opacity="0.6">
<path d="M8.07119 17.3813H10.675L2.86359 0.848633H0.259766L8.07119 17.3813Z" fill="#00B2B9"/>
</g>
<g opacity="0.6">
<path d="M15.0145 17.3813H17.329L9.51762 0.848633H7.20312L15.0145 17.3813Z" fill="#00B2B9"/>
</g>
<g opacity="0.6">
<path d="M21.6688 17.3813H23.9833L16.1719 0.848633H13.8574L21.6688 17.3813Z" fill="#00B2B9"/>
</g>
<g opacity="0.6">
<path d="M28.3227 17.3813H30.9264L23.1151 0.848633H20.5112L28.3227 17.3813Z" fill="#00B2B9"/>
</g>
<g opacity="0.6">
<path d="M34.9766 17.3813H37.5805L29.7691 0.848633H27.4546L34.9766 17.3813Z" fill="#00B2B9"/>
</g>
<g opacity="0.6">
<path d="M41.9203 17.3813H44.2348L36.4233 0.848633H34.1089L41.9203 17.3813Z" fill="#00B2B9"/>
</g>
<g opacity="0.6">
<path d="M48.5746 17.3813H50.8891L43.367 0.848633H40.7632L48.5746 17.3813Z" fill="#00B2B9"/>
</g>
<g opacity="0.6">
<path d="M55.7001 17.3813H58.3039L50.4925 0.848633H47.8887L55.7001 17.3813Z" fill="#9A1EFB"/>
</g>
<g opacity="0.6">
<path d="M62.6434 17.3813H64.9579L57.1465 0.848633H54.832L62.6434 17.3813Z" fill="#9A1EFB"/>
</g>
<g opacity="0.6">
<path d="M69.2977 17.3813H71.6122L63.8008 0.848633H61.4863L69.2977 17.3813Z" fill="#9A1EFB"/>
</g>
<g opacity="0.6">
<path d="M75.9516 17.3813H78.5553L70.744 0.848633H68.1401L75.9516 17.3813Z" fill="#9A1EFB"/>
</g>
<g opacity="0.6">
<path d="M82.6056 17.3813H85.2094L77.398 0.848633H75.0835L82.6056 17.3813Z" fill="#9A1EFB"/>
</g>
<g opacity="0.6">
<path d="M89.5492 17.3813H91.8637L84.0522 0.848633H81.7378L89.5492 17.3813Z" fill="#9A1EFB"/>
</g>
<g opacity="0.6">
<path d="M96.2035 17.3813H98.518L90.9959 0.848633H88.3921L96.2035 17.3813Z" fill="#9A1EFB"/>
</g>
<g opacity="0.6">
<path d="M101.763 17.3813H104.367L96.5555 0.848633H93.9517L101.763 17.3813Z" fill="url(#paint0_linear_4_1268)"/>
</g>
<g opacity="0.6">
<path d="M108.706 17.3813H111.021L103.21 0.848633H100.895L108.706 17.3813Z" fill="url(#paint1_linear_4_1268)"/>
</g>
<g opacity="0.6">
<path d="M115.361 17.3813H117.675L109.864 0.848633H107.549L115.361 17.3813Z" fill="url(#paint2_linear_4_1268)"/>
</g>
<g opacity="0.6">
<path d="M122.015 17.3813H124.618L116.807 0.848633H114.203L122.015 17.3813Z" fill="url(#paint3_linear_4_1268)"/>
</g>
<g opacity="0.6">
<path d="M128.669 17.3813H131.272L123.461 0.848633H121.146L128.669 17.3813Z" fill="url(#paint4_linear_4_1268)"/>
</g>
<g opacity="0.6">
<path d="M135.612 17.3813H137.927L130.115 0.848633H127.801L135.612 17.3813Z" fill="url(#paint5_linear_4_1268)"/>
</g>
<g opacity="0.6">
<path d="M142.267 17.3813H144.581L137.059 0.848633H134.455L142.267 17.3813Z" fill="url(#paint6_linear_4_1268)"/>
</g>
<g opacity="0.6">
<path d="M147.826 17.3813H150.43L142.618 0.848633H140.015L147.826 17.3813Z" fill="#00B2B9"/>
</g>
<g opacity="0.6">
<path d="M154.769 17.3813H157.084L149.273 0.848633H146.958L154.769 17.3813Z" fill="#00B2B9"/>
</g>
<g opacity="0.6">
<path d="M161.424 17.3813H163.738L155.927 0.848633H153.612L161.424 17.3813Z" fill="#00B2B9"/>
</g>
<g opacity="0.6">
<path d="M168.078 17.3813H170.681L162.87 0.848633H160.266L168.078 17.3813Z" fill="#00B2B9"/>
</g>
<g opacity="0.6">
<path d="M174.732 17.3813H177.335L169.524 0.848633H167.209L174.732 17.3813Z" fill="#00B2B9"/>
</g>
<g opacity="0.6">
<path d="M181.675 17.3813H183.99L176.178 0.848633H173.864L181.675 17.3813Z" fill="#00B2B9"/>
</g>
<g opacity="0.6">
<path d="M188.329 17.3813H190.644L183.122 0.848633H180.518L188.329 17.3813Z" fill="#00B2B9"/>
</g>
<g opacity="0.6">
<path d="M193.889 17.3813H196.492L188.681 0.848633H186.077L193.889 17.3813Z" fill="#9A1EFB"/>
</g>
<g opacity="0.6">
<path d="M200.832 17.3813H203.146L195.335 0.848633H193.021L200.832 17.3813Z" fill="#9A1EFB"/>
</g>
<g opacity="0.6">
<path d="M207.486 17.3813H209.801L201.989 0.848633H199.675L207.486 17.3813Z" fill="#9A1EFB"/>
</g>
<g opacity="0.6">
<path d="M214.14 17.3813H216.744L208.932 0.848633H206.329L214.14 17.3813Z" fill="#9A1EFB"/>
</g>
<g opacity="0.6">
<path d="M220.794 17.3813H223.398L215.586 0.848633H213.272L220.794 17.3813Z" fill="#9A1EFB"/>
</g>
<g opacity="0.6">
<path d="M227.738 17.3813H230.052L222.241 0.848633H219.926L227.738 17.3813Z" fill="#9A1EFB"/>
</g>
<g opacity="0.6">
<path d="M234.392 17.3813H236.706L229.184 0.848633H226.581L234.392 17.3813Z" fill="#9A1EFB"/>
</g>
<defs>
<linearGradient id="paint0_linear_4_1268" x1="93.9517" y1="9.11495" x2="104.367" y2="9.11495" gradientUnits="userSpaceOnUse">
<stop stop-color="#00B2B9"/>
<stop offset="1" stop-color="#9A1EFB"/>
</linearGradient>
<linearGradient id="paint1_linear_4_1268" x1="100.895" y1="9.11495" x2="111.021" y2="9.11495" gradientUnits="userSpaceOnUse">
<stop stop-color="#00B2B9"/>
<stop offset="1" stop-color="#9A1EFB"/>
</linearGradient>
<linearGradient id="paint2_linear_4_1268" x1="107.549" y1="9.11495" x2="117.675" y2="9.11495" gradientUnits="userSpaceOnUse">
<stop stop-color="#00B2B9"/>
<stop offset="1" stop-color="#9A1EFB"/>
</linearGradient>
<linearGradient id="paint3_linear_4_1268" x1="114.203" y1="9.11495" x2="124.618" y2="9.11495" gradientUnits="userSpaceOnUse">
<stop stop-color="#00B2B9"/>
<stop offset="1" stop-color="#9A1EFB"/>
</linearGradient>
<linearGradient id="paint4_linear_4_1268" x1="121.146" y1="9.11495" x2="131.272" y2="9.11495" gradientUnits="userSpaceOnUse">
<stop stop-color="#00B2B9"/>
<stop offset="1" stop-color="#9A1EFB"/>
</linearGradient>
<linearGradient id="paint5_linear_4_1268" x1="127.801" y1="9.11495" x2="137.927" y2="9.11495" gradientUnits="userSpaceOnUse">
<stop stop-color="#00B2B9"/>
<stop offset="1" stop-color="#9A1EFB"/>
</linearGradient>
<linearGradient id="paint6_linear_4_1268" x1="134.455" y1="9.11495" x2="144.581" y2="9.11495" gradientUnits="userSpaceOnUse">
<stop stop-color="#00B2B9"/>
<stop offset="1" stop-color="#9A1EFB"/>
</linearGradient>
</defs>
</svg>
