<svg width="50" height="159" viewBox="0 0 50 159" fill="none" xmlns="http://www.w3.org/2000/svg">
<path d="M49.9365 12.0416L0.583817 12.0416L11.9216 0.626954L38.9365 0.626953C45.0117 0.626953 49.9365 5.55182 49.9365 11.627L49.9365 12.0416Z" fill="url(#paint0_linear_4_1702)"/>
<path d="M38.5987 33.0513L49.9365 33.0513L49.9365 146.205L38.5987 134.791L38.5987 33.0513Z" fill="url(#paint1_linear_4_1702)"/>
<path d="M23.7596 61.3397L23.7596 0.626953L38.9365 0.626953C45.0117 0.626953 49.9365 5.55182 49.9365 11.627L49.9365 75.8976L38.432 75.8976L23.7596 61.3397Z" fill="#9A1EFB"/>
<path d="M38.4316 60.5119L38.4316 69.9414L23.7592 55.2182L23.7592 45.9541L38.4316 60.5119Z" fill="url(#paint2_linear_4_1702)"/>
<path d="M45.9346 150.01L45.9346 158.943L38.5984 151.333L38.5984 142.565L45.9346 150.01Z" fill="url(#paint3_linear_4_1702)"/>
<defs>
<linearGradient id="paint0_linear_4_1702" x1="51.97" y1="6.61254" x2="21.4587" y2="6.37593" gradientUnits="userSpaceOnUse">
<stop offset="0.1689" stop-color="#9A1EFB"/>
<stop offset="0.3378" stop-color="#9A1EFB"/>
<stop offset="0.6283" stop-color="#9A1EFB"/>
<stop offset="0.7998" stop-color="#9A1EFB"/>
</linearGradient>
<linearGradient id="paint1_linear_4_1702" x1="44.2613" y1="168.533" x2="44.2613" y2="55.4778" gradientUnits="userSpaceOnUse">
<stop offset="0.2917" stop-color="#FF69FF"/>
<stop offset="0.3249" stop-color="#9A1EFB"/>
<stop offset="0.4833" stop-color="#FF47FE"/>
<stop offset="0.6223" stop-color="#9A1EFB"/>
<stop offset="0.7259" stop-color="#FF30FD"/>
</linearGradient>
<linearGradient id="paint2_linear_4_1702" x1="37.3487" y1="63.9142" x2="19.5027" y2="46.6332" gradientUnits="userSpaceOnUse">
<stop offset="0.00216346" stop-color="#9A1EFB"/>
<stop offset="0.0397" stop-color="#921BF3"/>
<stop offset="0.1865" stop-color="#7612D8"/>
<stop offset="0.3339" stop-color="#610CC5"/>
<stop offset="0.4809" stop-color="#5509BA"/>
<stop offset="0.6272" stop-color="#5107B6"/>
<stop offset="0.806" stop-color="#5308B8"/>
<stop offset="0.8704" stop-color="#5A0ABE"/>
<stop offset="0.9162" stop-color="#660EC9"/>
<stop offset="0.9533" stop-color="#7713D9"/>
<stop offset="0.9847" stop-color="#8C19EE"/>
<stop offset="1" stop-color="#9A1EFB"/>
</linearGradient>
<linearGradient id="paint3_linear_4_1702" x1="46.1141" y1="154.411" x2="35.1278" y2="143.773" gradientUnits="userSpaceOnUse">
<stop offset="0.2917" stop-color="#FF69FF"/>
<stop offset="0.3249" stop-color="#FF62FF"/>
<stop offset="0.4833" stop-color="#FF47FE"/>
<stop offset="0.6223" stop-color="#FF36FD"/>
<stop offset="0.7259" stop-color="#FF30FD"/>
</linearGradient>
</defs>
</svg>
