<svg width="113" height="35" viewBox="0 0 113 35" fill="none" xmlns="http://www.w3.org/2000/svg">
<path d="M0.944824 17.8493C0.944824 7.35535 5.50868 1.71329 14.6364 0.921485C15.3818 0.856315 57.1808 0.82373 57.9877 0.82373C58.6279 0.82373 98.1833 0.843281 98.7844 0.884012C108.225 1.52267 112.945 7.17613 112.945 17.8476C112.945 28.4882 108.25 34.1433 98.8626 34.808C98.2374 34.852 58.6535 34.8748 57.9862 34.8748C57.1973 34.8748 15.4133 34.8439 14.6815 34.782C5.52371 34.0064 0.944824 28.3595 0.944824 17.8493Z" fill="black"/>
<path d="M1.73242 17.7452C1.73242 7.66672 6.13247 2.26579 14.9326 1.54078C15.6148 1.48538 57.3462 1.45605 58.0811 1.45605C58.7197 1.45605 98.2751 1.47724 98.8732 1.5196C107.854 2.155 112.345 7.56244 112.345 17.7436C112.345 27.9605 107.822 33.3729 98.777 33.9773C98.2075 34.0148 58.6852 34.0343 58.0811 34.0343C57.525 34.0343 15.9605 34.018 15.433 33.9854C6.29928 33.4266 1.73242 28.0127 1.73242 17.7452Z" fill="url(#paint0_linear_314_6732)"/>
<path d="M3.45605 18.6184C3.45605 9.04663 48.9804 4.26318 57.9879 4.26318C66.9939 4.26318 110.434 9.04663 110.434 18.6184C110.434 27.5597 106.504 32.3252 98.6433 32.9134C98.0888 32.9541 58.58 32.9753 57.9879 32.9753C57.226 32.9753 15.4751 32.941 14.7778 32.8726C7.22946 32.1329 3.45605 27.3805 3.45605 18.6184Z" fill="black"/>
<path d="M3.55029 17.696C3.55029 8.54461 7.66633 3.76931 15.8984 3.36852C16.2771 3.3506 57.6854 3.34082 58.0821 3.34082C58.6081 3.34082 98.0553 3.35711 98.5512 3.3897C106.535 3.91594 110.528 8.6831 110.528 17.696C110.528 26.8621 106.397 31.6407 98.1349 32.0285C97.7713 32.0448 58.4623 32.0545 58.0821 32.0545C57.5396 32.0545 15.9901 32.0366 15.4806 32.0024C7.52657 31.4599 3.55029 26.6911 3.55029 17.696Z" fill="#FFEAB6"/>
<path d="M3.55029 17.7449C3.55029 8.59344 7.66633 3.81814 15.8984 3.41735C16.2771 3.39942 57.6854 3.38965 58.0821 3.38965C58.6081 3.38965 98.0553 3.40594 98.5512 3.43853C106.535 3.96477 110.528 8.73192 110.528 17.7449C110.528 26.911 106.397 31.6895 98.1349 32.0773C97.7713 32.0936 58.4623 32.1034 58.0821 32.1034C57.5396 32.1034 15.9901 32.0854 15.4806 32.0512C7.52657 31.5087 3.55029 26.7383 3.55029 17.7449Z" fill="url(#paint1_linear_314_6732)"/>
<path opacity="0.5" d="M58.0821 29.9787C57.5051 29.9787 15.9224 29.9591 15.383 29.92C7.80608 29.3677 3.86888 24.946 3.56983 16.6597C3.55781 16.9985 3.55029 17.3439 3.55029 17.6975C3.55029 26.5573 7.40936 31.3179 15.1275 31.9761C15.7466 32.0283 57.4119 32.056 58.0806 32.056C58.7839 32.056 98.3964 32.0267 99.0456 31.968C106.699 31.2788 110.527 26.5215 110.527 17.6975C110.527 17.3439 110.519 16.9985 110.507 16.6597C110.211 24.8955 106.32 29.314 98.8352 29.9103C98.2521 29.9559 58.7088 29.9787 58.0821 29.9787Z" fill="#0E4D99"/>
<path d="M7.14551 23.2028C7.14551 20.7459 10.8212 18.7142 15.5985 18.3851C3.57197 19.2177 70.0386 18.3379 83.0194 18.3379C83.5318 18.3379 97.9417 18.3574 98.4331 18.3949C103.14 18.755 106.745 20.7703 106.745 23.2028C106.745 25.5782 103.31 27.5545 98.7667 27.9814C98.1701 28.0384 83.649 28.0677 83.0194 28.0677C69.962 28.0677 3.43371 27.038 15.3746 28.0042C10.7085 27.6278 7.14551 25.6222 7.14551 23.2028Z" fill="url(#paint2_linear_314_6732)"/>
<path d="M107.095 10.3464C107.095 12.8032 103.419 14.8349 98.6419 15.164C98.1956 15.195 58.8025 15.2113 58.3382 15.2113C57.8257 15.2113 16.2987 15.1917 15.8073 15.1542C11.1007 14.7942 7.49561 12.7788 7.49561 10.3464C7.49561 7.97092 10.9309 5.99466 15.4737 5.56617C16.0703 5.51077 57.7085 5.48145 58.3382 5.48145C58.8792 5.48145 98.3474 5.50263 98.8658 5.54499C103.533 5.92297 107.095 7.92856 107.095 10.3464Z" fill="url(#paint3_linear_314_6732)"/>
<defs>
<linearGradient id="paint0_linear_314_6732" x1="57.0391" y1="34.0354" x2="57.0391" y2="1.4568" gradientUnits="userSpaceOnUse">
<stop stop-color="#AE50EC"/>
<stop offset="0.5123" stop-color="#6206C8"/>
</linearGradient>
<linearGradient id="paint1_linear_314_6732" x1="57.0386" y1="4.40828" x2="57.0386" y2="32.643" gradientUnits="userSpaceOnUse">
<stop offset="0.00223473" stop-color="#00E3FF"/>
<stop offset="1" stop-color="#7A01F3"/>
</linearGradient>
<linearGradient id="paint2_linear_314_6732" x1="56.9452" y1="19.3768" x2="56.9452" y2="28.9079" gradientUnits="userSpaceOnUse">
<stop offset="0.00223473" stop-color="#008BFF"/>
<stop offset="1" stop-color="#0056E9"/>
</linearGradient>
<linearGradient id="paint3_linear_314_6732" x1="57.2962" y1="13.5382" x2="57.2962" y2="4.09964" gradientUnits="userSpaceOnUse">
<stop offset="0.00223473" stop-color="#00FBFF"/>
<stop offset="0.7368" stop-color="white"/>
</linearGradient>
</defs>
</svg>
