<svg width="57" height="41" viewBox="0 0 57 41" fill="none" xmlns="http://www.w3.org/2000/svg">
<path d="M0.455566 20.5923C0.455566 8.26501 2.73749 1.63726 7.30135 0.707117C7.67403 0.630562 28.5735 0.592285 28.977 0.592285C29.2971 0.592285 49.0748 0.615251 49.3754 0.663098C54.0955 1.41334 56.4556 8.05448 56.4556 20.5904C56.4556 33.0899 54.1083 39.733 49.4144 40.5138C49.1019 40.5655 29.3099 40.5923 28.9763 40.5923C28.5818 40.5923 7.68981 40.5559 7.32389 40.4832C2.74501 39.5722 0.455566 32.9387 0.455566 20.5923Z" fill="black"/>
<path d="M0.849121 20.4699C0.849121 8.63066 3.04915 2.28616 7.4492 1.43448C7.79032 1.36941 28.656 1.33496 29.0234 1.33496C29.3428 1.33496 49.1205 1.35984 49.4195 1.4096C53.9097 2.15601 56.1556 8.50817 56.1556 20.468C56.1556 32.4699 53.894 38.8278 49.3714 39.5378C49.0867 39.5818 29.3255 39.6048 29.0234 39.6048C28.7454 39.6048 7.96314 39.5857 7.69941 39.5474C3.13255 38.8909 0.849121 32.5311 0.849121 20.4699Z" fill="url(#paint0_linear_314_6764)"/>
<path d="M1.71143 21.4955C1.71143 10.2515 24.4736 4.63232 28.9773 4.63232C33.4803 4.63232 55.2003 10.2515 55.2003 21.4955C55.2003 31.9988 53.2355 37.5969 49.305 38.2878C49.0278 38.3357 29.2734 38.3606 28.9773 38.3606C28.5964 38.3606 7.72093 38.3204 7.37229 38.24C3.59813 37.3711 1.71143 31.7883 1.71143 21.4955Z" fill="black"/>
<path d="M1.7583 20.4125C1.7583 9.66224 3.81632 4.05267 7.93235 3.58185C8.1217 3.5608 28.8258 3.54932 29.0242 3.54932C29.2872 3.54932 49.0108 3.56846 49.2587 3.60673C53.2508 4.22491 55.2472 9.82492 55.2472 20.4125C55.2472 31.1799 53.1817 36.7933 49.0506 37.2488C48.8688 37.268 29.2143 37.2795 29.0242 37.2795C28.753 37.2795 7.97819 37.2584 7.72347 37.2182C3.74644 36.5809 1.7583 30.979 1.7583 20.4125Z" fill="#FFEAB6"/>
<path d="M1.7583 20.4696C1.7583 9.71937 3.81632 4.10979 7.93235 3.63898C8.1217 3.61793 28.8258 3.60645 29.0242 3.60645C29.2872 3.60645 49.0108 3.62558 49.2587 3.66386C53.2508 4.28204 55.2472 9.88204 55.2472 20.4696C55.2472 31.2371 53.1817 36.8505 49.0506 37.306C48.8688 37.3251 29.2143 37.3366 29.0242 37.3366C28.753 37.3366 7.97819 37.3155 7.72347 37.2753C3.74644 36.638 1.7583 31.0342 1.7583 20.4696Z" fill="url(#paint1_linear_314_6764)"/>
<path opacity="0.5" d="M29.0242 34.8412C28.7357 34.8412 7.94437 34.8183 7.67463 34.7723C3.8862 34.1235 1.91759 28.9293 1.76807 19.1953C1.76206 19.5934 1.7583 19.9991 1.7583 20.4145C1.7583 30.8221 3.68783 36.4144 7.5469 37.1877C7.85646 37.2489 28.6891 37.2814 29.0235 37.2814C29.3751 37.2814 49.1814 37.247 49.5059 37.1781C53.3327 36.3685 55.2465 30.78 55.2465 20.4145C55.2465 19.9991 55.2427 19.5934 55.2367 19.1953C55.0887 28.87 53.1434 34.0604 49.4008 34.7609C49.1092 34.8144 29.3375 34.8412 29.0242 34.8412Z" fill="#0E4D99"/>
<defs>
<linearGradient id="paint0_linear_314_6764" x1="28.5025" y1="39.606" x2="28.5025" y2="1.33584" gradientUnits="userSpaceOnUse">
<stop stop-color="#AE50EC"/>
<stop offset="0.5123" stop-color="#6206C8"/>
</linearGradient>
<linearGradient id="paint1_linear_314_6764" x1="28.5025" y1="4.80304" x2="28.5025" y2="37.9706" gradientUnits="userSpaceOnUse">
<stop offset="0.00223473" stop-color="#00E3FF"/>
<stop offset="1" stop-color="#7A01F3"/>
</linearGradient>
</defs>
</svg>
