<svg width="113" height="35" viewBox="0 0 113 35" fill="none" xmlns="http://www.w3.org/2000/svg">
<path d="M0.944824 17.8493C0.944824 7.35535 5.50868 1.71329 14.6364 0.921485C15.3818 0.856315 57.1808 0.82373 57.9877 0.82373C58.6279 0.82373 98.1833 0.843281 98.7844 0.884012C108.225 1.52267 112.945 7.17613 112.945 17.8476C112.945 28.4882 108.25 34.1433 98.8626 34.808C98.2374 34.852 58.6535 34.8748 57.9862 34.8748C57.1973 34.8748 15.4133 34.8439 14.6815 34.782C5.52371 34.0064 0.944824 28.3595 0.944824 17.8493Z" fill="black"/>
<path d="M1.73193 17.7452C1.73193 7.66672 6.13199 2.26579 14.9321 1.54078C15.6143 1.48538 57.3457 1.45605 58.0806 1.45605C58.7192 1.45605 98.2746 1.47724 98.8727 1.5196C107.853 2.155 112.345 7.56244 112.345 17.7436C112.345 27.9605 107.822 33.3729 98.7766 33.9773C98.207 34.0148 58.6847 34.0343 58.0806 34.0343C57.5245 34.0343 15.96 34.018 15.4325 33.9854C6.29879 33.4266 1.73193 28.0127 1.73193 17.7452Z" fill="url(#paint0_linear_314_6742)"/>
<path d="M3.45557 18.6184C3.45557 9.04663 48.9799 4.26318 57.9874 4.26318C66.9934 4.26318 110.433 9.04663 110.433 18.6184C110.433 27.5597 106.504 32.3252 98.6428 32.9134C98.0883 32.9541 58.5795 32.9753 57.9874 32.9753C57.2255 32.9753 15.4746 32.941 14.7773 32.8726C7.22897 32.1329 3.45557 27.3805 3.45557 18.6184Z" fill="black"/>
<path d="M3.55029 17.696C3.55029 8.54461 7.66633 3.76931 15.8984 3.36852C16.2771 3.3506 57.6854 3.34082 58.0821 3.34082C58.6081 3.34082 98.0553 3.35711 98.5512 3.3897C106.535 3.91594 110.528 8.6831 110.528 17.696C110.528 26.8621 106.397 31.6407 98.1349 32.0285C97.7713 32.0448 58.4623 32.0545 58.0821 32.0545C57.5396 32.0545 15.9901 32.0366 15.4806 32.0024C7.52657 31.4599 3.55029 26.6911 3.55029 17.696Z" fill="#FFEAB6"/>
<path d="M3.55029 17.7449C3.55029 8.59344 7.66633 3.81814 15.8984 3.41735C16.2771 3.39942 57.6854 3.38965 58.0821 3.38965C58.6081 3.38965 98.0553 3.40594 98.5512 3.43853C106.535 3.96477 110.528 8.73192 110.528 17.7449C110.528 26.911 106.397 31.6895 98.1349 32.0773C97.7713 32.0936 58.4623 32.1034 58.0821 32.1034C57.5396 32.1034 15.9901 32.0854 15.4806 32.0512C7.52657 31.5087 3.55029 26.7383 3.55029 17.7449Z" fill="url(#paint1_linear_314_6742)"/>
<path opacity="0.5" d="M58.0821 29.9787C57.5051 29.9787 15.9224 29.9591 15.383 29.92C7.80608 29.3677 3.86888 24.946 3.56983 16.6597C3.55781 16.9985 3.55029 17.3439 3.55029 17.6975C3.55029 26.5573 7.40936 31.3179 15.1275 31.9761C15.7466 32.0283 57.4119 32.056 58.0806 32.056C58.7839 32.056 98.3964 32.0267 99.0456 31.968C106.699 31.2788 110.527 26.5215 110.527 17.6975C110.527 17.3439 110.519 16.9985 110.507 16.6597C110.211 24.8955 106.32 29.314 98.8352 29.9103C98.2521 29.9559 58.7088 29.9787 58.0821 29.9787Z" fill="#0E4D99"/>
<path d="M15.7144 20.5034C15.7144 20.6909 15.6812 20.8921 15.6147 21.1069C15.5522 21.3218 15.4468 21.521 15.2983 21.7046C15.1538 21.8882 14.9644 22.0425 14.73 22.1675C14.4956 22.2886 14.2085 22.3491 13.8687 22.3491H8.08545C7.97607 22.3491 7.87451 22.3296 7.78076 22.2905C7.68701 22.2515 7.60498 22.1987 7.53467 22.1323C7.46826 22.062 7.41553 21.98 7.37646 21.8862C7.3374 21.7925 7.31787 21.6909 7.31787 21.5815V14.7144C7.31787 14.6089 7.3374 14.5093 7.37646 14.4155C7.41553 14.3218 7.46826 14.2397 7.53467 14.1694C7.60498 14.0991 7.68701 14.0444 7.78076 14.0054C7.87451 13.9663 7.97607 13.9468 8.08545 13.9468H13.1831C13.3706 13.9468 13.5718 13.98 13.7866 14.0464C14.0015 14.1128 14.2007 14.2202 14.3843 14.3687C14.5718 14.5132 14.7261 14.7026 14.8472 14.937C14.9722 15.1714 15.0347 15.4585 15.0347 15.7983V16.0854C15.0347 16.355 14.9897 16.646 14.8999 16.9585C14.8101 17.2671 14.6655 17.5601 14.4663 17.8374C14.6382 17.9429 14.7983 18.0698 14.9468 18.2183C15.0991 18.3667 15.2319 18.5386 15.3452 18.7339C15.4585 18.9292 15.5483 19.1499 15.6147 19.396C15.6812 19.6421 15.7144 19.9136 15.7144 20.2104V20.5034ZM14.1909 20.2104C14.1909 20.0112 14.1597 19.8335 14.0972 19.6772C14.0347 19.5171 13.9468 19.3804 13.8335 19.2671C13.7202 19.1538 13.5835 19.0679 13.4233 19.0093C13.2632 18.9468 13.0835 18.9155 12.8843 18.9155H9.45068V17.3804H12.1987C12.3979 17.3804 12.5776 17.3511 12.7378 17.2925C12.8979 17.23 13.0347 17.1421 13.1479 17.0288C13.2612 16.9155 13.3472 16.7808 13.4058 16.6245C13.4683 16.4644 13.4995 16.2847 13.4995 16.0854V15.7983C13.4995 15.5796 13.394 15.4702 13.1831 15.4702H8.84131V20.8257H13.8687C13.896 20.8257 13.9292 20.8237 13.9683 20.8198C14.0073 20.8159 14.0425 20.8042 14.0737 20.7847C14.105 20.7651 14.1323 20.7319 14.1558 20.6851C14.1792 20.6382 14.1909 20.5737 14.1909 20.4917V20.2104ZM24.51 21.5815C24.51 21.6909 24.4904 21.7925 24.4514 21.8862C24.4123 21.98 24.3576 22.062 24.2873 22.1323C24.217 22.1987 24.135 22.2515 24.0412 22.2905C23.9475 22.3296 23.8479 22.3491 23.7424 22.3491H20.3088C19.9846 22.3491 19.6565 22.314 19.3244 22.2437C18.9924 22.1733 18.6701 22.0659 18.3576 21.9214C18.049 21.7729 17.758 21.5854 17.4846 21.3589C17.2112 21.1323 16.9709 20.8647 16.7639 20.5562C16.5608 20.2437 16.4006 19.8882 16.2834 19.4897C16.1662 19.0874 16.1076 18.6401 16.1076 18.1479V13.9468H17.6311V18.1479C17.6311 18.5776 17.6897 18.9409 17.8069 19.2378C17.9279 19.5347 18.0803 19.7827 18.2639 19.9819C18.4475 20.1812 18.6487 20.3374 18.8674 20.4507C19.0862 20.564 19.2932 20.6479 19.4885 20.7026C19.6877 20.7573 19.8615 20.7925 20.01 20.8081C20.1623 20.8198 20.2619 20.8257 20.3088 20.8257H22.9865V13.9468H24.51V21.5815ZM33.5693 16.7593C33.5693 17.1069 33.5244 17.4175 33.4345 17.6909C33.3486 17.9644 33.2333 18.2065 33.0888 18.4175C32.9443 18.6245 32.7744 18.8022 32.579 18.9507C32.3876 19.0991 32.1884 19.2222 31.9814 19.3198C31.7744 19.4136 31.5634 19.4819 31.3486 19.5249C31.1376 19.5679 30.9384 19.5894 30.7509 19.5894H30.1357V22.3491H28.6005V19.5894H27.9912C27.8037 19.5894 27.6025 19.5679 27.3876 19.5249C27.1767 19.4819 26.9658 19.4136 26.7548 19.3198C26.5478 19.2222 26.3486 19.0991 26.1572 18.9507C25.9658 18.8022 25.7958 18.6245 25.6474 18.4175C25.5029 18.2065 25.3857 17.9644 25.2958 17.6909C25.2099 17.4136 25.1669 17.103 25.1669 16.7593V13.9468H26.6904V16.7593C26.6904 16.9585 26.7216 17.1382 26.7841 17.2983C26.8466 17.4546 26.9345 17.5894 27.0478 17.7026C27.1611 17.8159 27.2978 17.9038 27.4579 17.9663C27.622 18.0249 27.8037 18.0542 28.0029 18.0542H30.7509C30.8954 18.0308 31.0439 18.0015 31.1962 17.9663C31.3486 17.9272 31.4872 17.8628 31.6122 17.7729C31.7372 17.6831 31.8408 17.5581 31.9228 17.3979C32.0048 17.2378 32.0458 17.0249 32.0458 16.7593V13.9468H33.5693V16.7593ZM48.0258 13.9468L46.6195 21.8218C46.5883 21.978 46.5179 22.1128 46.4086 22.2261C46.2992 22.3394 46.1664 22.4116 46.0101 22.4429C45.85 22.4702 45.6976 22.4526 45.5531 22.3901C45.4125 22.3276 45.3012 22.23 45.2191 22.0972L42.4301 17.5151L39.6351 22.0972C39.5687 22.2104 39.4769 22.2983 39.3597 22.3608C39.2465 22.4233 39.1234 22.4546 38.9906 22.4546C38.807 22.4546 38.6449 22.396 38.5043 22.2788C38.3637 22.1616 38.2777 22.0093 38.2465 21.8218L36.8285 13.9468H38.3754L39.3832 19.4956L41.7855 15.6636C41.8519 15.5503 41.9418 15.4624 42.0551 15.3999C42.1722 15.3374 42.2972 15.3062 42.4301 15.3062C42.5629 15.3062 42.6859 15.3374 42.7992 15.3999C42.9125 15.4624 43.0062 15.5503 43.0804 15.6636L45.4711 19.4956L46.4789 13.9468H48.0258ZM50.1476 22.3491H48.6241V13.9468H50.1476V22.3491ZM58.8026 15.4702H55.4451V22.3491H53.9217V15.4702H50.5584V13.9468H58.8026V15.4702ZM60.7427 17.3804H66.0923V13.9468H67.6158V22.3491H66.0923V18.9155H60.7427V22.3491H59.2193V13.9468H60.7427V17.3804ZM80.0976 21.5815C80.0976 21.6909 80.0781 21.7925 80.039 21.8862C80 21.98 79.9453 22.062 79.875 22.1323C79.8047 22.1987 79.7226 22.2515 79.6289 22.2905C79.5351 22.3296 79.4355 22.3491 79.3301 22.3491H75.8965C75.5722 22.3491 75.2441 22.314 74.9121 22.2437C74.5801 22.1733 74.2578 22.0659 73.9453 21.9214C73.6367 21.7729 73.3457 21.5854 73.0722 21.3589C72.7988 21.1323 72.5586 20.8647 72.3515 20.5562C72.1484 20.2437 71.9883 19.8882 71.8711 19.4897C71.7539 19.0874 71.6953 18.6401 71.6953 18.1479V13.9468H73.2187V18.1479C73.2187 18.5776 73.2773 18.9409 73.3945 19.2378C73.5156 19.5347 73.6679 19.7827 73.8515 19.9819C74.0351 20.1812 74.2363 20.3374 74.4551 20.4507C74.6738 20.564 74.8808 20.6479 75.0761 20.7026C75.2754 20.7573 75.4492 20.7925 75.5976 20.8081C75.75 20.8198 75.8496 20.8257 75.8965 20.8257H78.5742V13.9468H80.0976V21.5815ZM89.2272 19.8765C89.2272 20.1772 89.1882 20.4487 89.1101 20.6909C89.0358 20.9292 88.9362 21.1401 88.8112 21.3237C88.6862 21.5073 88.5397 21.6636 88.3718 21.7925C88.2038 21.9214 88.03 22.0269 87.8503 22.1089C87.6706 22.1909 87.487 22.2515 87.2995 22.2905C87.1159 22.3296 86.9421 22.3491 86.778 22.3491H80.9011V20.8257H86.778C87.071 20.8257 87.2976 20.7397 87.4577 20.5679C87.6218 20.396 87.7038 20.1655 87.7038 19.8765C87.7038 19.7358 87.6823 19.6069 87.6394 19.4897C87.5964 19.3726 87.5339 19.271 87.4519 19.1851C87.3737 19.0991 87.2761 19.0327 87.1589 18.9858C87.0456 18.939 86.9187 18.9155 86.778 18.9155H83.2741C83.028 18.9155 82.7624 18.8726 82.4772 18.7866C82.1921 18.6968 81.9265 18.5542 81.6804 18.3589C81.4382 18.1636 81.2351 17.9077 81.071 17.5913C80.9108 17.2749 80.8308 16.8882 80.8308 16.4312C80.8308 15.9741 80.9108 15.5894 81.071 15.2769C81.2351 14.9604 81.4382 14.7046 81.6804 14.5093C81.9265 14.3101 82.1921 14.1675 82.4772 14.0815C82.7624 13.9917 83.028 13.9468 83.2741 13.9468H88.4597V15.4702H83.2741C82.9851 15.4702 82.7585 15.5581 82.5944 15.7339C82.4343 15.9097 82.3542 16.1421 82.3542 16.4312C82.3542 16.7241 82.4343 16.9565 82.5944 17.1284C82.7585 17.2964 82.9851 17.3804 83.2741 17.3804H86.778H86.7897C86.9538 17.3843 87.1276 17.4077 87.3112 17.4507C87.4948 17.4897 87.6765 17.5522 87.8562 17.6382C88.0397 17.7241 88.2136 17.8335 88.3776 17.9663C88.5417 18.0952 88.6862 18.2515 88.8112 18.4351C88.9401 18.6187 89.0417 18.8296 89.1159 19.0679C89.1901 19.3062 89.2272 19.5757 89.2272 19.8765ZM98.1576 18.8335C98.1576 19.3452 98.0678 19.8159 97.8881 20.2456C97.7123 20.6753 97.4682 21.0464 97.1557 21.3589C96.8432 21.6675 96.4721 21.9097 96.0424 22.0854C95.6127 22.2612 95.1459 22.3491 94.642 22.3491H90.5287C90.4194 22.3491 90.3178 22.3296 90.224 22.2905C90.1303 22.2515 90.0483 22.1987 89.978 22.1323C89.9115 22.062 89.8588 21.98 89.8197 21.8862C89.7807 21.7925 89.7612 21.6909 89.7612 21.5815V14.7144C89.7612 14.6089 89.7807 14.5093 89.8197 14.4155C89.8588 14.3218 89.9115 14.2397 89.978 14.1694C90.0483 14.0991 90.1303 14.0444 90.224 14.0054C90.3178 13.9663 90.4194 13.9468 90.5287 13.9468H94.642C95.1459 13.9468 95.6127 14.0347 96.0424 14.2104C96.4721 14.3862 96.8432 14.6304 97.1557 14.9429C97.4682 15.2515 97.7123 15.6226 97.8881 16.0562C98.0678 16.4858 98.1576 16.9546 98.1576 17.4624V18.8335ZM96.6342 17.4624C96.6342 17.1655 96.5854 16.894 96.4877 16.6479C96.394 16.4019 96.2592 16.1929 96.0834 16.021C95.9076 15.8452 95.6967 15.7104 95.4506 15.6167C95.2084 15.519 94.9389 15.4702 94.642 15.4702H91.2846V20.8257H94.642C94.9389 20.8257 95.2084 20.7788 95.4506 20.6851C95.6967 20.5874 95.9076 20.4526 96.0834 20.2808C96.2592 20.105 96.394 19.896 96.4877 19.6538C96.5854 19.4077 96.6342 19.1343 96.6342 18.8335V17.4624ZM106.385 15.4702H103.027V22.3491H101.504V15.4702H98.1408V13.9468H106.385V15.4702Z" fill="white"/>
<defs>
<linearGradient id="paint0_linear_314_6742" x1="57.0386" y1="34.0354" x2="57.0386" y2="1.4568" gradientUnits="userSpaceOnUse">
<stop stop-color="#AE50EC"/>
<stop offset="0.5123" stop-color="#6206C8"/>
</linearGradient>
<linearGradient id="paint1_linear_314_6742" x1="57.0386" y1="4.40828" x2="57.0386" y2="32.643" gradientUnits="userSpaceOnUse">
<stop offset="0.00223473" stop-color="#00E3FF"/>
<stop offset="1" stop-color="#7A01F3"/>
</linearGradient>
</defs>
</svg>
