<svg width="390" height="257" viewBox="0 0 390 257" fill="none" xmlns="http://www.w3.org/2000/svg">
<g>
<path d="M337.558 15.5381H315.67L307.3 15.576L270.794 16.1991L252.541 16.5107M367.986 15.3011L370.078 15.2916V15.2916C372.387 15.2811 374.263 17.1495 374.263 19.4579V75.2885C374.263 77.2777 373.567 79.204 372.294 80.7329V80.7329C371.021 82.2618 370.325 84.1881 370.325 86.1773V162.106C370.325 163.339 371.12 164.431 372.294 164.809V164.809C373.468 165.187 374.263 166.279 374.263 167.512V227.781C374.263 235.513 367.995 241.781 360.263 241.781H228.267C224.753 241.781 221.439 240.144 219.304 237.353V237.353C217.169 234.562 213.855 232.925 210.341 232.925H169.8C166.285 232.925 162.971 234.562 160.836 237.353V237.353C158.701 240.144 155.387 241.781 151.873 241.781H29.5767C21.8447 241.781 15.5767 235.513 15.5767 227.781V168.382C15.5767 166.541 16.4791 164.817 17.992 163.768V163.768C19.5048 162.718 20.4073 160.994 20.4073 159.153V84.2509C20.4073 82.4097 19.5048 80.6854 17.992 79.636V79.636C16.4791 78.5866 15.5767 76.8624 15.5767 75.0212L15.5767 19.6381C15.5767 17.2271 17.5311 15.2726 19.9421 15.2726V15.2726M142.22 15.2725L50.5 15.2726" stroke="#BCFCFF" stroke-width="6" stroke-linecap="round" stroke-linejoin="round" vector-effect="non-scaling-stroke" shape-rendering="geometricPrecision"/>
</g>
</svg>
