<svg width="441" height="31" viewBox="0 0 441 31" fill="none" xmlns="http://www.w3.org/2000/svg">
<g filter="url(#filter0_f_363_1080)">
<path d="M434.043 23.0542L321.409 23.0542C316.492 23.0542 311.935 20.4746 309.405 16.2586L308.52 14.7839C305.99 10.5678 301.433 7.98828 296.516 7.98828L157.152 7.98827C152.755 7.98827 149.009 11.1803 148.311 15.5212V15.5212C147.613 19.8622 143.866 23.0542 139.47 23.0542L1.23365 23.0542" stroke="#9A1EFB" stroke-width="2"/>
</g>
<path d="M434.043 29.0542L321.409 29.0542C316.492 29.0542 311.935 26.4746 309.405 22.2586L308.52 20.7839C305.99 16.5678 301.433 13.9883 296.516 13.9883L157.152 13.9883C152.755 13.9883 149.009 17.1803 148.311 21.5212V21.5212C147.613 25.8622 143.866 29.0542 139.47 29.0542L1.23365 29.0542" stroke="#00B2B9" stroke-width="2"/>
<path d="M434.043 17.0542L321.409 17.0542C316.492 17.0542 311.935 14.4746 309.405 10.2586L308.52 8.78391C305.99 4.56784 301.433 1.98828 296.516 1.98828L157.152 1.98827C152.755 1.98827 149.009 5.18026 148.311 9.52123V9.52123C147.613 13.8622 143.866 17.0542 139.47 17.0542L1.23365 17.0542" stroke="#00B2B9" stroke-width="2"/>
<defs>
<filter id="filter0_f_363_1080" x="-4.76636" y="0.988281" width="444.81" height="29.0664" filterUnits="userSpaceOnUse" color-interpolation-filters="sRGB">
<feFlood flood-opacity="0" result="BackgroundImageFix"/>
<feBlend mode="normal" in="SourceGraphic" in2="BackgroundImageFix" result="shape"/>
<feGaussianBlur stdDeviation="3" result="effect1_foregroundBlur_363_1080"/>
</filter>
</defs>
</svg>
