<svg width="202" height="49" viewBox="0 0 202 49" fill="none" xmlns="http://www.w3.org/2000/svg">
<path d="M0.860596 24.5674C0.860596 9.77465 9.05026 1.82135 25.4296 0.705182C26.7671 0.613315 101.774 0.567383 103.222 0.567383C104.371 0.567383 175.351 0.594942 176.43 0.652359C193.37 1.55265 201.84 9.52202 201.84 24.5651C201.84 39.5645 193.416 47.5362 176.57 48.4732C175.448 48.5352 104.417 48.5674 103.219 48.5674C101.804 48.5674 26.8237 48.5237 25.5105 48.4365C9.07723 47.3433 0.860596 39.3831 0.860596 24.5674Z" fill="black"/>
<path d="M2.27319 24.4199C2.27319 10.2128 10.1689 2.59944 25.9604 1.57743C27.1846 1.49935 102.07 1.45801 103.389 1.45801C104.535 1.45801 175.515 1.48787 176.589 1.54758C192.704 2.44327 200.764 10.0659 200.764 24.4176C200.764 38.8199 192.647 46.4494 176.416 47.3015C175.394 47.3543 104.473 47.3818 103.389 47.3818C102.391 47.3818 27.8049 47.3589 26.8584 47.3129C10.4682 46.5252 2.27319 38.8934 2.27319 24.4199Z" fill="url(#paint0_linear_363_1895)"/>
<path d="M5.36646 25.6518C5.36646 12.159 87.0581 5.41602 103.222 5.41602C119.383 5.41602 197.334 12.159 197.334 25.6518C197.334 38.2558 190.282 44.9735 176.176 45.8026C175.181 45.86 104.284 45.8899 103.222 45.8899C101.855 45.8899 26.9341 45.8417 25.6829 45.7452C12.1377 44.7025 5.36646 38.0032 5.36646 25.6518Z" fill="black"/>
<path d="M5.53589 24.352C5.53589 11.4517 12.922 4.72023 27.6941 4.15525C28.3736 4.12999 102.679 4.11621 103.391 4.11621C104.335 4.11621 175.121 4.13918 176.011 4.18511C190.339 4.92693 197.504 11.6469 197.504 24.352C197.504 37.273 190.09 44.009 175.264 44.5556C174.612 44.5786 104.073 44.5924 103.391 44.5924C102.418 44.5924 27.8586 44.5671 26.9444 44.5189C12.6712 43.7541 5.53589 37.0318 5.53589 24.352Z" fill="#FFEAB6"/>
<path d="M5.53589 24.4213C5.53589 11.5211 12.922 4.78957 27.6941 4.22459C28.3736 4.19933 102.679 4.18555 103.391 4.18555C104.335 4.18555 175.121 4.20851 176.011 4.25445C190.339 4.99626 197.504 11.7163 197.504 24.4213C197.504 37.3423 190.09 44.0784 175.264 44.625C174.612 44.6479 104.073 44.6617 103.391 44.6617C102.418 44.6617 27.8586 44.6365 26.9444 44.5882C12.6712 43.8234 5.53589 37.0989 5.53589 24.4213Z" fill="url(#paint1_linear_363_1895)"/>
<path opacity="0.5" d="M103.391 41.6657C102.356 41.6657 27.7372 41.6382 26.7691 41.5831C13.1727 40.8045 6.10757 34.5714 5.57094 22.8906C5.54937 23.3683 5.53589 23.8552 5.53589 24.3536C5.53589 36.8428 12.4608 43.5536 26.3107 44.4814C27.4217 44.5549 102.188 44.594 103.388 44.594C104.65 44.594 175.734 44.5526 176.899 44.47C190.632 43.4985 197.501 36.7923 197.501 24.3536C197.501 23.8552 197.487 23.3683 197.466 22.8906C196.935 34.5002 189.953 40.7287 176.521 41.5693C175.475 41.6336 104.516 41.6657 103.391 41.6657Z" fill="#0E4D99"/>
<path d="M52.5615 30.5674H45.2334C45.0459 30.5674 44.8428 30.5465 44.624 30.5049C44.4105 30.458 44.1969 30.3877 43.9834 30.2939C43.7751 30.2002 43.5745 30.0804 43.3818 29.9346C43.1891 29.7835 43.0173 29.6038 42.8662 29.3955C42.7204 29.182 42.6032 28.9372 42.5146 28.6611C42.4261 28.3799 42.3818 28.0648 42.3818 27.7158V22.2158C42.3818 22.0283 42.4027 21.8278 42.4443 21.6143C42.4912 21.3955 42.5615 21.182 42.6553 20.9736C42.749 20.7601 42.8714 20.557 43.0225 20.3643C43.1735 20.1715 43.3532 20.0023 43.5615 19.8564C43.7751 19.7054 44.0199 19.5856 44.2959 19.4971C44.5719 19.4085 44.8844 19.3643 45.2334 19.3643H52.5615V21.3955H45.2334C44.9678 21.3955 44.7646 21.4658 44.624 21.6064C44.4834 21.7471 44.4131 21.9554 44.4131 22.2314V27.7158C44.4131 27.9762 44.4834 28.1794 44.624 28.3252C44.7699 28.4658 44.973 28.5361 45.2334 28.5361H52.5615V30.5674ZM57.0078 30.5674H56.1015C55.8099 30.5674 55.4974 30.5179 55.164 30.4189C54.8359 30.32 54.5286 30.1585 54.2421 29.9346C53.9557 29.7054 53.7187 29.4111 53.5312 29.0518C53.3437 28.6872 53.25 28.2419 53.25 27.7158V18.5518H55.2812V27.7158C55.2812 27.9658 55.3593 28.1663 55.5156 28.3174C55.6718 28.4632 55.8671 28.5361 56.1015 28.5361H57.0078V30.5674ZM66.0712 27.7705C66.0712 28.0518 66.0217 28.3564 65.9228 28.6846C65.8238 29.0075 65.6624 29.3096 65.4384 29.5908C65.2196 29.8669 64.9306 30.0986 64.5712 30.2861C64.217 30.4736 63.7848 30.5674 63.2743 30.5674H59.6103C59.329 30.5674 59.0243 30.5179 58.6962 30.4189C58.3733 30.32 58.0712 30.1611 57.79 29.9424C57.5139 29.7184 57.2821 29.4294 57.0946 29.0752C56.9071 28.7158 56.8134 28.2809 56.8134 27.7705C56.8134 27.4893 56.8629 27.1846 56.9618 26.8564C57.0608 26.5283 57.2196 26.2262 57.4384 25.9502C57.6624 25.6689 57.9514 25.4346 58.3056 25.2471C58.665 25.0596 59.0999 24.9658 59.6103 24.9658H63.2743V26.9033H59.6103C59.3342 26.9033 59.1207 26.9893 58.9696 27.1611C58.8186 27.3278 58.7431 27.5361 58.7431 27.7861C58.7431 28.0518 58.829 28.2601 59.0009 28.4111C59.178 28.557 59.3863 28.6299 59.6259 28.6299H63.2743C63.5504 28.6299 63.7639 28.5465 63.915 28.3799C64.066 28.2132 64.1415 28.0049 64.1415 27.7549V24.9189C64.1415 24.6533 64.0582 24.4424 63.8915 24.2861C63.7301 24.1299 63.5243 24.0518 63.2743 24.0518H58.8134V22.1221H63.2743C63.5556 22.1221 63.8577 22.1715 64.1806 22.2705C64.5087 22.3695 64.8108 22.5309 65.0868 22.7549C65.3681 22.9736 65.6025 23.2627 65.79 23.6221C65.9775 23.9762 66.0712 24.4085 66.0712 24.9189V27.7705ZM68.9081 20.3877H66.8768V18.5518H68.9081V20.3877ZM68.9081 30.5674H66.8768V22.1221H68.9081V30.5674ZM77.4403 30.5674H75.409V24.9658C75.409 24.7002 75.3387 24.4997 75.1981 24.3643C75.0575 24.2236 74.8491 24.1533 74.5731 24.1533H71.9325V30.5674H69.9012V23.1299C69.9012 22.9893 69.9273 22.859 69.9793 22.7393C70.0314 22.6143 70.1043 22.5075 70.1981 22.4189C70.2918 22.3252 70.4012 22.2523 70.5262 22.2002C70.6512 22.1481 70.784 22.1221 70.9246 22.1221H74.5887C74.87 22.1221 75.172 22.1715 75.495 22.2705C75.8179 22.3695 76.1252 22.5283 76.4168 22.7471V22.1221H79.1668C79.3595 22.1221 79.5627 22.1455 79.7762 22.1924C79.9898 22.234 80.2007 22.3018 80.409 22.3955C80.6226 22.4893 80.8257 22.6117 81.0184 22.7627C81.2111 22.9085 81.3804 23.0882 81.5262 23.3018C81.672 23.5101 81.7892 23.7523 81.8778 24.0283C81.9663 24.3044 82.0106 24.6169 82.0106 24.9658V30.5674H79.9793V24.9658C79.9793 24.7002 79.9116 24.4997 79.7762 24.3643C79.646 24.2236 79.4429 24.1533 79.1668 24.1533H77.3387C77.4064 24.4033 77.4403 24.6742 77.4403 24.9658V30.5674ZM96.4812 31.3799C96.4812 31.7288 96.4369 32.0413 96.3484 32.3174C96.2599 32.5986 96.1427 32.8434 95.9968 33.0518C95.851 33.2653 95.6817 33.445 95.489 33.5908C95.2963 33.7419 95.0932 33.8643 94.8797 33.958C94.6713 34.0518 94.4604 34.1195 94.2468 34.1611C94.0333 34.208 93.8302 34.2314 93.6375 34.2314H89.9734V32.2002H93.6375C93.9083 32.2002 94.1114 32.1299 94.2468 31.9893C94.3823 31.8486 94.45 31.6455 94.45 31.3799V22.1221H96.4812V31.3799ZM93.6375 30.5674H89.9734C89.6817 30.5674 89.3692 30.5179 89.0359 30.4189C88.7078 30.32 88.4005 30.1585 88.114 29.9346C87.8276 29.7054 87.5906 29.4111 87.4031 29.0518C87.2156 28.6872 87.1218 28.2419 87.1218 27.7158V22.1221H89.1531V27.7158C89.1531 27.9814 89.2234 28.1846 89.364 28.3252C89.5047 28.4658 89.713 28.5361 89.989 28.5361H93.6375V30.5674ZM106.646 27.7158C106.646 28.0648 106.602 28.3799 106.513 28.6611C106.425 28.9372 106.308 29.182 106.162 29.3955C106.016 29.6038 105.847 29.7835 105.654 29.9346C105.461 30.0804 105.258 30.2002 105.045 30.2939C104.836 30.3877 104.623 30.458 104.404 30.5049C104.19 30.5465 103.987 30.5674 103.795 30.5674H100.131C99.8493 30.5674 99.542 30.5179 99.2087 30.4189C98.8754 30.32 98.5655 30.1585 98.279 29.9346C97.9978 29.7054 97.7608 29.4111 97.5681 29.0518C97.3806 28.6872 97.2868 28.2419 97.2868 27.7158V24.9658C97.2868 24.445 97.3806 24.0049 97.5681 23.6455C97.7608 23.2809 97.9978 22.9867 98.279 22.7627C98.5655 22.5335 98.8754 22.3695 99.2087 22.2705C99.542 22.1715 99.8493 22.1221 100.131 22.1221H103.795C104.315 22.1221 104.758 22.2158 105.123 22.4033C105.487 22.5908 105.782 22.8278 106.006 23.1143C106.23 23.3955 106.391 23.7028 106.49 24.0361C106.594 24.3695 106.646 24.6794 106.646 24.9658V27.7158ZM104.615 24.9814C104.615 24.7002 104.545 24.4919 104.404 24.3564C104.263 24.221 104.06 24.1533 103.795 24.1533H100.146C99.8754 24.1533 99.6696 24.2236 99.529 24.3643C99.3884 24.4997 99.3181 24.7002 99.3181 24.9658V27.7158C99.3181 27.9814 99.3884 28.1846 99.529 28.3252C99.6696 28.4658 99.8754 28.5361 100.146 28.5361H103.795C104.071 28.5361 104.276 28.4658 104.412 28.3252C104.547 28.1846 104.615 27.9814 104.615 27.7158V24.9814ZM116.655 29.5439C116.655 29.6898 116.629 29.8252 116.577 29.9502C116.525 30.0752 116.452 30.1846 116.358 30.2783C116.27 30.3669 116.163 30.4372 116.038 30.4893C115.918 30.5413 115.788 30.5674 115.647 30.5674H111.053C110.803 30.5674 110.535 30.5387 110.249 30.4814C109.967 30.4242 109.689 30.333 109.413 30.208C109.137 30.0778 108.869 29.9163 108.608 29.7236C108.353 29.5257 108.129 29.2887 107.936 29.0127C107.744 28.7314 107.587 28.4085 107.467 28.0439C107.353 27.6794 107.296 27.2679 107.296 26.8096V22.1221H109.327V26.8096C109.327 27.0752 109.371 27.3148 109.46 27.5283C109.553 27.7367 109.678 27.9163 109.835 28.0674C109.991 28.2184 110.173 28.3356 110.382 28.4189C110.595 28.4971 110.824 28.5361 111.069 28.5361H114.624V22.1221H116.655V29.5439ZM124.992 24.1533H120.422C120.145 24.1533 119.937 24.2236 119.797 24.3643C119.656 24.4997 119.586 24.7002 119.586 24.9658V30.5674H117.554V24.9658C117.554 24.6169 117.599 24.3044 117.687 24.0283C117.776 23.7523 117.893 23.5101 118.039 23.3018C118.19 23.0882 118.362 22.9085 118.554 22.7627C118.747 22.6117 118.948 22.4893 119.156 22.3955C119.369 22.3018 119.583 22.234 119.797 22.1924C120.015 22.1455 120.218 22.1221 120.406 22.1221H124.992V24.1533ZM133.205 30.5674H132.298C132.007 30.5674 131.694 30.5179 131.361 30.4189C131.033 30.32 130.725 30.1585 130.439 29.9346C130.153 29.7054 129.916 29.4111 129.728 29.0518C129.541 28.6872 129.447 28.2419 129.447 27.7158V18.5518H131.478V27.7158C131.478 27.9658 131.556 28.1663 131.712 28.3174C131.869 28.4632 132.064 28.5361 132.298 28.5361H133.205V30.5674ZM142.737 27.7158C142.737 28.0648 142.693 28.3799 142.604 28.6611C142.515 28.9372 142.398 29.182 142.252 29.3955C142.107 29.6038 141.937 29.7835 141.745 29.9346C141.552 30.0804 141.349 30.2002 141.135 30.2939C140.927 30.3877 140.713 30.458 140.495 30.5049C140.281 30.5465 140.078 30.5674 139.885 30.5674H136.221C135.94 30.5674 135.633 30.5179 135.299 30.4189C134.966 30.32 134.656 30.1585 134.37 29.9346C134.088 29.7054 133.851 29.4111 133.659 29.0518C133.471 28.6872 133.377 28.2419 133.377 27.7158V24.9658C133.377 24.445 133.471 24.0049 133.659 23.6455C133.851 23.2809 134.088 22.9867 134.37 22.7627C134.656 22.5335 134.966 22.3695 135.299 22.2705C135.633 22.1715 135.94 22.1221 136.221 22.1221H139.885C140.406 22.1221 140.849 22.2158 141.213 22.4033C141.578 22.5908 141.872 22.8278 142.096 23.1143C142.32 23.3955 142.482 23.7028 142.581 24.0361C142.685 24.3695 142.737 24.6794 142.737 24.9658V27.7158ZM140.706 24.9814C140.706 24.7002 140.635 24.4919 140.495 24.3564C140.354 24.221 140.151 24.1533 139.885 24.1533H136.237C135.966 24.1533 135.76 24.2236 135.62 24.3643C135.479 24.4997 135.409 24.7002 135.409 24.9658V27.7158C135.409 27.9814 135.479 28.1846 135.62 28.3252C135.76 28.4658 135.966 28.5361 136.237 28.5361H139.885C140.161 28.5361 140.367 28.4658 140.502 28.3252C140.638 28.1846 140.706 27.9814 140.706 27.7158V24.9814ZM151.675 27.7158C151.675 28.0648 151.631 28.3799 151.542 28.6611C151.454 28.9372 151.337 29.182 151.191 29.3955C151.045 29.6038 150.876 29.7835 150.683 29.9346C150.49 30.0804 150.287 30.2002 150.074 30.2939C149.865 30.3877 149.652 30.458 149.433 30.5049C149.22 30.5465 149.016 30.5674 148.824 30.5674H143.324V28.5361H148.808C149.084 28.5361 149.292 28.4658 149.433 28.3252C149.574 28.1846 149.644 27.9814 149.644 27.7158C149.618 27.1742 149.345 26.9033 148.824 26.9033H145.675C145.227 26.9033 144.847 26.8252 144.535 26.6689C144.222 26.5127 143.967 26.3174 143.769 26.083C143.576 25.8486 143.436 25.596 143.347 25.3252C143.264 25.0544 143.222 24.8018 143.222 24.5674C143.222 24.1143 143.303 23.734 143.464 23.4268C143.626 23.1143 143.829 22.8617 144.074 22.6689C144.318 22.4762 144.584 22.3382 144.871 22.2549C145.157 22.1663 145.425 22.1221 145.675 22.1221H150.667V24.1533H145.691C145.587 24.1533 145.503 24.1663 145.441 24.1924C145.384 24.2132 145.339 24.2445 145.308 24.2861C145.282 24.3226 145.266 24.3643 145.261 24.4111C145.256 24.4528 145.253 24.4945 145.253 24.5361C145.259 24.6195 145.274 24.6846 145.3 24.7314C145.326 24.7783 145.358 24.8122 145.394 24.833C145.436 24.8538 145.48 24.8669 145.527 24.8721C145.579 24.8721 145.628 24.8721 145.675 24.8721H148.824C149.345 24.8721 149.787 24.9658 150.152 25.1533C150.516 25.3408 150.811 25.5778 151.035 25.8643C151.259 26.1455 151.42 26.4528 151.519 26.7861C151.623 27.1195 151.675 27.4294 151.675 27.7158ZM160.309 27.7158C160.309 28.0648 160.265 28.3799 160.176 28.6611C160.088 28.9372 159.97 29.182 159.825 29.3955C159.679 29.6038 159.51 29.7835 159.317 29.9346C159.124 30.0804 158.921 30.2002 158.707 30.2939C158.499 30.3877 158.286 30.458 158.067 30.5049C157.853 30.5465 157.65 30.5674 157.457 30.5674H151.957V28.5361H157.442C157.718 28.5361 157.926 28.4658 158.067 28.3252C158.207 28.1846 158.278 27.9814 158.278 27.7158C158.252 27.1742 157.978 26.9033 157.457 26.9033H154.309C153.861 26.9033 153.481 26.8252 153.168 26.6689C152.856 26.5127 152.601 26.3174 152.403 26.083C152.21 25.8486 152.069 25.596 151.981 25.3252C151.898 25.0544 151.856 24.8018 151.856 24.5674C151.856 24.1143 151.937 23.734 152.098 23.4268C152.26 23.1143 152.463 22.8617 152.707 22.6689C152.952 22.4762 153.218 22.3382 153.504 22.2549C153.791 22.1663 154.059 22.1221 154.309 22.1221H159.301V24.1533H154.325C154.22 24.1533 154.137 24.1663 154.075 24.1924C154.017 24.2132 153.973 24.2445 153.942 24.2861C153.916 24.3226 153.9 24.3643 153.895 24.4111C153.89 24.4528 153.887 24.4945 153.887 24.5361C153.892 24.6195 153.908 24.6846 153.934 24.7314C153.96 24.7783 153.991 24.8122 154.028 24.833C154.069 24.8538 154.114 24.8669 154.161 24.8721C154.213 24.8721 154.262 24.8721 154.309 24.8721H157.457C157.978 24.8721 158.421 24.9658 158.786 25.1533C159.15 25.3408 159.444 25.5778 159.668 25.8643C159.892 26.1455 160.054 26.4528 160.153 26.7861C160.257 27.1195 160.309 27.4294 160.309 27.7158Z" fill="white"/>
<defs>
<linearGradient id="paint0_linear_363_1895" x1="101.519" y1="47.3833" x2="101.519" y2="1.45906" gradientUnits="userSpaceOnUse">
<stop stop-color="#AE50EC"/>
<stop offset="0.5123" stop-color="#6206C8"/>
</linearGradient>
<linearGradient id="paint1_linear_363_1895" x1="101.519" y1="5.62146" x2="101.519" y2="45.4225" gradientUnits="userSpaceOnUse">
<stop offset="0.00223473" stop-color="#00E3FF"/>
<stop offset="1" stop-color="#7A01F3"/>
</linearGradient>
</defs>
</svg>
