<svg width="202" height="49" viewBox="0 0 202 49" fill="none" xmlns="http://www.w3.org/2000/svg">
<path d="M0.880859 24.5674C0.880859 9.77465 9.07052 1.82135 25.4498 0.705182C26.7874 0.613315 101.794 0.567383 103.242 0.567383C104.391 0.567383 175.372 0.594942 176.45 0.652359C193.39 1.55265 201.861 9.52202 201.861 24.5651C201.861 39.5645 193.436 47.5362 176.591 48.4732C175.469 48.5352 104.437 48.5674 103.24 48.5674C101.824 48.5674 26.844 48.5237 25.5307 48.4365C9.09749 47.3433 0.880859 39.3831 0.880859 24.5674Z" fill="black"/>
<path d="M2.29346 24.4199C2.29346 10.2128 10.1892 2.59944 25.9806 1.57743C27.2049 1.49935 102.09 1.45801 103.409 1.45801C104.555 1.45801 175.536 1.48787 176.609 1.54758C192.724 2.44327 200.784 10.0659 200.784 24.4176C200.784 38.8199 192.667 46.4494 176.436 47.3015C175.414 47.3543 104.493 47.3818 103.409 47.3818C102.411 47.3818 27.8251 47.3589 26.8786 47.3129C10.4885 46.5252 2.29346 38.8934 2.29346 24.4199Z" fill="url(#paint0_linear_256_1883)"/>
<path d="M5.38672 25.6518C5.38672 12.159 87.0784 5.41602 103.242 5.41602C119.403 5.41602 197.354 12.159 197.354 25.6518C197.354 38.2558 190.303 44.9735 176.197 45.8026C175.202 45.86 104.304 45.8899 103.242 45.8899C101.875 45.8899 26.9544 45.8417 25.7031 45.7452C12.158 44.7025 5.38672 38.0032 5.38672 25.6518Z" fill="black"/>
<path d="M5.55615 24.352C5.55615 11.4517 12.9422 4.72023 27.7144 4.15525C28.3939 4.12999 102.7 4.11621 103.411 4.11621C104.355 4.11621 175.142 4.13918 176.032 4.18511C190.359 4.92693 197.524 11.6469 197.524 24.352C197.524 37.273 190.111 44.009 175.285 44.5556C174.632 44.5786 104.094 44.5924 103.411 44.5924C102.438 44.5924 27.8788 44.5671 26.9647 44.5189C12.6914 43.7541 5.55615 37.0318 5.55615 24.352Z" fill="#FFEAB6"/>
<path d="M5.55615 24.4213C5.55615 11.5211 12.9422 4.78957 27.7144 4.22459C28.3939 4.19933 102.7 4.18555 103.411 4.18555C104.355 4.18555 175.142 4.20851 176.032 4.25445C190.359 4.99626 197.524 11.7163 197.524 24.4213C197.524 37.3423 190.111 44.0784 175.285 44.625C174.632 44.6479 104.094 44.6617 103.411 44.6617C102.438 44.6617 27.8788 44.6365 26.9647 44.5882C12.6914 43.8234 5.55615 37.0989 5.55615 24.4213Z" fill="url(#paint1_linear_256_1883)"/>
<path opacity="0.5" d="M103.411 41.6657C102.376 41.6657 27.7575 41.6382 26.7894 41.5831C13.193 40.8045 6.12784 34.5714 5.59121 22.8906C5.56963 23.3683 5.55615 23.8552 5.55615 24.3536C5.55615 36.8428 12.4811 43.5536 26.331 44.4814C27.442 44.5549 102.209 44.594 103.409 44.594C104.671 44.594 175.754 44.5526 176.919 44.47C190.653 43.4985 197.521 36.7923 197.521 24.3536C197.521 23.8552 197.508 23.3683 197.486 22.8906C196.955 34.5002 189.973 40.7287 176.541 41.5693C175.495 41.6336 104.536 41.6657 103.411 41.6657Z" fill="#0E4D99"/>
<defs>
<linearGradient id="paint0_linear_256_1883" x1="101.539" y1="47.3833" x2="101.539" y2="1.45906" gradientUnits="userSpaceOnUse">
<stop stop-color="#AE50EC"/>
<stop offset="0.5123" stop-color="#6206C8"/>
</linearGradient>
<linearGradient id="paint1_linear_256_1883" x1="101.539" y1="5.62146" x2="101.539" y2="45.4225" gradientUnits="userSpaceOnUse">
<stop offset="0.00223473" stop-color="#00E3FF"/>
<stop offset="1" stop-color="#7A01F3"/>
</linearGradient>
</defs>
</svg>
