<svg width="202" height="49" viewBox="0 0 202 49" fill="none" xmlns="http://www.w3.org/2000/svg">
<path d="M0.881104 24.5674C0.881104 9.77465 9.07077 1.82135 25.4501 0.705182C26.7876 0.613315 101.794 0.567383 103.242 0.567383C104.391 0.567383 175.372 0.594942 176.451 0.652359C193.391 1.55265 201.861 9.52202 201.861 24.5651C201.861 39.5645 193.437 47.5362 176.591 48.4732C175.469 48.5352 104.437 48.5674 103.24 48.5674C101.824 48.5674 26.8442 48.5237 25.531 48.4365C9.09773 47.3433 0.881104 39.3831 0.881104 24.5674Z" fill="black"/>
<path d="M2.2937 24.4199C2.2937 10.2128 10.1894 2.59944 25.9809 1.57743C27.2052 1.49935 102.091 1.45801 103.409 1.45801C104.555 1.45801 175.536 1.48787 176.609 1.54758C192.724 2.44327 200.784 10.0659 200.784 24.4176C200.784 38.8199 192.668 46.4494 176.437 47.3015C175.415 47.3543 104.493 47.3818 103.409 47.3818C102.411 47.3818 27.8254 47.3589 26.8789 47.3129C10.4888 46.5252 2.2937 38.8934 2.2937 24.4199Z" fill="url(#paint0_linear_363_1885)"/>
<path d="M5.38696 25.6518C5.38696 12.159 87.0786 5.41602 103.242 5.41602C119.403 5.41602 197.355 12.159 197.355 25.6518C197.355 38.2558 190.303 44.9735 176.197 45.8026C175.202 45.86 104.305 45.8899 103.242 45.8899C101.875 45.8899 26.9546 45.8417 25.7034 45.7452C12.1582 44.7025 5.38696 38.0032 5.38696 25.6518Z" fill="black"/>
<path d="M5.5564 24.352C5.5564 11.4517 12.9425 4.72023 27.7146 4.15525C28.3941 4.12999 102.7 4.11621 103.412 4.11621C104.355 4.11621 175.142 4.13918 176.032 4.18511C190.359 4.92693 197.524 11.6469 197.524 24.352C197.524 37.273 190.111 44.009 175.285 44.5556C174.632 44.5786 104.094 44.5924 103.412 44.5924C102.438 44.5924 27.8791 44.5671 26.9649 44.5189C12.6917 43.7541 5.5564 37.0318 5.5564 24.352Z" fill="#FFEAB6"/>
<path d="M5.5564 24.4213C5.5564 11.5211 12.9425 4.78957 27.7146 4.22459C28.3941 4.19933 102.7 4.18555 103.412 4.18555C104.355 4.18555 175.142 4.20851 176.032 4.25445C190.359 4.99626 197.524 11.7163 197.524 24.4213C197.524 37.3423 190.111 44.0784 175.285 44.625C174.632 44.6479 104.094 44.6617 103.412 44.6617C102.438 44.6617 27.8791 44.6365 26.9649 44.5882C12.6917 43.8234 5.5564 37.0989 5.5564 24.4213Z" fill="url(#paint1_linear_363_1885)"/>
<path opacity="0.5" d="M103.412 41.6657C102.376 41.6657 27.7577 41.6382 26.7897 41.5831C13.1932 40.8045 6.12808 34.5714 5.59145 22.8906C5.56988 23.3683 5.5564 23.8552 5.5564 24.3536C5.5564 36.8428 12.4813 43.5536 26.3312 44.4814C27.4422 44.5549 102.209 44.594 103.409 44.594C104.671 44.594 175.754 44.5526 176.919 44.47C190.653 43.4985 197.521 36.7923 197.521 24.3536C197.521 23.8552 197.508 23.3683 197.486 22.8906C196.955 34.5002 189.973 40.7287 176.542 41.5693C175.495 41.6336 104.536 41.6657 103.412 41.6657Z" fill="#0E4D99"/>
<path d="M25.7458 23.1299C25.7458 23.5934 25.6886 24.0075 25.574 24.3721C25.4594 24.7367 25.3031 25.0596 25.1052 25.3408C24.9125 25.6169 24.6886 25.8538 24.4333 26.0518C24.1781 26.2497 23.9099 26.4137 23.6287 26.5439C23.3526 26.6689 23.0714 26.7601 22.7849 26.8174C22.5037 26.8747 22.238 26.9033 21.988 26.9033L26.2302 30.5674H23.0896L18.8552 26.9033H17.3943V24.8721H21.988C22.2432 24.8512 22.475 24.7992 22.6833 24.7158C22.8969 24.6273 23.0792 24.5101 23.2302 24.3643C23.3865 24.2184 23.5063 24.0439 23.5896 23.8408C23.6729 23.6325 23.7146 23.3955 23.7146 23.1299V21.8486C23.7146 21.734 23.699 21.6481 23.6677 21.5908C23.6417 21.5283 23.6052 21.484 23.5583 21.458C23.5167 21.4268 23.4698 21.4085 23.4177 21.4033C23.3708 21.3981 23.3266 21.3955 23.2849 21.3955H16.5818V30.5674H14.5505V20.3877C14.5505 20.2471 14.5766 20.1143 14.6287 19.9893C14.6807 19.8643 14.7511 19.7549 14.8396 19.6611C14.9333 19.5674 15.0427 19.4945 15.1677 19.4424C15.2927 19.3903 15.4281 19.3643 15.574 19.3643H23.2849C23.738 19.3643 24.1208 19.4476 24.4333 19.6143C24.7458 19.7757 24.9985 19.9814 25.1912 20.2314C25.3891 20.4762 25.5297 20.7419 25.613 21.0283C25.7016 21.3148 25.7458 21.583 25.7458 21.833V23.1299ZM35.5905 24.9189C35.5905 25.2002 35.5411 25.5049 35.4421 25.833C35.3431 26.1559 35.1817 26.458 34.9577 26.7393C34.739 27.0153 34.4499 27.2471 34.0905 27.4346C33.7364 27.6221 33.3041 27.7158 32.7937 27.7158H29.1296V25.7861H32.7937C33.0697 25.7861 33.2832 25.7028 33.4343 25.5361C33.5853 25.3643 33.6608 25.1533 33.6608 24.9033C33.6608 24.6377 33.5749 24.4294 33.403 24.2783C33.2364 24.1273 33.0332 24.0518 32.7937 24.0518H29.1296C28.8536 24.0518 28.64 24.1377 28.489 24.3096C28.3379 24.4762 28.2624 24.6846 28.2624 24.9346V27.7705C28.2624 28.0413 28.3457 28.2523 28.5124 28.4033C28.6843 28.5544 28.8952 28.6299 29.1452 28.6299H32.7937V30.5674H29.1296C28.8483 30.5674 28.5437 30.5179 28.2155 30.4189C27.8926 30.32 27.5905 30.1611 27.3093 29.9424C27.0332 29.7184 26.8015 29.4294 26.614 29.0752C26.4265 28.7158 26.3327 28.2809 26.3327 27.7705V24.9189C26.3327 24.6377 26.3822 24.3356 26.4812 24.0127C26.5801 23.6846 26.739 23.3825 26.9577 23.1064C27.1817 22.8252 27.4707 22.5908 27.8249 22.4033C28.1843 22.2158 28.6192 22.1221 29.1296 22.1221H32.7937C33.0749 22.1221 33.377 22.1715 33.6999 22.2705C34.028 22.3695 34.3301 22.5309 34.6062 22.7549C34.8874 22.9736 35.1218 23.2627 35.3093 23.6221C35.4968 23.9762 35.5905 24.4085 35.5905 24.9189ZM43.4743 24.1533H38.8805V22.1221H43.4743V24.1533ZM43.4743 20.4893H38.8962C38.6201 20.4893 38.4118 20.5596 38.2712 20.7002C38.1305 20.8356 38.0602 21.0361 38.0602 21.3018V30.5674H36.029V21.3018C36.029 20.9528 36.0732 20.6403 36.1618 20.3643C36.2503 20.0882 36.3675 19.846 36.5133 19.6377C36.6644 19.4242 36.8363 19.2445 37.029 19.0986C37.2217 18.9476 37.4222 18.8252 37.6305 18.7314C37.8441 18.6377 38.0576 18.57 38.2712 18.5283C38.4847 18.4814 38.6878 18.458 38.8805 18.458H43.4743V20.4893ZM51.194 24.1533H46.6237C46.3476 24.1533 46.1393 24.2236 45.9987 24.3643C45.858 24.4997 45.7877 24.7002 45.7877 24.9658V30.5674H43.7565V24.9658C43.7565 24.6169 43.8007 24.3044 43.8893 24.0283C43.9778 23.7523 44.095 23.5101 44.2409 23.3018C44.3919 23.0882 44.5638 22.9085 44.7565 22.7627C44.9492 22.6117 45.1497 22.4893 45.358 22.3955C45.5716 22.3018 45.7851 22.234 45.9987 22.1924C46.2174 22.1455 46.4205 22.1221 46.608 22.1221H51.194V24.1533ZM60.6324 24.9189C60.6324 25.2002 60.5829 25.5049 60.484 25.833C60.385 26.1559 60.2236 26.458 59.9996 26.7393C59.7808 27.0153 59.4918 27.2471 59.1324 27.4346C58.7782 27.6221 58.346 27.7158 57.8355 27.7158H54.1715V25.7861H57.8355C58.1116 25.7861 58.3251 25.7028 58.4762 25.5361C58.6272 25.3643 58.7027 25.1533 58.7027 24.9033C58.7027 24.6377 58.6168 24.4294 58.4449 24.2783C58.2782 24.1273 58.0751 24.0518 57.8355 24.0518H54.1715C53.8954 24.0518 53.6819 24.1377 53.5308 24.3096C53.3798 24.4762 53.3043 24.6846 53.3043 24.9346V27.7705C53.3043 28.0413 53.3876 28.2523 53.5543 28.4033C53.7262 28.5544 53.9371 28.6299 54.1871 28.6299H57.8355V30.5674H54.1715C53.8902 30.5674 53.5855 30.5179 53.2574 30.4189C52.9345 30.32 52.6324 30.1611 52.3512 29.9424C52.0751 29.7184 51.8433 29.4294 51.6558 29.0752C51.4683 28.7158 51.3746 28.2809 51.3746 27.7705V24.9189C51.3746 24.6377 51.4241 24.3356 51.523 24.0127C51.622 23.6846 51.7808 23.3825 51.9996 23.1064C52.2236 22.8252 52.5126 22.5908 52.8668 22.4033C53.2262 22.2158 53.6611 22.1221 54.1715 22.1221H57.8355C58.1168 22.1221 58.4189 22.1715 58.7418 22.2705C59.0699 22.3695 59.372 22.5309 59.648 22.7549C59.9293 22.9736 60.1637 23.2627 60.3512 23.6221C60.5387 23.9762 60.6324 24.4085 60.6324 24.9189ZM69.2037 27.7158C69.2037 28.0648 69.1594 28.3799 69.0709 28.6611C68.9823 28.9372 68.8651 29.182 68.7193 29.3955C68.5735 29.6038 68.4042 29.7835 68.2115 29.9346C68.0188 30.0804 67.8156 30.2002 67.6021 30.2939C67.3938 30.3877 67.1802 30.458 66.9615 30.5049C66.7479 30.5465 66.5448 30.5674 66.3521 30.5674H60.8521V28.5361H66.3365C66.6125 28.5361 66.8209 28.4658 66.9615 28.3252C67.1021 28.1846 67.1724 27.9814 67.1724 27.7158C67.1464 27.1742 66.8729 26.9033 66.3521 26.9033H63.2037C62.7557 26.9033 62.3755 26.8252 62.063 26.6689C61.7505 26.5127 61.4953 26.3174 61.2974 26.083C61.1047 25.8486 60.9641 25.596 60.8755 25.3252C60.7922 25.0544 60.7505 24.8018 60.7505 24.5674C60.7505 24.1143 60.8313 23.734 60.9927 23.4268C61.1542 23.1143 61.3573 22.8617 61.6021 22.6689C61.8469 22.4762 62.1125 22.3382 62.399 22.2549C62.6854 22.1663 62.9537 22.1221 63.2037 22.1221H68.1959V24.1533H63.2193C63.1151 24.1533 63.0318 24.1663 62.9693 24.1924C62.912 24.2132 62.8677 24.2445 62.8365 24.2861C62.8104 24.3226 62.7948 24.3643 62.7896 24.4111C62.7844 24.4528 62.7818 24.4945 62.7818 24.5361C62.787 24.6195 62.8026 24.6846 62.8287 24.7314C62.8547 24.7783 62.886 24.8122 62.9224 24.833C62.9641 24.8538 63.0084 24.8669 63.0552 24.8721C63.1073 24.8721 63.1568 24.8721 63.2037 24.8721H66.3521C66.8729 24.8721 67.3156 24.9658 67.6802 25.1533C68.0448 25.3408 68.3391 25.5778 68.563 25.8643C68.787 26.1455 68.9485 26.4528 69.0474 26.7861C69.1516 27.1195 69.2037 27.4294 69.2037 27.7158ZM79.064 30.5674H77.0327V24.9658C77.0327 24.7002 76.965 24.4997 76.8296 24.3643C76.6942 24.2236 76.4911 24.1533 76.2202 24.1533H72.5562V22.1221H76.2202C76.4129 22.1221 76.6161 22.1455 76.8296 22.1924C77.0431 22.234 77.2541 22.3018 77.4624 22.3955C77.676 22.4893 77.8791 22.6117 78.0718 22.7627C78.2645 22.9085 78.4338 23.0882 78.5796 23.3018C78.7254 23.5101 78.8426 23.7523 78.9312 24.0283C79.0197 24.3044 79.064 24.6169 79.064 24.9658V30.5674ZM71.7359 30.5674H69.7046V18.5518H71.7359V30.5674ZM94.7221 30.5674H85.4565C85.3106 30.5674 85.1752 30.5413 85.0502 30.4893C84.9252 30.4372 84.8158 30.3669 84.7221 30.2783C84.6336 30.1846 84.5632 30.0752 84.5112 29.9502C84.4591 29.8252 84.433 29.6898 84.433 29.5439V19.3643H86.4643V28.5361H94.7221V30.5674ZM104.114 24.9189C104.114 25.2002 104.064 25.5049 103.965 25.833C103.866 26.1559 103.705 26.458 103.481 26.7393C103.262 27.0153 102.973 27.2471 102.614 27.4346C102.259 27.6221 101.827 27.7158 101.317 27.7158H97.6527V25.7861H101.317C101.593 25.7861 101.806 25.7028 101.957 25.5361C102.108 25.3643 102.184 25.1533 102.184 24.9033C102.184 24.6377 102.098 24.4294 101.926 24.2783C101.759 24.1273 101.556 24.0518 101.317 24.0518H97.6527C97.3767 24.0518 97.1631 24.1377 97.0121 24.3096C96.8611 24.4762 96.7855 24.6846 96.7855 24.9346V27.7705C96.7855 28.0413 96.8689 28.2523 97.0355 28.4033C97.2074 28.5544 97.4184 28.6299 97.6684 28.6299H101.317V30.5674H97.6527C97.3715 30.5674 97.0668 30.5179 96.7387 30.4189C96.4157 30.32 96.1137 30.1611 95.8324 29.9424C95.5564 29.7184 95.3246 29.4294 95.1371 29.0752C94.9496 28.7158 94.8559 28.2809 94.8559 27.7705V24.9189C94.8559 24.6377 94.9053 24.3356 95.0043 24.0127C95.1032 23.6846 95.2621 23.3825 95.4809 23.1064C95.7048 22.8252 95.9939 22.5908 96.348 22.4033C96.7074 22.2158 97.1423 22.1221 97.6527 22.1221H101.317C101.598 22.1221 101.9 22.1715 102.223 22.2705C102.551 22.3695 102.853 22.5309 103.129 22.7549C103.411 22.9736 103.645 23.2627 103.832 23.6221C104.02 23.9762 104.114 24.4085 104.114 24.9189ZM113.177 27.7705C113.177 28.0518 113.128 28.3564 113.029 28.6846C112.93 29.0075 112.768 29.3096 112.544 29.5908C112.326 29.8669 112.036 30.0986 111.677 30.2861C111.323 30.4736 110.891 30.5674 110.38 30.5674H106.716C106.435 30.5674 106.13 30.5179 105.802 30.4189C105.479 30.32 105.177 30.1611 104.896 29.9424C104.62 29.7184 104.388 29.4294 104.201 29.0752C104.013 28.7158 103.919 28.2809 103.919 27.7705C103.919 27.4893 103.969 27.1846 104.068 26.8564C104.167 26.5283 104.326 26.2262 104.544 25.9502C104.768 25.6689 105.057 25.4346 105.411 25.2471C105.771 25.0596 106.206 24.9658 106.716 24.9658H110.38V26.9033H106.716C106.44 26.9033 106.227 26.9893 106.076 27.1611C105.924 27.3278 105.849 27.5361 105.849 27.7861C105.849 28.0518 105.935 28.2601 106.107 28.4111C106.284 28.557 106.492 28.6299 106.732 28.6299H110.38C110.656 28.6299 110.87 28.5465 111.021 28.3799C111.172 28.2132 111.247 28.0049 111.247 27.7549V24.9189C111.247 24.6533 111.164 24.4424 110.997 24.2861C110.836 24.1299 110.63 24.0518 110.38 24.0518H105.919V22.1221H110.38C110.661 22.1221 110.964 22.1715 111.286 22.2705C111.615 22.3695 111.917 22.5309 112.193 22.7549C112.474 22.9736 112.708 23.2627 112.896 23.6221C113.083 23.9762 113.177 24.4085 113.177 24.9189V27.7705ZM123.217 27.7158C123.217 28.0648 123.173 28.3799 123.084 28.6611C122.996 28.9372 122.879 29.182 122.733 29.3955C122.587 29.6038 122.418 29.7835 122.225 29.9346C122.032 30.0804 121.829 30.2002 121.616 30.2939C121.407 30.3877 121.194 30.458 120.975 30.5049C120.761 30.5465 120.558 30.5674 120.366 30.5674H116.701C116.353 30.5674 116.04 30.5231 115.764 30.4346C115.488 30.346 115.243 30.2288 115.03 30.083C114.821 29.932 114.642 29.7601 114.491 29.5674C114.345 29.3747 114.225 29.1742 114.131 28.9658C114.037 28.7523 113.967 28.5387 113.92 28.3252C113.879 28.1064 113.858 27.9033 113.858 27.7158V24.9658C113.858 24.445 113.951 24.0049 114.139 23.6455C114.332 23.2809 114.569 22.9867 114.85 22.7627C115.136 22.5335 115.446 22.3695 115.78 22.2705C116.113 22.1715 116.42 22.1221 116.701 22.1221H120.366V24.1533H116.717C116.446 24.1533 116.241 24.2236 116.1 24.3643C115.959 24.4997 115.889 24.7002 115.889 24.9658V27.7002C115.889 27.9762 115.957 28.1846 116.092 28.3252C116.233 28.4658 116.436 28.5361 116.701 28.5361H120.366C120.642 28.5361 120.847 28.4658 120.983 28.3252C121.118 28.1846 121.186 27.9814 121.186 27.7158V18.5518H123.217V27.7158ZM133.281 24.9189C133.281 25.2002 133.231 25.5049 133.132 25.833C133.033 26.1559 132.872 26.458 132.648 26.7393C132.429 27.0153 132.14 27.2471 131.781 27.4346C131.426 27.6221 130.994 27.7158 130.484 27.7158H126.82V25.7861H130.484C130.76 25.7861 130.973 25.7028 131.124 25.5361C131.275 25.3643 131.351 25.1533 131.351 24.9033C131.351 24.6377 131.265 24.4294 131.093 24.2783C130.926 24.1273 130.723 24.0518 130.484 24.0518H126.82C126.544 24.0518 126.33 24.1377 126.179 24.3096C126.028 24.4762 125.952 24.6846 125.952 24.9346V27.7705C125.952 28.0413 126.036 28.2523 126.202 28.4033C126.374 28.5544 126.585 28.6299 126.835 28.6299H130.484V30.5674H126.82C126.538 30.5674 126.234 30.5179 125.906 30.4189C125.583 30.32 125.281 30.1611 124.999 29.9424C124.723 29.7184 124.491 29.4294 124.304 29.0752C124.116 28.7158 124.023 28.2809 124.023 27.7705V24.9189C124.023 24.6377 124.072 24.3356 124.171 24.0127C124.27 23.6846 124.429 23.3825 124.648 23.1064C124.872 22.8252 125.161 22.5908 125.515 22.4033C125.874 22.2158 126.309 22.1221 126.82 22.1221H130.484C130.765 22.1221 131.067 22.1715 131.39 22.2705C131.718 22.3695 132.02 22.5309 132.296 22.7549C132.577 22.9736 132.812 23.2627 132.999 23.6221C133.187 23.9762 133.281 24.4085 133.281 24.9189ZM141.078 24.1533H136.508C136.232 24.1533 136.024 24.2236 135.883 24.3643C135.742 24.4997 135.672 24.7002 135.672 24.9658V30.5674H133.641V24.9658C133.641 24.6169 133.685 24.3044 133.774 24.0283C133.862 23.7523 133.979 23.5101 134.125 23.3018C134.276 23.0882 134.448 22.9085 134.641 22.7627C134.834 22.6117 135.034 22.4893 135.242 22.3955C135.456 22.3018 135.669 22.234 135.883 22.1924C136.102 22.1455 136.305 22.1221 136.492 22.1221H141.078V24.1533ZM150.775 27.7158C150.775 27.9085 150.751 28.1117 150.704 28.3252C150.663 28.5387 150.595 28.7523 150.501 28.9658C150.407 29.1742 150.285 29.3747 150.134 29.5674C149.988 29.7601 149.808 29.932 149.595 30.083C149.387 30.2288 149.144 30.346 148.868 30.4346C148.592 30.5231 148.28 30.5674 147.931 30.5674H144.267C144.074 30.5674 143.871 30.5465 143.657 30.5049C143.444 30.458 143.23 30.3877 143.017 30.2939C142.808 30.2002 142.608 30.0804 142.415 29.9346C142.223 29.7835 142.051 29.6038 141.9 29.3955C141.754 29.182 141.637 28.9372 141.548 28.6611C141.459 28.3799 141.415 28.0648 141.415 27.7158V18.5518H143.446V27.7158C143.446 27.9658 143.525 28.1663 143.681 28.3174C143.837 28.4632 144.032 28.5361 144.267 28.5361H147.931C148.186 28.5361 148.384 28.4606 148.525 28.3096C148.67 28.1585 148.743 27.9606 148.743 27.7158V24.9658C148.743 24.7106 148.668 24.5127 148.517 24.3721C148.366 24.2262 148.17 24.1533 147.931 24.1533H144.267V22.1221H147.931C148.124 22.1221 148.327 22.1455 148.54 22.1924C148.754 22.234 148.965 22.3018 149.173 22.3955C149.387 22.4893 149.59 22.6117 149.782 22.7627C149.975 22.9085 150.144 23.0882 150.29 23.3018C150.436 23.5101 150.553 23.7523 150.642 24.0283C150.73 24.3044 150.775 24.6169 150.775 24.9658V27.7158ZM160.736 27.7158C160.736 28.0648 160.692 28.3799 160.604 28.6611C160.515 28.9372 160.398 29.182 160.252 29.3955C160.106 29.6038 159.937 29.7835 159.744 29.9346C159.552 30.0804 159.348 30.2002 159.135 30.2939C158.927 30.3877 158.713 30.458 158.494 30.5049C158.281 30.5465 158.078 30.5674 157.885 30.5674H154.221C153.94 30.5674 153.632 30.5179 153.299 30.4189C152.966 30.32 152.656 30.1585 152.369 29.9346C152.088 29.7054 151.851 29.4111 151.658 29.0518C151.471 28.6872 151.377 28.2419 151.377 27.7158V24.9658C151.377 24.445 151.471 24.0049 151.658 23.6455C151.851 23.2809 152.088 22.9867 152.369 22.7627C152.656 22.5335 152.966 22.3695 153.299 22.2705C153.632 22.1715 153.94 22.1221 154.221 22.1221H157.885C158.406 22.1221 158.848 22.2158 159.213 22.4033C159.578 22.5908 159.872 22.8278 160.096 23.1143C160.32 23.3955 160.481 23.7028 160.58 24.0361C160.684 24.3695 160.736 24.6794 160.736 24.9658V27.7158ZM158.705 24.9814C158.705 24.7002 158.635 24.4919 158.494 24.3564C158.354 24.221 158.151 24.1533 157.885 24.1533H154.236C153.966 24.1533 153.76 24.2236 153.619 24.3643C153.479 24.4997 153.408 24.7002 153.408 24.9658V27.7158C153.408 27.9814 153.479 28.1846 153.619 28.3252C153.76 28.4658 153.966 28.5361 154.236 28.5361H157.885C158.161 28.5361 158.367 28.4658 158.502 28.3252C158.638 28.1846 158.705 27.9814 158.705 27.7158V24.9814ZM170.23 27.7705C170.23 28.0518 170.18 28.3564 170.081 28.6846C169.982 29.0075 169.821 29.3096 169.597 29.5908C169.378 29.8669 169.089 30.0986 168.73 30.2861C168.375 30.4736 167.943 30.5674 167.433 30.5674H163.769C163.487 30.5674 163.183 30.5179 162.855 30.4189C162.532 30.32 162.23 30.1611 161.948 29.9424C161.672 29.7184 161.441 29.4294 161.253 29.0752C161.066 28.7158 160.972 28.2809 160.972 27.7705C160.972 27.4893 161.021 27.1846 161.12 26.8564C161.219 26.5283 161.378 26.2262 161.597 25.9502C161.821 25.6689 162.11 25.4346 162.464 25.2471C162.823 25.0596 163.258 24.9658 163.769 24.9658H167.433V26.9033H163.769C163.493 26.9033 163.279 26.9893 163.128 27.1611C162.977 27.3278 162.901 27.5361 162.901 27.7861C162.901 28.0518 162.987 28.2601 163.159 28.4111C163.336 28.557 163.545 28.6299 163.784 28.6299H167.433C167.709 28.6299 167.922 28.5465 168.073 28.3799C168.224 28.2132 168.3 28.0049 168.3 27.7549V24.9189C168.3 24.6533 168.217 24.4424 168.05 24.2861C167.888 24.1299 167.683 24.0518 167.433 24.0518H162.972V22.1221H167.433C167.714 22.1221 168.016 22.1715 168.339 22.2705C168.667 22.3695 168.969 22.5309 169.245 22.7549C169.526 22.9736 169.761 23.2627 169.948 23.6221C170.136 23.9762 170.23 24.4085 170.23 24.9189V27.7705ZM178.395 24.1533H173.824C173.548 24.1533 173.34 24.2236 173.199 24.3643C173.059 24.4997 172.988 24.7002 172.988 24.9658V30.5674H170.957V24.9658C170.957 24.6169 171.001 24.3044 171.09 24.0283C171.178 23.7523 171.296 23.5101 171.441 23.3018C171.593 23.0882 171.764 22.9085 171.957 22.7627C172.15 22.6117 172.35 22.4893 172.559 22.3955C172.772 22.3018 172.986 22.234 173.199 22.1924C173.418 22.1455 173.621 22.1221 173.809 22.1221H178.395V24.1533ZM188.013 27.7158C188.013 28.0648 187.968 28.3799 187.88 28.6611C187.791 28.9372 187.674 29.182 187.528 29.3955C187.383 29.6038 187.213 29.7835 187.021 29.9346C186.828 30.0804 186.625 30.2002 186.411 30.2939C186.203 30.3877 185.989 30.458 185.771 30.5049C185.557 30.5465 185.354 30.5674 185.161 30.5674H181.497C181.148 30.5674 180.836 30.5231 180.56 30.4346C180.284 30.346 180.039 30.2288 179.825 30.083C179.617 29.932 179.437 29.7601 179.286 29.5674C179.14 29.3747 179.021 29.1742 178.927 28.9658C178.833 28.7523 178.763 28.5387 178.716 28.3252C178.674 28.1064 178.653 27.9033 178.653 27.7158V24.9658C178.653 24.445 178.747 24.0049 178.935 23.6455C179.127 23.2809 179.364 22.9867 179.646 22.7627C179.932 22.5335 180.242 22.3695 180.575 22.2705C180.909 22.1715 181.216 22.1221 181.497 22.1221H185.161V24.1533H181.513C181.242 24.1533 181.036 24.2236 180.896 24.3643C180.755 24.4997 180.685 24.7002 180.685 24.9658V27.7002C180.685 27.9762 180.752 28.1846 180.888 28.3252C181.028 28.4658 181.231 28.5361 181.497 28.5361H185.161C185.437 28.5361 185.643 28.4658 185.778 28.3252C185.914 28.1846 185.981 27.9814 185.981 27.7158V18.5518H188.013V27.7158Z" fill="white"/>
<defs>
<linearGradient id="paint0_linear_363_1885" x1="101.539" y1="47.3833" x2="101.539" y2="1.45906" gradientUnits="userSpaceOnUse">
<stop stop-color="#AE50EC"/>
<stop offset="0.5123" stop-color="#6206C8"/>
</linearGradient>
<linearGradient id="paint1_linear_363_1885" x1="101.539" y1="5.62146" x2="101.539" y2="45.4225" gradientUnits="userSpaceOnUse">
<stop offset="0.00223473" stop-color="#00E3FF"/>
<stop offset="1" stop-color="#7A01F3"/>
</linearGradient>
</defs>
</svg>
