<svg width="202" height="49" viewBox="0 0 202 49" fill="none" xmlns="http://www.w3.org/2000/svg">
<path d="M0.860352 24.5674C0.860352 9.77465 9.05001 1.82135 25.4293 0.705182C26.7669 0.613315 101.774 0.567383 103.222 0.567383C104.37 0.567383 175.351 0.594942 176.43 0.652359C193.37 1.55265 201.84 9.52202 201.84 24.5651C201.84 39.5645 193.416 47.5362 176.57 48.4732C175.448 48.5352 104.416 48.5674 103.219 48.5674C101.803 48.5674 26.8235 48.5237 25.5102 48.4365C9.07698 47.3433 0.860352 39.3831 0.860352 24.5674Z" fill="black"/>
<path d="M2.27295 24.4199C2.27295 10.2128 10.1687 2.59944 25.9601 1.57743C27.1844 1.49935 102.07 1.45801 103.388 1.45801C104.535 1.45801 175.515 1.48787 176.588 1.54758C192.703 2.44327 200.764 10.0659 200.764 24.4176C200.764 38.8199 192.647 46.4494 176.416 47.3015C175.394 47.3543 104.472 47.3818 103.388 47.3818C102.391 47.3818 27.8046 47.3589 26.8581 47.3129C10.468 46.5252 2.27295 38.8934 2.27295 24.4199Z" fill="url(#paint0_linear_4_1893)"/>
<path d="M5.36621 25.6518C5.36621 12.159 87.0579 5.41602 103.221 5.41602C119.382 5.41602 197.334 12.159 197.334 25.6518C197.334 38.2558 190.282 44.9735 176.176 45.8026C175.181 45.86 104.284 45.8899 103.221 45.8899C101.854 45.8899 26.9338 45.8417 25.6826 45.7452C12.1374 44.7025 5.36621 38.0032 5.36621 25.6518Z" fill="black"/>
<path d="M5.53564 24.352C5.53564 11.4517 12.9217 4.72023 27.6938 4.15525C28.3734 4.12999 102.679 4.11621 103.391 4.11621C104.335 4.11621 175.121 4.13918 176.011 4.18511C190.338 4.92693 197.503 11.6469 197.503 24.352C197.503 37.273 190.09 44.009 175.264 44.5556C174.612 44.5786 104.073 44.5924 103.391 44.5924C102.417 44.5924 27.8583 44.5671 26.9442 44.5189C12.6709 43.7541 5.53564 37.0318 5.53564 24.352Z" fill="#FFEAB6"/>
<path d="M5.53564 24.4213C5.53564 11.5211 12.9217 4.78957 27.6938 4.22459C28.3734 4.19933 102.679 4.18555 103.391 4.18555C104.335 4.18555 175.121 4.20851 176.011 4.25445C190.338 4.99626 197.503 11.7163 197.503 24.4213C197.503 37.3423 190.09 44.0784 175.264 44.625C174.612 44.6479 104.073 44.6617 103.391 44.6617C102.417 44.6617 27.8583 44.6365 26.9442 44.5882C12.6709 43.8234 5.53564 37.0989 5.53564 24.4213Z" fill="url(#paint1_linear_4_1893)"/>
<path opacity="0.5" d="M103.391 41.6657C102.355 41.6657 27.737 41.6382 26.7689 41.5831C13.1725 40.8045 6.10733 34.5714 5.5707 22.8906C5.54913 23.3683 5.53564 23.8552 5.53564 24.3536C5.53564 36.8428 12.4606 43.5536 26.3105 44.4814C27.4215 44.5549 102.188 44.594 103.388 44.594C104.65 44.594 175.733 44.5526 176.898 44.47C190.632 43.4985 197.501 36.7923 197.501 24.3536C197.501 23.8552 197.487 23.3683 197.465 22.8906C196.934 34.5002 189.953 40.7287 176.521 41.5693C175.475 41.6336 104.515 41.6657 103.391 41.6657Z" fill="#0E4D99"/>
<defs>
<linearGradient id="paint0_linear_4_1893" x1="101.519" y1="47.3833" x2="101.519" y2="1.45906" gradientUnits="userSpaceOnUse">
<stop stop-color="#AE50EC"/>
<stop offset="0.5123" stop-color="#6206C8"/>
</linearGradient>
<linearGradient id="paint1_linear_4_1893" x1="101.518" y1="5.62146" x2="101.518" y2="45.4225" gradientUnits="userSpaceOnUse">
<stop offset="0.00223473" stop-color="#00E3FF"/>
<stop offset="1" stop-color="#7A01F3"/>
</linearGradient>
</defs>
</svg>
