<svg width="363" height="91" viewBox="0 0 363 91" fill="none" xmlns="http://www.w3.org/2000/svg">
<g filter="url(#filter0_g_314_6908)">
<path d="M35.7124 87L4.19873 4H358.199L328.089 87H35.7124Z" fill="#00B2B9"/>
</g>
<path d="M128.884 34V21.373H124.167V19.6836H135.515V21.373H130.779V34H128.884ZM134.363 28.8145C134.363 26.8939 134.897 25.4714 135.964 24.5469C136.856 23.7786 137.944 23.3945 139.226 23.3945C140.652 23.3945 141.817 23.8633 142.722 24.8008C143.627 25.7318 144.08 27.0208 144.08 28.668C144.08 30.0026 143.878 31.054 143.474 31.8223C143.077 32.584 142.494 33.1764 141.726 33.5996C140.964 34.0228 140.131 34.2344 139.226 34.2344C137.774 34.2344 136.599 33.7689 135.701 32.8379C134.809 31.9069 134.363 30.5658 134.363 28.8145ZM136.169 28.8145C136.169 30.1426 136.459 31.1387 137.039 31.8027C137.618 32.4603 138.347 32.7891 139.226 32.7891C140.098 32.7891 140.824 32.457 141.404 31.793C141.983 31.1289 142.273 30.1165 142.273 28.7559C142.273 27.4733 141.98 26.5033 141.394 25.8457C140.815 25.1816 140.092 24.8496 139.226 24.8496C138.347 24.8496 137.618 25.1784 137.039 25.8359C136.459 26.4935 136.169 27.4863 136.169 28.8145ZM149.988 32.4277L150.242 33.9805C149.747 34.0846 149.304 34.1367 148.914 34.1367C148.276 34.1367 147.781 34.0358 147.429 33.834C147.078 33.6322 146.83 33.3685 146.687 33.043C146.544 32.7109 146.472 32.0176 146.472 30.9629V24.9961H145.183V23.6289H146.472V21.0605L148.22 20.0059V23.6289H149.988V24.9961H148.22V31.0605C148.22 31.5618 148.25 31.8841 148.308 32.0273C148.373 32.1706 148.474 32.2845 148.611 32.3691C148.754 32.4538 148.956 32.4961 149.216 32.4961C149.412 32.4961 149.669 32.4733 149.988 32.4277ZM158.484 32.7207C157.833 33.2741 157.205 33.6647 156.599 33.8926C156 34.1204 155.356 34.2344 154.666 34.2344C153.526 34.2344 152.651 33.9577 152.039 33.4043C151.427 32.8444 151.121 32.1315 151.121 31.2656C151.121 30.7578 151.235 30.2956 151.462 29.8789C151.697 29.4557 152 29.1172 152.371 28.8633C152.748 28.6094 153.171 28.4173 153.64 28.2871C153.985 28.196 154.506 28.1081 155.203 28.0234C156.622 27.8542 157.667 27.6523 158.337 27.418C158.344 27.1771 158.347 27.0241 158.347 26.959C158.347 26.2428 158.181 25.7383 157.849 25.4453C157.4 25.0482 156.733 24.8496 155.847 24.8496C155.02 24.8496 154.408 24.9961 154.011 25.2891C153.621 25.5755 153.331 26.0866 153.142 26.8223L151.423 26.5879C151.58 25.8522 151.837 25.2598 152.195 24.8105C152.553 24.3548 153.07 24.0065 153.748 23.7656C154.425 23.5182 155.209 23.3945 156.101 23.3945C156.986 23.3945 157.706 23.4987 158.259 23.707C158.813 23.9154 159.22 24.179 159.48 24.498C159.74 24.8105 159.923 25.2077 160.027 25.6895C160.085 25.9889 160.115 26.5293 160.115 27.3105V29.6543C160.115 31.2884 160.151 32.3236 160.222 32.7598C160.3 33.1895 160.45 33.6029 160.671 34H158.835C158.653 33.6354 158.536 33.209 158.484 32.7207ZM158.337 28.7949C157.699 29.0553 156.742 29.2767 155.466 29.459C154.744 29.5632 154.233 29.6803 153.933 29.8105C153.634 29.9408 153.403 30.1328 153.24 30.3867C153.077 30.6341 152.996 30.9108 152.996 31.2168C152.996 31.6855 153.171 32.0762 153.523 32.3887C153.881 32.7012 154.402 32.8574 155.085 32.8574C155.763 32.8574 156.365 32.7109 156.892 32.418C157.419 32.1185 157.807 31.7116 158.054 31.1973C158.243 30.8001 158.337 30.2142 158.337 29.4395V28.7949ZM162.81 34V19.6836H164.568V34H162.81ZM172.449 29.4004L174.236 29.2441C174.32 29.9603 174.516 30.5495 174.822 31.0117C175.134 31.4674 175.616 31.8385 176.267 32.125C176.918 32.4049 177.651 32.5449 178.464 32.5449C179.187 32.5449 179.825 32.4375 180.378 32.2227C180.932 32.0078 181.342 31.7148 181.609 31.3438C181.882 30.9661 182.019 30.556 182.019 30.1133C182.019 29.6641 181.889 29.2734 181.628 28.9414C181.368 28.6029 180.938 28.3197 180.339 28.0918C179.955 27.9421 179.106 27.7109 177.791 27.3984C176.475 27.0794 175.554 26.7799 175.027 26.5C174.343 26.1419 173.832 25.6992 173.494 25.1719C173.162 24.638 172.996 24.0423 172.996 23.3848C172.996 22.6621 173.201 21.9883 173.611 21.3633C174.021 20.7318 174.62 20.2533 175.408 19.9277C176.195 19.6022 177.071 19.4395 178.035 19.4395C179.096 19.4395 180.03 19.612 180.837 19.957C181.651 20.2956 182.276 20.7969 182.712 21.4609C183.149 22.125 183.383 22.877 183.416 23.7168L181.599 23.8535C181.501 22.9486 181.169 22.265 180.603 21.8027C180.043 21.3405 179.213 21.1094 178.113 21.1094C176.967 21.1094 176.13 21.321 175.603 21.7441C175.082 22.1608 174.822 22.6654 174.822 23.2578C174.822 23.7721 175.007 24.1953 175.378 24.5273C175.743 24.8594 176.694 25.2012 178.23 25.5527C179.773 25.8978 180.831 26.2005 181.404 26.4609C182.237 26.8451 182.852 27.3333 183.25 27.9258C183.647 28.5117 183.845 29.1888 183.845 29.957C183.845 30.7188 183.627 31.4382 183.191 32.1152C182.755 32.7858 182.126 33.3099 181.306 33.6875C180.492 34.0586 179.574 34.2441 178.552 34.2441C177.257 34.2441 176.169 34.0553 175.291 33.6777C174.418 33.3001 173.731 32.7337 173.23 31.9785C172.735 31.2168 172.475 30.3574 172.449 29.4004ZM193.005 34V32.4766C192.198 33.6484 191.101 34.2344 189.714 34.2344C189.102 34.2344 188.529 34.1172 187.996 33.8828C187.468 33.6484 187.074 33.3555 186.814 33.0039C186.56 32.6458 186.381 32.2096 186.277 31.6953C186.205 31.3503 186.169 30.8034 186.169 30.0547V23.6289H187.927V29.3809C187.927 30.2988 187.963 30.9173 188.035 31.2363C188.145 31.6986 188.38 32.0632 188.738 32.3301C189.096 32.5905 189.539 32.7207 190.066 32.7207C190.593 32.7207 191.088 32.5872 191.55 32.3203C192.013 32.0469 192.338 31.679 192.527 31.2168C192.722 30.748 192.82 30.071 192.82 29.1855V23.6289H194.578V34H193.005ZM197.341 37.9746V23.6289H198.943V24.9766C199.32 24.4492 199.747 24.0553 200.222 23.7949C200.697 23.528 201.274 23.3945 201.951 23.3945C202.836 23.3945 203.617 23.6224 204.294 24.0781C204.972 24.5339 205.483 25.1784 205.828 26.0117C206.173 26.8385 206.345 27.7467 206.345 28.7363C206.345 29.7975 206.153 30.7546 205.769 31.6074C205.391 32.4538 204.838 33.1048 204.109 33.5605C203.386 34.0098 202.625 34.2344 201.824 34.2344C201.238 34.2344 200.71 34.1107 200.242 33.8633C199.779 33.6159 199.399 33.3034 199.099 32.9258V37.9746H197.341ZM198.933 28.873C198.933 30.2077 199.203 31.194 199.744 31.832C200.284 32.4701 200.938 32.7891 201.707 32.7891C202.488 32.7891 203.155 32.4603 203.708 31.8027C204.268 31.1387 204.548 30.1133 204.548 28.7266C204.548 27.4049 204.275 26.4154 203.728 25.7578C203.188 25.1003 202.54 24.7715 201.785 24.7715C201.036 24.7715 200.372 25.123 199.792 25.8262C199.22 26.5228 198.933 27.5384 198.933 28.873ZM208.474 37.9746V23.6289H210.076V24.9766C210.453 24.4492 210.88 24.0553 211.355 23.7949C211.83 23.528 212.406 23.3945 213.083 23.3945C213.969 23.3945 214.75 23.6224 215.427 24.0781C216.104 24.5339 216.615 25.1784 216.96 26.0117C217.306 26.8385 217.478 27.7467 217.478 28.7363C217.478 29.7975 217.286 30.7546 216.902 31.6074C216.524 32.4538 215.971 33.1048 215.242 33.5605C214.519 34.0098 213.757 34.2344 212.957 34.2344C212.371 34.2344 211.843 34.1107 211.375 33.8633C210.912 33.6159 210.531 33.3034 210.232 32.9258V37.9746H208.474ZM210.066 28.873C210.066 30.2077 210.336 31.194 210.876 31.832C211.417 32.4701 212.071 32.7891 212.839 32.7891C213.621 32.7891 214.288 32.4603 214.841 31.8027C215.401 31.1387 215.681 30.1133 215.681 28.7266C215.681 27.4049 215.408 26.4154 214.861 25.7578C214.32 25.1003 213.673 24.7715 212.917 24.7715C212.169 24.7715 211.505 25.123 210.925 25.8262C210.352 26.5228 210.066 27.5384 210.066 28.873ZM219.568 34V19.6836H221.326V34H219.568ZM223.982 37.9941L223.787 36.3438C224.171 36.4479 224.506 36.5 224.792 36.5C225.183 36.5 225.496 36.4349 225.73 36.3047C225.964 36.1745 226.156 35.9922 226.306 35.7578C226.417 35.582 226.596 35.1458 226.843 34.4492C226.876 34.3516 226.928 34.2083 227 34.0195L223.064 23.6289H224.958L227.117 29.6348C227.397 30.3965 227.647 31.1973 227.869 32.0371C228.07 31.2298 228.311 30.4421 228.591 29.6738L230.808 23.6289H232.566L228.621 34.1758C228.197 35.3151 227.869 36.0996 227.634 36.5293C227.322 37.1087 226.964 37.5319 226.56 37.7988C226.156 38.0723 225.675 38.209 225.115 38.209C224.776 38.209 224.399 38.1374 223.982 37.9941ZM234.548 25.6309V23.6289H236.55V25.6309H234.548ZM234.548 34V31.998H236.55V34H234.548Z" fill="white"/>
<path d="M71.1245 69H67.8315V56.5898C66.6284 57.7148 65.2104 58.5469 63.5776 59.0859V56.0977C64.437 55.8164 65.3706 55.2852 66.3784 54.5039C67.3862 53.7148 68.0776 52.7969 68.4526 51.75H71.1245V69ZM76.6792 65.707H79.9722V68.0625C79.9722 69.0156 79.8901 69.7656 79.7261 70.3125C79.562 70.8672 79.2495 71.3633 78.7886 71.8008C78.3354 72.2383 77.7573 72.582 77.0542 72.832L76.4097 71.4727C77.0737 71.2539 77.5464 70.9531 77.8276 70.5703C78.1089 70.1875 78.2573 69.6641 78.2729 69H76.6792V65.707ZM88.3042 51.75C89.9683 51.75 91.269 52.3438 92.2065 53.5312C93.3237 54.9375 93.8823 57.2695 93.8823 60.5273C93.8823 63.7773 93.3198 66.1133 92.1948 67.5352C91.2651 68.707 89.9683 69.293 88.3042 69.293C86.6323 69.293 85.2847 68.6523 84.2612 67.3711C83.2378 66.082 82.7261 63.7891 82.7261 60.4922C82.7261 57.2578 83.2886 54.9297 84.4136 53.5078C85.3433 52.3359 86.6401 51.75 88.3042 51.75ZM88.3042 54.4805C87.9058 54.4805 87.5503 54.6094 87.2378 54.8672C86.9253 55.1172 86.6831 55.5703 86.5112 56.2266C86.2847 57.0781 86.1714 58.5117 86.1714 60.5273C86.1714 62.543 86.2729 63.9297 86.4761 64.6875C86.6792 65.4375 86.9331 65.9375 87.2378 66.1875C87.5503 66.4375 87.9058 66.5625 88.3042 66.5625C88.7026 66.5625 89.0581 66.4375 89.3706 66.1875C89.6831 65.9297 89.9253 65.4727 90.0972 64.8164C90.3237 63.9727 90.437 62.543 90.437 60.5273C90.437 58.5117 90.3354 57.1289 90.1323 56.3789C89.9292 55.6211 89.6714 55.1172 89.3589 54.8672C89.0542 54.6094 88.7026 54.4805 88.3042 54.4805ZM101.664 51.75C103.328 51.75 104.628 52.3438 105.566 53.5312C106.683 54.9375 107.242 57.2695 107.242 60.5273C107.242 63.7773 106.679 66.1133 105.554 67.5352C104.625 68.707 103.328 69.293 101.664 69.293C99.9917 69.293 98.644 68.6523 97.6206 67.3711C96.5972 66.082 96.0854 63.7891 96.0854 60.4922C96.0854 57.2578 96.6479 54.9297 97.7729 53.5078C98.7026 52.3359 99.9995 51.75 101.664 51.75ZM101.664 54.4805C101.265 54.4805 100.91 54.6094 100.597 54.8672C100.285 55.1172 100.042 55.5703 99.8706 56.2266C99.644 57.0781 99.5308 58.5117 99.5308 60.5273C99.5308 62.543 99.6323 63.9297 99.8354 64.6875C100.039 65.4375 100.292 65.9375 100.597 66.1875C100.91 66.4375 101.265 66.5625 101.664 66.5625C102.062 66.5625 102.417 66.4375 102.73 66.1875C103.042 65.9297 103.285 65.4727 103.457 64.8164C103.683 63.9727 103.796 62.543 103.796 60.5273C103.796 58.5117 103.695 57.1289 103.492 56.3789C103.289 55.6211 103.031 55.1172 102.718 54.8672C102.414 54.6094 102.062 54.4805 101.664 54.4805ZM115.023 51.75C116.687 51.75 117.988 52.3438 118.925 53.5312C120.042 54.9375 120.601 57.2695 120.601 60.5273C120.601 63.7773 120.039 66.1133 118.914 67.5352C117.984 68.707 116.687 69.293 115.023 69.293C113.351 69.293 112.003 68.6523 110.98 67.3711C109.957 66.082 109.445 63.7891 109.445 60.4922C109.445 57.2578 110.007 54.9297 111.132 53.5078C112.062 52.3359 113.359 51.75 115.023 51.75ZM115.023 54.4805C114.625 54.4805 114.269 54.6094 113.957 54.8672C113.644 55.1172 113.402 55.5703 113.23 56.2266C113.003 57.0781 112.89 58.5117 112.89 60.5273C112.89 62.543 112.992 63.9297 113.195 64.6875C113.398 65.4375 113.652 65.9375 113.957 66.1875C114.269 66.4375 114.625 66.5625 115.023 66.5625C115.421 66.5625 115.777 66.4375 116.089 66.1875C116.402 65.9297 116.644 65.4727 116.816 64.8164C117.042 63.9727 117.156 62.543 117.156 60.5273C117.156 58.5117 117.054 57.1289 116.851 56.3789C116.648 55.6211 116.39 55.1172 116.078 54.8672C115.773 54.6094 115.421 54.4805 115.023 54.4805ZM123.437 65.707H126.73V68.0625C126.73 69.0156 126.648 69.7656 126.484 70.3125C126.32 70.8672 126.007 71.3633 125.546 71.8008C125.093 72.2383 124.515 72.582 123.812 72.832L123.167 71.4727C123.832 71.2539 124.304 70.9531 124.585 70.5703C124.867 70.1875 125.015 69.6641 125.031 69H123.437V65.707ZM135.062 51.75C136.726 51.75 138.027 52.3438 138.964 53.5312C140.082 54.9375 140.64 57.2695 140.64 60.5273C140.64 63.7773 140.078 66.1133 138.953 67.5352C138.023 68.707 136.726 69.293 135.062 69.293C133.39 69.293 132.042 68.6523 131.019 67.3711C129.996 66.082 129.484 63.7891 129.484 60.4922C129.484 57.2578 130.046 54.9297 131.171 53.5078C132.101 52.3359 133.398 51.75 135.062 51.75ZM135.062 54.4805C134.664 54.4805 134.308 54.6094 133.996 54.8672C133.683 55.1172 133.441 55.5703 133.269 56.2266C133.042 57.0781 132.929 58.5117 132.929 60.5273C132.929 62.543 133.031 63.9297 133.234 64.6875C133.437 65.4375 133.691 65.9375 133.996 66.1875C134.308 66.4375 134.664 66.5625 135.062 66.5625C135.46 66.5625 135.816 66.4375 136.128 66.1875C136.441 65.9297 136.683 65.4727 136.855 64.8164C137.082 63.9727 137.195 62.543 137.195 60.5273C137.195 58.5117 137.093 57.1289 136.89 56.3789C136.687 55.6211 136.429 55.1172 136.117 54.8672C135.812 54.6094 135.46 54.4805 135.062 54.4805ZM148.421 51.75C150.085 51.75 151.386 52.3438 152.324 53.5312C153.441 54.9375 154 57.2695 154 60.5273C154 63.7773 153.437 66.1133 152.312 67.5352C151.382 68.707 150.085 69.293 148.421 69.293C146.75 69.293 145.402 68.6523 144.378 67.3711C143.355 66.082 142.843 63.7891 142.843 60.4922C142.843 57.2578 143.406 54.9297 144.531 53.5078C145.46 52.3359 146.757 51.75 148.421 51.75ZM148.421 54.4805C148.023 54.4805 147.667 54.6094 147.355 54.8672C147.042 55.1172 146.8 55.5703 146.628 56.2266C146.402 57.0781 146.289 58.5117 146.289 60.5273C146.289 62.543 146.39 63.9297 146.593 64.6875C146.796 65.4375 147.05 65.9375 147.355 66.1875C147.667 66.4375 148.023 66.5625 148.421 66.5625C148.82 66.5625 149.175 66.4375 149.488 66.1875C149.8 65.9297 150.042 65.4727 150.214 64.8164C150.441 63.9727 150.554 62.543 150.554 60.5273C150.554 58.5117 150.453 57.1289 150.25 56.3789C150.046 55.6211 149.789 55.1172 149.476 54.8672C149.171 54.6094 148.82 54.4805 148.421 54.4805ZM161.781 51.75C163.445 51.75 164.746 52.3438 165.683 53.5312C166.8 54.9375 167.359 57.2695 167.359 60.5273C167.359 63.7773 166.796 66.1133 165.671 67.5352C164.742 68.707 163.445 69.293 161.781 69.293C160.109 69.293 158.761 68.6523 157.738 67.3711C156.714 66.082 156.203 63.7891 156.203 60.4922C156.203 57.2578 156.765 54.9297 157.89 53.5078C158.82 52.3359 160.117 51.75 161.781 51.75ZM161.781 54.4805C161.382 54.4805 161.027 54.6094 160.714 54.8672C160.402 55.1172 160.16 55.5703 159.988 56.2266C159.761 57.0781 159.648 58.5117 159.648 60.5273C159.648 62.543 159.75 63.9297 159.953 64.6875C160.156 65.4375 160.41 65.9375 160.714 66.1875C161.027 66.4375 161.382 66.5625 161.781 66.5625C162.179 66.5625 162.535 66.4375 162.847 66.1875C163.16 65.9297 163.402 65.4727 163.574 64.8164C163.8 63.9727 163.914 62.543 163.914 60.5273C163.914 58.5117 163.812 57.1289 163.609 56.3789C163.406 55.6211 163.148 55.1172 162.835 54.8672C162.531 54.6094 162.179 54.4805 161.781 54.4805ZM170.195 65.707H173.488V68.0625C173.488 69.0156 173.406 69.7656 173.242 70.3125C173.078 70.8672 172.765 71.3633 172.304 71.8008C171.851 72.2383 171.273 72.582 170.57 72.832L169.925 71.4727C170.589 71.2539 171.062 70.9531 171.343 70.5703C171.625 70.1875 171.773 69.6641 171.789 69H170.195V65.707ZM181.82 51.75C183.484 51.75 184.785 52.3438 185.722 53.5312C186.839 54.9375 187.398 57.2695 187.398 60.5273C187.398 63.7773 186.835 66.1133 185.71 67.5352C184.781 68.707 183.484 69.293 181.82 69.293C180.148 69.293 178.8 68.6523 177.777 67.3711C176.753 66.082 176.242 63.7891 176.242 60.4922C176.242 57.2578 176.804 54.9297 177.929 53.5078C178.859 52.3359 180.156 51.75 181.82 51.75ZM181.82 54.4805C181.421 54.4805 181.066 54.6094 180.753 54.8672C180.441 55.1172 180.199 55.5703 180.027 56.2266C179.8 57.0781 179.687 58.5117 179.687 60.5273C179.687 62.543 179.789 63.9297 179.992 64.6875C180.195 65.4375 180.449 65.9375 180.753 66.1875C181.066 66.4375 181.421 66.5625 181.82 66.5625C182.218 66.5625 182.574 66.4375 182.886 66.1875C183.199 65.9297 183.441 65.4727 183.613 64.8164C183.839 63.9727 183.953 62.543 183.953 60.5273C183.953 58.5117 183.851 57.1289 183.648 56.3789C183.445 55.6211 183.187 55.1172 182.875 54.8672C182.57 54.6094 182.218 54.4805 181.82 54.4805ZM195.179 51.75C196.843 51.75 198.144 52.3438 199.082 53.5312C200.199 54.9375 200.757 57.2695 200.757 60.5273C200.757 63.7773 200.195 66.1133 199.07 67.5352C198.14 68.707 196.843 69.293 195.179 69.293C193.507 69.293 192.16 68.6523 191.136 67.3711C190.113 66.082 189.601 63.7891 189.601 60.4922C189.601 57.2578 190.164 54.9297 191.289 53.5078C192.218 52.3359 193.515 51.75 195.179 51.75ZM195.179 54.4805C194.781 54.4805 194.425 54.6094 194.113 54.8672C193.8 55.1172 193.558 55.5703 193.386 56.2266C193.16 57.0781 193.046 58.5117 193.046 60.5273C193.046 62.543 193.148 63.9297 193.351 64.6875C193.554 65.4375 193.808 65.9375 194.113 66.1875C194.425 66.4375 194.781 66.5625 195.179 66.5625C195.578 66.5625 195.933 66.4375 196.246 66.1875C196.558 65.9297 196.8 65.4727 196.972 64.8164C197.199 63.9727 197.312 62.543 197.312 60.5273C197.312 58.5117 197.21 57.1289 197.007 56.3789C196.804 55.6211 196.546 55.1172 196.234 54.8672C195.929 54.6094 195.578 54.4805 195.179 54.4805ZM208.539 51.75C210.203 51.75 211.503 52.3438 212.441 53.5312C213.558 54.9375 214.117 57.2695 214.117 60.5273C214.117 63.7773 213.554 66.1133 212.429 67.5352C211.5 68.707 210.203 69.293 208.539 69.293C206.867 69.293 205.519 68.6523 204.496 67.3711C203.472 66.082 202.96 63.7891 202.96 60.4922C202.96 57.2578 203.523 54.9297 204.648 53.5078C205.578 52.3359 206.875 51.75 208.539 51.75ZM208.539 54.4805C208.14 54.4805 207.785 54.6094 207.472 54.8672C207.16 55.1172 206.917 55.5703 206.746 56.2266C206.519 57.0781 206.406 58.5117 206.406 60.5273C206.406 62.543 206.507 63.9297 206.71 64.6875C206.914 65.4375 207.167 65.9375 207.472 66.1875C207.785 66.4375 208.14 66.5625 208.539 66.5625C208.937 66.5625 209.292 66.4375 209.605 66.1875C209.917 65.9297 210.16 65.4727 210.332 64.8164C210.558 63.9727 210.671 62.543 210.671 60.5273C210.671 58.5117 210.57 57.1289 210.367 56.3789C210.164 55.6211 209.906 55.1172 209.593 54.8672C209.289 54.6094 208.937 54.4805 208.539 54.4805ZM227.722 66.457V61.5469C226.191 61.1094 225.066 60.4492 224.347 59.5664C223.636 58.6758 223.281 57.5977 223.281 56.332C223.281 55.0508 223.683 53.9766 224.488 53.1094C225.3 52.2344 226.378 51.7305 227.722 51.5977V50.4375H229.421V51.5977C230.664 51.7461 231.652 52.1719 232.386 52.875C233.121 53.5703 233.589 54.5039 233.792 55.6758L230.828 56.0625C230.648 55.1406 230.179 54.5156 229.421 54.1875V58.7695C231.296 59.2773 232.574 59.9375 233.253 60.75C233.933 61.5547 234.273 62.5898 234.273 63.8555C234.273 65.2695 233.843 66.4609 232.984 67.4297C232.132 68.3984 230.945 68.9922 229.421 69.2109V71.4023H227.722V69.2695C226.371 69.1055 225.273 68.6016 224.429 67.7578C223.585 66.9141 223.046 65.7227 222.812 64.1836L225.871 63.8555C225.996 64.4805 226.23 65.0195 226.574 65.4727C226.917 65.9258 227.3 66.2539 227.722 66.457ZM227.722 54.1523C227.261 54.3086 226.894 54.5742 226.621 54.9492C226.347 55.3242 226.21 55.7383 226.21 56.1914C226.21 56.6055 226.335 56.9922 226.585 57.3516C226.835 57.7031 227.214 57.9883 227.722 58.207V54.1523ZM229.421 66.6211C230.007 66.5117 230.484 66.2422 230.851 65.8125C231.218 65.375 231.402 64.8633 231.402 64.2773C231.402 63.7539 231.246 63.3047 230.933 62.9297C230.628 62.5469 230.125 62.2539 229.421 62.0508V66.6211ZM237.109 69V51.8203H244.41C246.246 51.8203 247.578 51.9766 248.406 52.2891C249.242 52.5938 249.91 53.1406 250.41 53.9297C250.91 54.7188 251.16 55.6211 251.16 56.6367C251.16 57.9258 250.781 58.9922 250.023 59.8359C249.265 60.6719 248.132 61.1992 246.625 61.418C247.375 61.8555 247.992 62.3359 248.476 62.8594C248.968 63.3828 249.628 64.3125 250.457 65.6484L252.554 69H248.406L245.898 65.2617C245.007 63.9258 244.398 63.0859 244.07 62.7422C243.742 62.3906 243.394 62.1523 243.027 62.0273C242.66 61.8945 242.078 61.8281 241.281 61.8281H240.578V69H237.109ZM240.578 59.0859H243.144C244.808 59.0859 245.847 59.0156 246.261 58.875C246.675 58.7344 247 58.4922 247.234 58.1484C247.468 57.8047 247.585 57.375 247.585 56.8594C247.585 56.2812 247.429 55.8164 247.117 55.4648C246.812 55.1055 246.378 54.8789 245.816 54.7852C245.535 54.7461 244.691 54.7266 243.285 54.7266H240.578V59.0859ZM254.441 69V51.8203H267.179V54.7266H257.91V58.5352H266.535V61.4297H257.91V66.1055H267.507V69H254.441ZM270.496 69V51.8203H273.964V59.4492L280.972 51.8203H285.636L279.167 58.5117L285.988 69H281.5L276.777 60.9375L273.964 63.8086V69H270.496ZM291.66 69V54.7266H286.562V51.8203H300.214V54.7266H295.128V69H291.66Z" fill="white"/>
<defs>
<filter id="filter0_g_314_6908" x="0.19873" y="0" width="362" height="91" filterUnits="userSpaceOnUse" color-interpolation-filters="sRGB">
<feFlood flood-opacity="0" result="BackgroundImageFix"/>
<feBlend mode="normal" in="SourceGraphic" in2="BackgroundImageFix" result="shape"/>
<feTurbulence type="fractalNoise" baseFrequency="2 2" numOctaves="3" seed="7949" />
<feDisplacementMap in="shape" scale="8" xChannelSelector="R" yChannelSelector="G" result="displacedImage" width="100%" height="100%" />
<feMerge result="effect1_texture_314_6908">
<feMergeNode in="displacedImage"/>
</feMerge>
</filter>
</defs>
</svg>
