<svg width="202" height="49" viewBox="0 0 202 49" fill="none" xmlns="http://www.w3.org/2000/svg">
<path d="M0.509766 24.793C0.509766 10.0002 8.69943 2.04694 25.0788 0.930767C26.4163 0.838901 101.423 0.792969 102.871 0.792969C104.02 0.792969 175.001 0.820528 176.079 0.877945C193.019 1.77823 201.49 9.74761 201.49 24.7907C201.49 39.7901 193.065 47.7618 176.219 48.6988C175.098 48.7608 104.066 48.793 102.868 48.793C101.453 48.793 26.4729 48.7493 25.1597 48.6621C8.7264 47.5689 0.509766 39.6087 0.509766 24.793Z" fill="black"/>
<path d="M1.92285 24.6455C1.92285 10.4384 9.81858 2.82503 25.61 1.80302C26.8343 1.72493 101.72 1.68359 103.038 1.68359C104.184 1.68359 175.165 1.71345 176.238 1.77316C192.353 2.66886 200.414 10.2914 200.414 24.6432C200.414 39.0455 192.297 46.675 176.066 47.527C175.044 47.5799 104.122 47.6074 103.038 47.6074C102.041 47.6074 27.4545 47.5845 26.508 47.5385C10.1179 46.7508 1.92285 39.119 1.92285 24.6455Z" fill="url(#paint0_linear_4_3422)"/>
<path d="M5.01562 25.8774C5.01562 12.3846 86.7073 5.6416 102.871 5.6416C119.032 5.6416 196.983 12.3846 196.983 25.8774C196.983 38.4814 189.932 45.1991 175.825 46.0282C174.83 46.0856 103.933 46.1155 102.871 46.1155C101.504 46.1155 26.5833 46.0672 25.332 45.9708C11.7869 44.9281 5.01562 38.2288 5.01562 25.8774Z" fill="black"/>
<path d="M5.18555 24.5776C5.18555 11.6773 12.5716 4.94582 27.3437 4.38084C28.0233 4.35558 102.329 4.3418 103.041 4.3418C103.985 4.3418 174.771 4.36476 175.661 4.4107C189.988 5.15251 197.153 11.8725 197.153 24.5776C197.153 37.4985 189.74 44.2346 174.914 44.7812C174.261 44.8042 103.723 44.818 103.041 44.818C102.067 44.818 27.5082 44.7927 26.5941 44.7445C12.3208 43.9797 5.18555 37.2574 5.18555 24.5776Z" fill="#FFEAB6"/>
<path d="M5.18555 24.6469C5.18555 11.7466 12.5716 5.01515 27.3437 4.45018C28.0233 4.42491 102.329 4.41113 103.041 4.41113C103.985 4.41113 174.771 4.4341 175.661 4.48003C189.988 5.22185 197.153 11.9419 197.153 24.6469C197.153 37.5679 189.74 44.304 174.914 44.8506C174.261 44.8735 103.723 44.8873 103.041 44.8873C102.067 44.8873 27.5082 44.862 26.5941 44.8138C12.3208 44.049 5.18555 37.3244 5.18555 24.6469Z" fill="url(#paint1_linear_4_3422)"/>
<path opacity="0.5" d="M103.041 41.8913C102.005 41.8913 27.3869 41.8638 26.4188 41.8087C12.8224 41.0301 5.75723 34.797 5.2206 23.1162C5.19903 23.5939 5.18555 24.0808 5.18555 24.5792C5.18555 37.0684 12.1105 43.7792 25.9604 44.707C27.0714 44.7805 101.838 44.8196 103.038 44.8196C104.3 44.8196 175.383 44.7782 176.548 44.6955C190.282 43.7241 197.15 37.0178 197.15 24.5792C197.15 24.0808 197.137 23.5939 197.115 23.1162C196.584 34.7258 189.603 40.9543 176.171 41.7949C175.124 41.8592 104.165 41.8913 103.041 41.8913Z" fill="#0E4D99"/>
<defs>
<linearGradient id="paint0_linear_4_3422" x1="101.169" y1="47.6089" x2="101.169" y2="1.68465" gradientUnits="userSpaceOnUse">
<stop stop-color="#AE50EC"/>
<stop offset="0.5123" stop-color="#6206C8"/>
</linearGradient>
<linearGradient id="paint1_linear_4_3422" x1="101.168" y1="5.84705" x2="101.168" y2="45.6481" gradientUnits="userSpaceOnUse">
<stop offset="0.00223473" stop-color="#00E3FF"/>
<stop offset="1" stop-color="#7A01F3"/>
</linearGradient>
</defs>
</svg>
