<svg width="25" height="25" viewBox="0 0 25 25" fill="none" xmlns="http://www.w3.org/2000/svg">
<path d="M13.4998 2.17432V4.19432C17.8898 4.73432 20.9998 8.72432 20.4598 13.1143C19.9998 16.7543 17.1398 19.6443 13.4998 20.0743V22.0743C18.9998 21.5243 22.9998 16.6443 22.4498 11.1443C21.9998 6.39432 18.2298 2.64432 13.4998 2.17432ZM11.4998 2.20432C9.54981 2.39432 7.68981 3.14432 6.16981 4.40432L7.59981 5.88432C8.71981 4.98432 10.0698 4.40432 11.4998 4.20432V2.20432ZM4.75981 5.81432C3.51025 7.33213 2.7409 9.18762 2.5498 11.1443H4.54981C4.73981 9.72432 5.29981 8.37432 6.18981 7.24432L4.75981 5.81432ZM15.9998 8.64432L11.1198 13.5243L8.99981 11.4043L7.93981 12.4643L11.1198 15.6443L17.0598 9.70432L15.9998 8.64432ZM2.5598 13.1443C2.7598 15.1043 3.5298 16.9543 4.76981 18.4743L6.18981 17.0443C5.30665 15.914 4.74366 14.5669 4.55981 13.1443H2.5598ZM7.59981 18.5143L6.16981 19.8843C7.68477 21.1467 9.53917 21.933 11.4998 22.1443V20.1443C10.0772 19.9605 8.73016 19.3975 7.59981 18.5143Z" fill="#5BFF52"/>
</svg>
