<svg width="201" height="49" viewBox="0 0 201 49" fill="none" xmlns="http://www.w3.org/2000/svg">
<path d="M0.0205078 24.8022C0.0205078 10.0095 8.21017 2.05622 24.5895 0.940045C25.927 0.848179 100.934 0.802246 102.382 0.802246C103.531 0.802246 174.511 0.829806 175.59 0.887222C192.53 1.78751 201 9.75688 201 24.7999C201 39.7994 192.576 47.771 175.73 48.7081C174.608 48.7701 103.576 48.8022 102.379 48.8022C100.963 48.8022 25.9837 48.7586 24.6704 48.6713C8.23714 47.5781 0.0205078 39.6179 0.0205078 24.8022Z" fill="black"/>
<path d="M1.43359 24.6548C1.43359 10.4477 9.32932 2.83431 25.1208 1.8123C26.345 1.73421 101.23 1.69287 102.549 1.69287C103.695 1.69287 174.676 1.72273 175.749 1.78244C191.864 2.67814 199.924 10.3007 199.924 24.6525C199.924 39.0548 191.807 46.6843 175.576 47.5363C174.554 47.5891 103.633 47.6167 102.549 47.6167C101.551 47.6167 26.9653 47.5937 26.0188 47.5478C9.62865 46.7601 1.43359 39.1283 1.43359 24.6548Z" fill="url(#paint0_linear_4_3352)"/>
<path d="M4.52637 25.8867C4.52637 12.3938 86.218 5.65088 102.382 5.65088C118.543 5.65088 196.494 12.3938 196.494 25.8867C196.494 38.4907 189.442 45.2084 175.336 46.0375C174.341 46.0949 103.444 46.1248 102.382 46.1248C101.014 46.1248 26.094 46.0765 24.8428 45.9801C11.2976 44.9374 4.52637 38.2381 4.52637 25.8867Z" fill="black"/>
<path d="M4.69629 24.5869C4.69629 11.6866 12.0824 4.95509 26.8545 4.39012C27.534 4.36485 101.84 4.35107 102.552 4.35107C103.495 4.35107 174.282 4.37404 175.172 4.41997C189.499 5.16179 196.664 11.8818 196.664 24.5869C196.664 37.5078 189.251 44.2439 174.425 44.7905C173.772 44.8135 103.234 44.8273 102.552 44.8273C101.578 44.8273 27.019 44.802 26.1048 44.7538C11.8316 43.989 4.69629 37.2667 4.69629 24.5869Z" fill="#FFEAB6"/>
<path d="M4.69629 24.6562C4.69629 11.7559 12.0824 5.02443 26.8545 4.45945C27.534 4.43419 101.84 4.42041 102.552 4.42041C103.495 4.42041 174.282 4.44338 175.172 4.48931C189.499 5.23113 196.664 11.9511 196.664 24.6562C196.664 37.5772 189.251 44.3132 174.425 44.8598C173.772 44.8828 103.234 44.8966 102.552 44.8966C101.578 44.8966 27.019 44.8713 26.1048 44.8231C11.8316 44.0583 4.69629 37.3337 4.69629 24.6562Z" fill="url(#paint1_linear_4_3352)"/>
<path opacity="0.5" d="M102.552 41.9006C101.516 41.9006 26.8976 41.873 25.9295 41.8179C12.3331 41.0394 5.26797 34.8063 4.73134 23.1255C4.70977 23.6032 4.69629 24.0901 4.69629 24.5885C4.69629 37.0776 11.6212 43.7885 25.4711 44.7163C26.5821 44.7898 101.349 44.8288 102.549 44.8288C103.811 44.8288 174.894 44.7875 176.059 44.7048C189.793 43.7333 196.661 37.0271 196.661 24.5885C196.661 24.0901 196.648 23.6032 196.626 23.1255C196.095 34.7351 189.113 40.9636 175.681 41.8041C174.635 41.8685 103.676 41.9006 102.552 41.9006Z" fill="#0E4D99"/>
<defs>
<linearGradient id="paint0_linear_4_3352" x1="100.679" y1="47.6182" x2="100.679" y2="1.69393" gradientUnits="userSpaceOnUse">
<stop stop-color="#AE50EC"/>
<stop offset="0.5123" stop-color="#6206C8"/>
</linearGradient>
<linearGradient id="paint1_linear_4_3352" x1="100.679" y1="5.85632" x2="100.679" y2="45.6574" gradientUnits="userSpaceOnUse">
<stop offset="0.00223473" stop-color="#00E3FF"/>
<stop offset="1" stop-color="#7A01F3"/>
</linearGradient>
</defs>
</svg>
