<svg width="202" height="49" viewBox="0 0 202 49" fill="none" xmlns="http://www.w3.org/2000/svg">
<path d="M0.375 24.6016C0.375 9.80883 8.56466 1.85553 24.944 0.739361C26.2815 0.647495 101.288 0.601562 102.736 0.601562C103.885 0.601562 174.866 0.629122 175.944 0.686538C192.885 1.58683 201.355 9.5562 201.355 24.5993C201.355 39.5987 192.93 47.5704 176.085 48.5074C174.963 48.5694 103.931 48.6016 102.734 48.6016C101.318 48.6016 26.3381 48.5579 25.0249 48.4706C8.59163 47.3774 0.375 39.4173 0.375 24.6016Z" fill="black"/>
<path d="M1.78809 24.4541C1.78809 10.247 9.68381 2.63362 25.4753 1.61161C26.6995 1.53353 101.585 1.49219 102.904 1.49219C104.05 1.49219 175.03 1.52204 176.104 1.58176C192.219 2.47745 200.279 10.1 200.279 24.4518C200.279 38.8541 192.162 46.4836 175.931 47.3356C174.909 47.3885 103.988 47.416 102.904 47.416C101.906 47.416 27.3198 47.3931 26.3732 47.3471C9.98314 46.5594 1.78809 38.9276 1.78809 24.4541Z" fill="url(#paint0_linear_4_3390)"/>
<path d="M4.88086 25.686C4.88086 12.1932 86.5725 5.4502 102.736 5.4502C118.897 5.4502 196.848 12.1932 196.848 25.686C196.848 38.29 189.797 45.0077 175.691 45.8368C174.696 45.8942 103.799 45.9241 102.736 45.9241C101.369 45.9241 26.4485 45.8758 25.1973 45.7794C11.6521 44.7367 4.88086 38.0374 4.88086 25.686Z" fill="black"/>
<path d="M5.05078 24.3862C5.05078 11.4859 12.4368 4.75441 27.209 4.18943C27.8885 4.16417 102.194 4.15039 102.906 4.15039C103.85 4.15039 174.636 4.17336 175.526 4.21929C189.853 4.96111 197.018 11.6811 197.018 24.3862C197.018 37.3071 189.605 44.0432 174.779 44.5898C174.127 44.6128 103.588 44.6266 102.906 44.6266C101.933 44.6266 27.3735 44.6013 26.4593 44.5531C12.1861 43.7883 5.05078 37.066 5.05078 24.3862Z" fill="#FFEAB6"/>
<path d="M5.05078 24.4555C5.05078 11.5552 12.4368 4.82375 27.209 4.25877C27.8885 4.23351 102.194 4.21973 102.906 4.21973C103.85 4.21973 174.636 4.24269 175.526 4.28863C189.853 5.03044 197.018 11.7504 197.018 24.4555C197.018 37.3765 189.605 44.1126 174.779 44.6592C174.127 44.6821 103.588 44.6959 102.906 44.6959C101.933 44.6959 27.3735 44.6706 26.4593 44.6224C12.1861 43.8576 5.05078 37.133 5.05078 24.4555Z" fill="url(#paint1_linear_4_3390)"/>
<path opacity="0.5" d="M102.906 41.6999C101.871 41.6999 27.2521 41.6724 26.284 41.6172C12.6876 40.8387 5.62247 34.6056 5.08584 22.9248C5.06426 23.4025 5.05078 23.8894 5.05078 24.3878C5.05078 36.877 11.9757 43.5878 25.8256 44.5156C26.9366 44.5891 101.703 44.6282 102.903 44.6282C104.165 44.6282 175.249 44.5868 176.413 44.5041C190.147 43.5326 197.016 36.8264 197.016 24.3878C197.016 23.8894 197.002 23.4025 196.981 22.9248C196.449 34.5344 189.468 40.7629 176.036 41.6035C174.99 41.6678 104.031 41.6999 102.906 41.6999Z" fill="#0E4D99"/>
<defs>
<linearGradient id="paint0_linear_4_3390" x1="101.034" y1="47.4175" x2="101.034" y2="1.49324" gradientUnits="userSpaceOnUse">
<stop stop-color="#AE50EC"/>
<stop offset="0.5123" stop-color="#6206C8"/>
</linearGradient>
<linearGradient id="paint1_linear_4_3390" x1="101.034" y1="5.65564" x2="101.034" y2="45.4567" gradientUnits="userSpaceOnUse">
<stop offset="0.00223473" stop-color="#00E3FF"/>
<stop offset="1" stop-color="#7A01F3"/>
</linearGradient>
</defs>
</svg>
