<svg width="113" height="36" viewBox="0 0 113 36" fill="none" xmlns="http://www.w3.org/2000/svg">
<path d="M0.57373 17.9884C0.57373 7.49451 5.13758 1.85245 14.2653 1.06064C15.0107 0.995475 56.8097 0.962891 57.6166 0.962891C58.2568 0.962891 97.8122 0.982441 98.4133 1.02317C107.854 1.66183 112.574 7.31529 112.574 17.9868C112.574 28.6274 107.879 34.2825 98.4915 34.9472C97.8663 34.9912 58.2824 35.014 57.6151 35.014C56.8262 35.014 15.0422 34.983 14.3104 34.9211C5.15261 34.1456 0.57373 28.4987 0.57373 17.9884Z" fill="black"/>
<path d="M1.36133 17.8844C1.36133 7.80588 5.76138 2.40495 14.5615 1.67994C15.2437 1.62454 56.9751 1.59521 57.71 1.59521C58.3486 1.59521 97.904 1.6164 98.5021 1.65876C107.483 2.29416 111.974 7.7016 111.974 17.8827C111.974 28.0997 107.451 33.512 98.4059 34.1165C97.8364 34.1539 58.3141 34.1735 57.71 34.1735C57.1539 34.1735 15.5894 34.1572 15.0619 34.1246C5.92819 33.5658 1.36133 28.1518 1.36133 17.8844Z" fill="url(#paint0_linear_4_946)"/>
<path d="M3.08496 18.7576C3.08496 9.18579 48.6093 4.40234 57.6168 4.40234C66.6228 4.40234 110.063 9.18579 110.063 18.7576C110.063 27.6988 106.133 32.4644 98.2722 33.0525C97.7177 33.0932 58.2089 33.1144 57.6168 33.1144C56.8549 33.1144 15.104 33.0802 14.4067 33.0118C6.85837 32.2721 3.08496 27.5196 3.08496 18.7576Z" fill="black"/>
<path d="M3.1792 17.8352C3.1792 8.68377 7.29523 3.90847 15.5273 3.50768C15.906 3.48976 57.3143 3.47998 57.711 3.47998C58.237 3.47998 97.6842 3.49627 98.1801 3.52886C106.164 4.0551 110.157 8.82226 110.157 17.8352C110.157 27.0013 106.026 31.7799 97.7638 32.1676C97.4002 32.1839 58.0912 32.1937 57.711 32.1937C57.1685 32.1937 15.619 32.1758 15.1095 32.1416C7.15548 31.599 3.1792 26.8302 3.1792 17.8352Z" fill="#FFEAB6"/>
<path d="M3.1792 17.884C3.1792 8.7326 7.29523 3.9573 15.5273 3.55651C15.906 3.53858 57.3143 3.52881 57.711 3.52881C58.237 3.52881 97.6842 3.5451 98.1801 3.57769C106.164 4.10393 110.157 8.87108 110.157 17.884C110.157 27.0501 106.026 31.8287 97.7638 32.2165C97.4002 32.2327 58.0912 32.2425 57.711 32.2425C57.1685 32.2425 15.619 32.2246 15.1095 32.1904C7.15548 31.6479 3.1792 26.8774 3.1792 17.884Z" fill="url(#paint1_linear_4_946)"/>
<path opacity="0.5" d="M57.711 30.1179C57.134 30.1179 15.5513 30.0983 15.0119 30.0592C7.43499 29.5069 3.49778 25.0851 3.19873 16.7988C3.18671 17.1377 3.1792 17.4831 3.1792 17.8367C3.1792 26.6965 7.03826 31.4571 14.7564 32.1153C15.3755 32.1674 57.0408 32.1951 57.7095 32.1951C58.4128 32.1951 98.0253 32.1658 98.6745 32.1072C106.328 31.418 110.156 26.6606 110.156 17.8367C110.156 17.4831 110.148 17.1377 110.136 16.7988C109.84 25.0346 105.949 29.4531 98.4641 30.0494C97.881 30.095 58.3377 30.1179 57.711 30.1179Z" fill="#0E4D99"/>
<path d="M6.77441 23.342C6.77441 20.8851 10.4501 18.8534 15.2274 18.5243C3.20087 19.3568 69.6675 18.4771 82.6483 18.4771C83.1607 18.4771 97.5706 18.4966 98.062 18.5341C102.769 18.8941 106.374 20.9095 106.374 23.342C106.374 25.7174 102.938 27.6937 98.3956 28.1205C97.799 28.1775 83.2779 28.2069 82.6483 28.2069C69.5909 28.2069 3.06262 27.1772 15.0035 28.1433C10.3374 27.767 6.77441 25.7614 6.77441 23.342Z" fill="url(#paint2_linear_4_946)"/>
<path d="M106.724 10.4855C106.724 12.9424 103.048 14.9741 98.2708 15.3032C97.8245 15.3341 58.4314 15.3504 57.9671 15.3504C57.4546 15.3504 15.9276 15.3309 15.4362 15.2934C10.7296 14.9333 7.12451 12.918 7.12451 10.4855C7.12451 8.11008 10.5598 6.13382 15.1026 5.70533C15.6992 5.64993 57.3374 5.62061 57.9671 5.62061C58.5081 5.62061 97.9763 5.64179 98.4947 5.68415C103.162 6.06213 106.724 8.06772 106.724 10.4855Z" fill="url(#paint3_linear_4_946)"/>
<defs>
<linearGradient id="paint0_linear_4_946" x1="56.668" y1="34.1745" x2="56.668" y2="1.59596" gradientUnits="userSpaceOnUse">
<stop stop-color="#AE50EC"/>
<stop offset="0.5123" stop-color="#6206C8"/>
</linearGradient>
<linearGradient id="paint1_linear_4_946" x1="56.6675" y1="4.54744" x2="56.6675" y2="32.7822" gradientUnits="userSpaceOnUse">
<stop offset="0.00223473" stop-color="#00E3FF"/>
<stop offset="1" stop-color="#7A01F3"/>
</linearGradient>
<linearGradient id="paint2_linear_4_946" x1="56.5741" y1="19.516" x2="56.5741" y2="29.047" gradientUnits="userSpaceOnUse">
<stop offset="0.00223473" stop-color="#008BFF"/>
<stop offset="1" stop-color="#0056E9"/>
</linearGradient>
<linearGradient id="paint3_linear_4_946" x1="56.9251" y1="13.6774" x2="56.9251" y2="4.2388" gradientUnits="userSpaceOnUse">
<stop offset="0.00223473" stop-color="#00FBFF"/>
<stop offset="0.7368" stop-color="white"/>
</linearGradient>
</defs>
</svg>
