<svg width="113" height="29" viewBox="0 0 113 29" fill="none" xmlns="http://www.w3.org/2000/svg">
<g clip-path="url(#clip0_4_2513)">
<path d="M6.37346 9.48883C5.57551 9.48883 4.94455 9.83597 4.51772 10.5109C4.07234 11.1858 3.84965 12.1307 3.84965 13.3263C3.84965 15.8139 4.75897 17.0673 6.57758 17.0673C7.13436 17.0673 7.65395 16.9709 8.19213 16.836C8.69313 16.6816 9.23137 16.4888 9.75096 16.2574V19.2271C8.71172 19.6899 7.52407 19.9214 6.22499 19.9214C4.33215 19.9214 2.90322 19.3621 1.91967 18.2244C0.936123 17.0866 0.379395 15.4475 0.379395 13.307C0.379395 11.9572 0.6392 10.7808 1.12169 9.75878C1.60419 8.73678 2.30938 7.96544 3.20013 7.4062C4.0909 6.84696 5.20435 6.57698 6.41056 6.57698C7.76525 6.57698 9.02716 6.86624 10.2706 7.48333L9.23137 10.2409C8.78592 10.0095 8.30343 9.83597 7.8581 9.68165C7.37561 9.54668 6.87453 9.48883 6.37346 9.48883ZM21.1638 14.7147C21.1638 16.3539 20.737 17.6459 19.9019 18.5522C19.0483 19.4585 17.8791 19.9214 16.3574 19.9214C14.8357 19.9214 13.7408 19.4585 12.8686 18.5136C11.9964 17.5687 11.5696 16.3153 11.5696 14.6954C11.5696 13.0756 11.9964 11.8029 12.8315 10.8772C13.6852 9.97094 14.8914 9.50811 16.4131 9.50811C17.3781 9.50811 18.1946 9.72021 18.9184 10.1252C19.6607 10.5302 20.2174 11.1472 20.6071 11.9378C20.9783 12.7478 21.1638 13.6541 21.1638 14.7147ZM14.9099 14.7147C14.9099 15.5632 15.0213 16.2381 15.244 16.6816C15.4667 17.1252 15.8378 17.3566 16.376 17.3566C16.877 17.3566 17.2482 17.1252 17.4709 16.6816C17.6935 16.2189 17.7863 15.5632 17.7863 14.7147C17.7863 13.8662 17.675 13.2299 17.4709 12.7863C17.2482 12.3429 16.877 12.15 16.376 12.15C15.8749 12.15 15.5038 12.3621 15.2811 12.7863C15.0213 13.1913 14.9099 13.8277 14.9099 14.7147ZM26.4156 19.7478H23.0938V9.72021H26.4156V19.7478ZM23.001 7.21335C23.001 6.69269 23.1495 6.30701 23.4278 6.03704C23.7062 5.76707 24.1701 5.65137 24.7825 5.65137C25.3949 5.65137 25.8589 5.76707 26.1372 6.03704C26.4156 6.30701 26.5641 6.67341 26.5641 7.17478C26.5641 8.19682 25.9702 8.69821 24.7825 8.69821C23.5949 8.73678 23.001 8.23539 23.001 7.21335ZM34.8407 19.7478V14.2712C34.8407 13.5962 34.7479 13.0949 34.5623 12.7863C34.3953 12.4393 34.0798 12.2657 33.6901 12.2657C33.1334 12.2657 32.7252 12.4971 32.4839 12.9599C32.2241 13.4227 32.1127 14.2134 32.1127 15.3704V19.7671H28.791V9.73949H31.2963L31.723 10.9737H31.9272C32.2056 10.5109 32.5953 10.1445 33.1149 9.91309C33.6159 9.68165 34.1912 9.56596 34.8593 9.56596C35.9356 9.56596 36.7521 9.89381 37.346 10.5302C37.9398 11.1665 38.2553 12.0922 38.2553 13.2492V19.7863H34.8778L34.8407 19.7478ZM47.9052 16.6816C47.9052 17.7616 47.5712 18.5522 46.8659 19.1114C46.1608 19.6706 45.1402 19.9407 43.8225 19.9407C43.1174 19.9407 42.505 19.902 41.9668 19.825C41.4286 19.7286 40.8904 19.5935 40.3523 19.3814V16.6045C40.8533 16.836 41.4286 17.0481 42.041 17.1831C42.6534 17.3374 43.1916 17.4144 43.7112 17.4144C44.4535 17.4144 44.7876 17.2409 44.7876 16.8938C44.7876 16.7202 44.6762 16.566 44.472 16.431C44.268 16.2959 43.674 16.026 42.7276 15.6017C41.8554 15.2161 41.2245 14.8111 40.8719 14.3098C40.5379 13.8084 40.3337 13.2299 40.3337 12.4585C40.3337 11.5136 40.6677 10.7808 41.373 10.2987C42.0781 9.77806 43.0432 9.50811 44.3051 9.50811C44.9545 9.50811 45.5484 9.60452 46.0866 9.73949C46.6432 9.89381 47.2371 10.0866 47.831 10.3566L46.9217 12.5742C46.4763 12.3621 46.0124 12.1885 45.5113 12.0536C45.0102 11.8993 44.602 11.8222 44.3051 11.8222C43.7669 11.8222 43.4885 11.9764 43.4885 12.2271C43.4885 12.4007 43.5813 12.555 43.7669 12.6706C43.9525 12.7863 44.5091 13.0178 45.437 13.4034C46.1051 13.6926 46.6247 13.9819 46.9402 14.2519C47.2743 14.5219 47.534 14.869 47.6825 15.2547C47.8124 15.6789 47.9052 16.1225 47.9052 16.6816ZM55.5322 19.9214C55.05 19.9214 54.6045 19.8249 54.2146 19.6899C53.8253 19.5164 53.4537 19.2271 53.0644 18.7836H52.9155C53.0271 19.4778 53.0644 19.9214 53.0644 20.0949V24.1059H49.7424V9.72021H52.4517L52.9343 11.0123H53.0827C53.6953 10.0481 54.549 9.54668 55.6438 9.54668C56.7386 9.54668 57.555 10.0095 58.1488 10.9158C58.7615 11.8222 59.0581 13.1142 59.0581 14.6954C59.0581 16.2767 58.7426 17.588 58.0933 18.5329C57.4623 19.4585 56.6086 19.9214 55.5322 19.9214ZM54.419 12.2464C53.9364 12.2464 53.5654 12.4199 53.3798 12.8056C53.1755 13.1528 53.0644 13.712 53.0644 14.4255V14.6954C53.0644 15.5439 53.1755 16.1803 53.3982 16.566C53.6209 16.9517 53.9548 17.1445 54.4374 17.1445C54.8645 17.1445 55.1795 16.9709 55.3655 16.5852C55.5694 16.1996 55.6438 15.5632 55.6438 14.6761C55.6438 13.7891 55.551 13.2105 55.3655 12.8249C55.1795 12.4393 54.8645 12.2464 54.419 12.2464ZM65.628 19.9214C64.0129 19.9214 62.7884 19.4778 61.8791 18.6101C61.0065 17.723 60.5616 16.4503 60.5616 14.7919C60.5616 13.1335 60.9882 11.8029 61.8047 10.8965C62.6212 9.99022 63.8088 9.52739 65.3308 9.52739C66.8524 9.52739 67.8916 9.91309 68.6896 10.7037C69.4876 11.4943 69.8776 12.6128 69.8776 14.0976V15.6596H63.9204C63.9576 16.2189 64.1434 16.6624 64.5144 16.9709C64.8854 17.2987 65.3862 17.4338 66.0359 17.4338C66.6296 17.4338 67.168 17.3759 67.6504 17.2602C68.1518 17.1445 68.6711 16.9324 69.2648 16.6816V19.1693C68.7265 19.4393 68.1881 19.6321 67.6504 19.7478C67.0751 19.8635 66.3885 19.9214 65.628 19.9214ZM65.4422 11.8993C65.0521 11.8993 64.6996 12.015 64.4584 12.285C64.1987 12.555 64.0314 12.9214 64.0129 13.4805H66.8899C66.8899 12.9792 66.741 12.5935 66.4998 12.3043C66.2027 12.0536 65.8507 11.8993 65.4422 11.8993ZM78.0422 19.7478L77.3931 18.4365H77.3377C76.8923 19.015 76.4284 19.4007 75.9638 19.6128C75.4821 19.825 74.8877 19.9407 74.1642 19.9407C73.2548 19.9407 72.5307 19.6514 72.0298 19.0922C71.4915 18.5329 71.2325 17.723 71.2325 16.6816C71.2325 15.6404 71.6035 14.8111 72.3079 14.3098C73.0136 13.7891 74.0528 13.4805 75.4077 13.4227L77.0221 13.3649V13.2105C77.0221 12.3814 76.632 11.9764 75.834 11.9764C75.1289 11.9764 74.2196 12.2078 73.1619 12.7092L72.1972 10.4144C73.3287 9.7974 74.7395 9.50811 76.4468 9.50811C77.6903 9.50811 78.655 9.83597 79.3232 10.4723C79.9907 11.1087 80.3433 11.9957 80.3433 13.1335V19.6899H78.0613L78.0422 19.7478ZM75.5928 17.4723C75.9829 17.4723 76.3355 17.318 76.632 17.0673C76.9101 16.7974 77.059 16.4503 77.059 16.0453V15.2547L76.2986 15.2932C75.2034 15.3318 74.665 15.7561 74.665 16.5467C74.6281 17.1831 74.9437 17.4723 75.5928 17.4723ZM85.8555 14.0976C86.2449 13.4227 86.5975 12.9213 86.8946 12.5357L89.0659 9.70093H92.7957L89.4369 13.9819L92.9815 19.7478H89.1773L87.0614 16.1417L85.9853 16.9902V19.7092H82.6266V5.94063H85.9853V11.3594C85.9853 12.3043 85.9299 13.2105 85.781 14.0783H85.8555V14.0976ZM98.7896 19.9214C97.1757 19.9214 95.9507 19.4778 95.0407 18.6101C94.1689 17.723 93.7235 16.4503 93.7235 14.7919C93.7235 13.1335 94.1505 11.8029 94.9669 10.8965C95.7834 9.99022 96.9715 9.52739 98.493 9.52739C100.015 9.52739 101.054 9.91309 101.852 10.7037C102.65 11.4943 103.039 12.6128 103.039 14.0976V15.6596H97.0637C97.1013 16.2189 97.2865 16.6624 97.6575 16.9709C98.0291 17.2987 98.5306 17.4338 99.1797 17.4338C99.7734 17.4338 100.312 17.3759 100.794 17.2602C101.295 17.1445 101.815 16.9324 102.409 16.6816V19.1693C101.871 19.4393 101.332 19.6321 100.794 19.7478C100.237 19.8635 99.5507 19.9214 98.7896 19.9214ZM98.5859 11.8993C98.1958 11.8993 97.8433 12.015 97.6021 12.285C97.3425 12.555 97.1757 12.9214 97.1567 13.4805H100.033C100.033 12.9792 99.8847 12.5935 99.6436 12.3043C99.347 12.0536 99.0123 11.8993 98.5859 11.8993ZM110.722 9.52739C111.001 9.52739 111.279 9.56596 111.538 9.58524L111.743 9.6238L111.428 12.8828C111.149 12.8249 110.778 12.7671 110.296 12.7671C109.554 12.7671 109.034 12.9407 108.718 13.2877C108.384 13.6348 108.217 14.1362 108.217 14.7726V19.6899H104.895V9.66237H107.382L107.883 11.2822H108.05C108.328 10.7616 108.718 10.318 109.201 9.99022C109.739 9.70093 110.24 9.52739 110.722 9.52739Z" fill="white"/>
</g>
<defs>
<clipPath id="clip0_4_2513">
<rect width="112" height="28" fill="white" transform="translate(0.291992 0.878418)"/>
</clipPath>
</defs>
</svg>
