<svg width="118" height="29" viewBox="0 0 118 29" fill="none" xmlns="http://www.w3.org/2000/svg">
<g clip-path="url(#clip0_4_2517)">
<path d="M38.6978 8.66586C38.6452 9.40443 38.3751 9.98616 37.8875 10.4111C37.4002 10.8349 36.7579 11.0468 35.9606 11.0468C35.0886 11.0468 34.4031 10.7506 33.904 10.158C33.4038 9.5662 33.1538 8.75295 33.1538 7.71829V7.29816C33.1538 6.63832 33.2691 6.0568 33.4995 5.55351C33.73 5.05087 34.0592 4.66525 34.4869 4.39661C34.9153 4.12732 35.4129 3.99284 35.9798 3.99316C36.764 3.99316 37.3961 4.20543 37.8762 4.62995C38.3552 5.05382 38.6324 5.64942 38.7077 6.41675H37.3065C37.272 5.97364 37.1497 5.65218 36.9395 5.4525C36.7292 5.25316 36.4092 5.15349 35.9798 5.15349C35.5126 5.15349 35.1631 5.32228 34.9313 5.65987C34.6992 5.99813 34.58 6.52231 34.5737 7.23247V7.75114C34.5737 8.49297 34.685 9.03517 34.9076 9.3776C35.1305 9.72075 35.4817 9.89218 35.9611 9.89184C36.3938 9.89184 36.7168 9.79221 36.9302 9.59283C37.1436 9.39286 37.2657 9.08402 37.2966 8.66632L38.6978 8.66586ZM45.9328 7.67562C45.9328 8.35213 45.8145 8.94465 45.578 9.45312C45.3414 9.96259 45.0029 10.3556 44.562 10.6321C44.1215 10.9086 43.6167 11.0468 43.0467 11.0468C42.4833 11.0468 41.9802 10.9102 41.5376 10.637C41.096 10.3631 40.7536 9.97254 40.5103 9.4654C40.2673 8.95785 40.1444 8.3737 40.1414 7.7129V7.37368C40.1414 6.69783 40.262 6.10302 40.5034 5.58929C40.7447 5.07555 41.0858 4.68094 41.5267 4.40544C41.9672 4.13092 42.4708 3.99349 43.0375 3.99316C43.6042 3.99316 44.1077 4.13059 44.5486 4.40544C44.9891 4.68094 45.3297 5.07555 45.5708 5.58929C45.8128 6.10302 45.9336 6.69621 45.9336 7.36875L45.9328 7.67562ZM44.5135 7.36436C44.5135 6.64438 44.3861 6.09747 44.1307 5.7236C43.8754 5.34941 43.511 5.16231 43.0375 5.16231C42.5673 5.16231 42.2042 5.34698 41.9488 5.71625C41.6934 6.08555 41.5644 6.62725 41.5617 7.34129V7.67612C41.5617 8.37712 41.6893 8.92074 41.9446 9.30706C42.1996 9.694 42.5669 9.88745 43.0467 9.88745C43.5164 9.88745 43.8779 9.70119 44.1307 9.32862C44.3827 8.9561 44.5102 8.4129 44.5135 7.69915V7.36436ZM49.1695 10.9527H47.7686V4.08729H49.1695V10.9527ZM56.7274 10.9527H55.3257L52.5984 6.43589V10.9527H51.1972V4.08729H52.5984L55.3307 8.61391V4.08729H56.7274V10.9527ZM63.6643 5.23339H61.581V10.9527H60.1797V5.23339H58.1249V4.08729H63.6643V5.23339ZM69.2831 7.9776H66.5934V9.81637H69.7499V10.9527H65.1917V4.08729H69.7411V5.23339H66.5934V6.86922H69.2831V7.9776ZM72.7024 9.81637H75.6775V10.9527H71.3016V4.08729H72.7024V9.81637ZM81.3018 7.9771H78.6117V9.81637H81.7682V10.9527H77.2104V4.08729H81.7594V5.23339H78.6117V6.86922H81.3018V7.9771ZM88.7005 10.085C88.448 10.3899 88.0916 10.6264 87.6306 10.7943C87.1701 10.9629 86.6598 11.0473 86.0981 11.0473C85.5101 11.0473 84.994 10.9175 84.5502 10.6581C84.1064 10.3986 83.7637 10.0221 83.523 9.52859C83.281 9.03517 83.1577 8.45523 83.1514 7.78887V7.32169C83.1514 6.63636 83.266 6.04322 83.4954 5.54223C83.7236 5.04091 84.0537 4.6574 84.4846 4.39171C84.9163 4.12602 85.4215 3.99316 86.0008 3.99316C86.8073 3.99316 87.438 4.18729 87.8922 4.57554C88.3473 4.96379 88.6165 5.52881 88.7005 6.27069H87.3364C87.2741 5.87752 87.1362 5.58995 86.9235 5.40791C86.71 5.22558 86.4166 5.13439 86.043 5.13439C85.5657 5.13439 85.2034 5.31509 84.9543 5.67655C84.7057 6.038 84.579 6.5756 84.5757 7.28935V7.72761C84.5757 8.44754 84.7111 8.99137 84.9819 9.35901C85.2531 9.72664 85.6501 9.91052 86.1734 9.91052C86.6995 9.91052 87.0748 9.79744 87.2992 9.57126V8.38791H86.0246V7.34572H88.7005V10.085ZM93.0818 8.43985H91.966V10.9527H90.5643V4.08729H93.0914C93.8943 4.08729 94.5144 4.26818 94.9499 4.62995C95.3858 4.99107 95.6039 5.50169 95.6039 6.16186C95.6039 6.63051 95.5032 7.02105 95.3022 7.33348C95.102 7.64653 94.7974 7.89573 94.3895 8.08108L95.8609 10.8865V10.9527H94.3565L93.0818 8.43985ZM91.966 7.29378H93.0956C93.4475 7.29378 93.7196 7.20338 93.9131 7.02268C94.1065 6.8416 94.2031 6.59244 94.2031 6.27508C94.2031 5.95157 94.112 5.69698 93.9298 5.51135C93.7471 5.32604 93.4676 5.23339 93.0914 5.23339H91.9652L91.966 7.29378ZM101.237 9.53791H98.78L98.3132 10.9527H96.8234L99.3551 4.08729H100.654L103.199 10.9527H101.709L101.237 9.53791ZM99.1587 8.3928H100.859L100.005 5.82215L99.1587 8.3928ZM105.964 8.53401V10.9527H104.563V4.08729H107.216C107.727 4.08729 108.176 4.18174 108.563 4.37063C108.951 4.55887 109.249 4.82685 109.458 5.17459C109.667 5.52163 109.771 5.91693 109.771 6.36041C109.771 7.03296 109.543 7.5632 109.087 7.95115C108.63 8.34001 107.999 8.5343 107.192 8.53401H105.964ZM105.964 7.38789H107.216C107.586 7.38789 107.869 7.29996 108.064 7.12415C108.258 6.94766 108.356 6.69621 108.356 6.36969C108.356 6.03311 108.257 5.76105 108.061 5.55351C107.865 5.34665 107.594 5.23995 107.249 5.23339H105.964V7.38789ZM116.997 10.9527H115.595V8.01045H112.863V10.9527H111.461V4.08729H112.863V6.86922H115.595V4.08729H116.997V10.9527Z" fill="white"/>
<path d="M36.9223 17.0116H35.4408V21.072H34.6221V17.0116H33.1538V16.3503H36.9223V17.0116ZM38.5173 17.9459C38.6366 17.8026 38.7869 17.688 38.957 17.6105C39.1271 17.533 39.3126 17.4947 39.4998 17.4984C40.2526 17.4984 40.6341 17.9254 40.6439 18.7793V21.072H39.8519V18.8088C39.8519 18.5666 39.7993 18.3952 39.694 18.2945C39.5879 18.1942 39.4326 18.144 39.2285 18.144C38.9108 18.144 38.6738 18.2844 38.5173 18.5651V21.072H37.7242V16.091H38.5173V17.9459ZM43.2679 21.1367C42.7651 21.1367 42.3581 20.9796 42.0455 20.6652C41.7336 20.3505 41.5775 19.9317 41.5775 19.4088V19.3112C41.5775 18.9609 41.6456 18.6479 41.7818 18.3725C41.9072 18.1085 42.1057 17.8853 42.3539 17.7288C42.6001 17.5751 42.8855 17.4951 43.1764 17.4984C43.657 17.4984 44.0281 17.6507 44.2905 17.9553C44.5521 18.2605 44.6834 18.6919 44.6838 19.2494V19.5676H42.3765C42.4007 19.8571 42.4985 20.0862 42.669 20.2549C42.8395 20.4235 43.0543 20.5078 43.313 20.5078C43.6766 20.5078 43.9725 20.3617 44.2007 20.0696L44.6286 20.4755C44.4865 20.6854 44.2909 20.854 44.0619 20.9637C43.8141 21.0816 43.5425 21.1409 43.2679 21.1367ZM43.173 18.1303C42.9553 18.1303 42.7798 18.2061 42.6465 18.3577C42.5123 18.5087 42.4271 18.7195 42.3899 18.9901H43.9002V18.9313C43.8831 18.6679 43.8128 18.4686 43.6883 18.3332C43.5642 18.198 43.3924 18.1303 43.173 18.1303ZM47.7759 21.072V18.147H47.2376V17.5631H47.7759V17.242C47.7759 16.8528 47.885 16.5523 48.1023 16.3406C48.32 16.1288 48.6242 16.0229 49.0158 16.0229C49.1554 16.0229 49.3034 16.0423 49.4597 16.0812L49.44 16.6974C49.3401 16.6784 49.2386 16.6697 49.1366 16.6714C48.7584 16.6714 48.5691 16.8649 48.5695 17.2518V17.5631H49.2862V18.147H48.5691V21.072H47.7759ZM52.2718 20.7289C52.039 21.0008 51.7084 21.1367 51.2797 21.1367C50.8964 21.1367 50.6068 21.0255 50.4108 20.8029C50.2136 20.5807 50.1154 20.2585 50.1154 19.8362V17.5631H50.9081V19.8264C50.9081 20.2722 51.0941 20.4951 51.466 20.4951C51.8509 20.4951 52.1109 20.3578 52.2454 20.0833V17.5631H53.0382V21.072H52.291L52.2718 20.7289ZM55.1069 16.7101V17.5631H55.7304V18.147H55.1069V20.1054C55.1069 20.2397 55.1336 20.3366 55.1867 20.396C55.2402 20.4549 55.3355 20.4845 55.4721 20.4847C55.5641 20.4847 55.6564 20.474 55.7496 20.4524V21.0623C55.5799 21.1108 55.404 21.1358 55.2277 21.1367C54.6188 21.1367 54.3141 20.8028 54.3141 20.1347V18.147H53.7332V17.5631H54.3137V16.7106L55.1069 16.7101ZM58.741 20.7289C58.5083 21.0015 58.1777 21.1376 57.7493 21.1372C57.3661 21.1372 57.0765 21.026 56.8797 20.8034C56.6824 20.5812 56.5842 20.259 56.5846 19.8367V17.5636H57.3774V19.827C57.3774 20.2727 57.5634 20.4955 57.9353 20.4955C58.3198 20.4955 58.5797 20.3583 58.7151 20.0838V17.5636H59.5079V21.0726H58.7611L58.741 20.7289ZM62.4312 18.2837C62.3246 18.2663 62.2164 18.2576 62.1081 18.2577C61.745 18.2577 61.5001 18.3962 61.3739 18.6729V21.0726H60.5811V17.5636H61.3383L61.3576 17.9558C61.5494 17.6512 61.8148 17.4989 62.1537 17.4989C62.2665 17.4989 62.3601 17.5139 62.4341 17.544L62.4312 18.2837ZM64.6921 21.1372C64.1893 21.1372 63.7819 20.9801 63.4701 20.6657C63.1583 20.3509 63.002 19.9321 63.002 19.4093V19.3117C63.002 18.9614 63.0697 18.6484 63.2056 18.373C63.3314 18.1089 63.5299 17.8857 63.7781 17.7293C64.0242 17.5757 64.3097 17.4957 64.6001 17.4989C65.0811 17.4989 65.4527 17.6512 65.7143 17.9558C65.9763 18.261 66.1075 18.6925 66.1079 19.2499V19.5681H63.8007C63.8253 19.8576 63.9227 20.0867 64.0932 20.2553C64.2641 20.424 64.4785 20.5083 64.7372 20.5083C65.1008 20.5083 65.3967 20.3623 65.6253 20.0701L66.0528 20.476C65.9111 20.6859 65.7151 20.8545 65.4861 20.9642C65.2383 21.0822 64.9666 21.1414 64.6921 21.1372ZM64.5972 18.1308C64.3795 18.1308 64.2039 18.2066 64.0706 18.3583C63.9369 18.5093 63.8512 18.72 63.814 18.9906H65.3244V18.9318C65.3072 18.6684 65.2366 18.469 65.1129 18.3337C64.9884 18.1988 64.8166 18.1311 64.5972 18.1308ZM68.7725 19.2853C68.7725 18.9414 68.8411 18.6318 68.9782 18.3563C69.104 18.0928 69.3046 17.8717 69.5561 17.7205C69.8039 17.5725 70.089 17.4984 70.4108 17.4984C70.8872 17.4984 71.2737 17.6507 71.5709 17.9553C71.8676 18.2605 72.0285 18.665 72.0519 19.1686L72.0557 19.3534C72.0557 19.6992 71.9884 20.0083 71.8546 20.2808C71.7301 20.5434 71.5299 20.7634 71.28 20.9132C71.0314 21.0623 70.7434 21.1367 70.4179 21.1367C69.9193 21.1367 69.5206 20.972 69.2218 20.6426C68.9222 20.3126 68.7725 19.873 68.7725 19.324V19.2853ZM69.5657 19.3534C69.5657 19.7145 69.641 19.9972 69.7914 20.2014C69.9406 20.4057 70.15 20.5078 70.4179 20.5078C70.6849 20.5078 70.8926 20.4039 71.0418 20.1961C71.191 19.9892 71.2658 19.6856 71.2658 19.2853C71.2658 18.931 71.1889 18.65 71.0355 18.4421C70.8826 18.2342 70.674 18.1305 70.4108 18.1308C70.1521 18.1308 69.9469 18.2329 69.7943 18.4372C69.6418 18.6414 69.5657 18.9468 69.5657 19.3534ZM73.2726 21.072V18.147H72.7343V17.5631H73.2726V17.242C73.2726 16.8528 73.3813 16.5523 73.5986 16.3406C73.8163 16.1288 74.1205 16.0229 74.5121 16.0229C74.6517 16.0229 74.7992 16.0423 74.9564 16.0812L74.9363 16.6974C74.8368 16.6784 74.7353 16.6697 74.6329 16.6714C74.2547 16.6714 74.0654 16.8649 74.0654 17.2518V17.5631H74.7829V18.147H74.0654V21.072H73.2726ZM78.3063 17.5631L78.3289 17.9298C78.5771 17.6422 78.9161 17.4984 79.3469 17.4984C79.8183 17.4984 80.1418 17.678 80.3157 18.0372C80.5723 17.6777 80.9337 17.4981 81.3989 17.4984C81.7884 17.4984 82.0784 17.6055 82.2681 17.8195C82.4587 18.0332 82.5569 18.3487 82.5611 18.7661V21.072H81.7675V18.7891C81.7675 18.5663 81.7186 18.403 81.6208 18.2994C81.5234 18.1955 81.3608 18.1435 81.1352 18.1435C80.9542 18.1435 80.8071 18.1917 80.6926 18.2881C80.5764 18.3872 80.4928 18.5185 80.4531 18.6656L80.4565 21.0726H79.6633V18.7632C79.6528 18.3501 79.441 18.1435 79.0272 18.1435C78.7096 18.1435 78.4844 18.2723 78.3519 18.5298V21.072H77.5591V17.5631H78.3063ZM83.4939 19.2857C83.4939 18.9416 83.562 18.6318 83.6991 18.3563C83.8244 18.0928 84.0254 17.8718 84.277 17.7205C84.524 17.5725 84.809 17.4984 85.1317 17.4984C85.6081 17.4984 85.9946 17.6507 86.2909 17.9553C86.5876 18.2605 86.7485 18.665 86.7724 19.1686L86.7757 19.3534C86.7757 19.6992 86.7088 20.0083 86.5755 20.2808C86.451 20.5434 86.2508 20.7634 86.0001 20.9132C85.7518 21.0623 85.4639 21.1367 85.1379 21.1367C84.6402 21.1367 84.2411 20.972 83.9427 20.6426C83.6431 20.3126 83.4939 19.873 83.4939 19.324V19.2857ZM84.2866 19.3534C84.2866 19.7145 84.3619 19.9972 84.5115 20.2014C84.6615 20.4057 84.8705 20.5078 85.1379 20.5078C85.405 20.5078 85.6135 20.4039 85.7627 20.1961C85.9119 19.9892 85.9863 19.6856 85.9863 19.2853C85.9863 18.931 85.9098 18.65 85.7564 18.4421C85.6026 18.2342 85.3945 18.1305 85.1317 18.1308C84.8721 18.1308 84.6669 18.2329 84.5144 18.4372C84.3623 18.6414 84.2866 18.9468 84.2866 19.3534ZM88.4494 17.5631L88.472 17.9685C88.7332 17.6548 89.0755 17.4981 89.4996 17.4984C90.2348 17.4984 90.6092 17.9167 90.6222 18.7534V21.072H89.8294V18.7989C89.8294 18.5764 89.7813 18.4115 89.6839 18.3043C89.5878 18.1971 89.429 18.1435 89.2088 18.1435C88.8899 18.1435 88.6517 18.2873 88.495 18.5749V21.072H87.7022V17.5631H88.4494ZM93.2516 21.1367C92.7489 21.1367 92.3423 20.9796 92.0301 20.6652C91.7179 20.3505 91.562 19.9317 91.562 19.4088V19.3112C91.562 18.9609 91.6297 18.6479 91.7656 18.3725C91.8913 18.1083 92.0903 17.8851 92.3389 17.7288C92.5847 17.5753 92.8697 17.4953 93.1605 17.4984C93.6411 17.4984 94.0127 17.6507 94.2747 17.9553C94.5367 18.2605 94.6675 18.6919 94.6675 19.2494V19.5676H92.3607C92.3849 19.8571 92.4819 20.0862 92.6528 20.2549C92.8233 20.4235 93.0381 20.5078 93.2972 20.5078C93.6604 20.5078 93.9567 20.3617 94.1844 20.0696L94.6124 20.4755C94.4711 20.6854 94.2755 20.8539 94.0461 20.9637C93.7983 21.0819 93.5262 21.1411 93.2516 21.1367ZM93.1568 18.1303C92.9403 18.1303 92.7639 18.2061 92.6302 18.3577C92.4961 18.5087 92.4112 18.7195 92.374 18.9901H93.8848V18.9313C93.8677 18.6679 93.7962 18.4686 93.6729 18.3332C93.5484 18.198 93.3766 18.1303 93.1568 18.1303ZM96.7425 19.9436L97.46 17.5631H98.305L96.9021 21.6039C96.6865 22.1941 96.3212 22.4892 95.8063 22.4892C95.6764 22.487 95.5481 22.4674 95.4244 22.4309V21.8211L95.5748 21.8309C95.7746 21.8309 95.925 21.7948 96.0257 21.7226C96.1273 21.6497 96.2075 21.5281 96.2656 21.3579L96.3801 21.0559L95.1406 17.5631H95.9956L96.7425 19.9436ZM17.4111 21.1225L12.4368 23.2476V23.0348C11.4775 23.2761 10.4151 23.4152 9.40849 23.4599C4.73107 23.4152 1.01832 21.0098 0.974925 18.1475V17.0842C2.51122 19.2794 5.63907 20.75 9.40849 20.697C10.6844 20.75 11.9889 20.5519 13.0853 20.272L13.5179 19.2093C12.2177 19.5907 10.7983 19.8558 9.40904 19.8465C4.73108 19.8558 1.01832 17.4504 0.975414 14.5346V13.6846C2.51122 15.714 5.63213 17.1847 9.40904 17.0847C11.1081 17.1852 12.7696 16.8337 14.1664 16.2342L14.3833 15.1719C13.0182 15.8792 11.2491 16.2901 9.40904 16.2342C4.73108 16.2901 1.01832 13.8846 0.975414 10.9223V10.0718C2.51122 12.1483 5.63907 13.6194 9.40904 13.6846C11.5515 13.6194 13.583 13.063 15.2484 12.1968L15.4645 10.9217C13.9533 12.0223 11.7468 12.7316 9.40904 12.8341C4.73108 12.7316 1.01882 10.3257 0.975414 7.30941C1.01832 4.44069 4.73108 2.03474 9.40904 1.997C12.1975 2.03523 14.7873 2.99604 16.3295 4.54707L16.48 4.79266L17.5699 4.79756L17.4111 4.54707C15.8772 2.49946 12.8096 1.14746 9.40904 1.14746C4.23296 1.14746 0.109863 3.95049 0.109863 7.30991V18.3597C0.291851 21.6393 4.32073 24.3094 9.40904 24.3094C12.7696 24.3094 15.7899 23.0103 17.4111 21.1225Z" fill="white"/>
<path d="M15.3875 28.5994L17.1334 21.3075L12.1142 23.4522L15.17 10.7989H9.27637L10.8038 4.5791H29.5742L28.0463 10.7989H21.9356L20.6258 14.2304L27.3914 11.442L15.3875 28.5994ZM18.4434 19.806L17.5704 24.0953L24.7725 13.3725L18.8794 15.9461L21.4987 9.94107H27.3914L28.4828 5.43695H11.4582L10.3668 9.94107H16.2604L13.4226 21.9512L18.4428 19.807L18.4434 19.806Z" fill="white"/>
<path d="M47.7632 21.0795H48.5493V18.1412H49.2773V17.5696H48.5493V17.2323C48.5493 17.1091 48.5711 17.0053 48.6145 16.9211C48.6576 16.8384 48.7265 16.7714 48.8101 16.7299C48.8974 16.6841 49.0007 16.6612 49.1206 16.6612C49.1795 16.6612 49.2339 16.6635 49.2832 16.6681C49.3358 16.6723 49.3839 16.6798 49.4274 16.6907L49.447 16.0877C49.3743 16.068 49.2999 16.0539 49.2251 16.0456C49.1482 16.0341 49.0709 16.0287 48.9931 16.0294C48.7407 16.0294 48.5222 16.0757 48.3374 16.1686C48.1557 16.2561 48.006 16.3978 47.9095 16.574C47.8121 16.7514 47.7632 16.9709 47.7632 17.2323V17.5696H47.2212V18.1407H47.7632V21.0795ZM38.5198 17.973V16.098H37.7371V21.0795H38.5198V18.5746C38.5431 18.5301 38.5694 18.4882 38.5987 18.4491C38.6704 18.352 38.7594 18.2752 38.866 18.2187C38.9745 18.1628 39.0994 18.1348 39.2408 18.1348C39.376 18.1348 39.4902 18.1575 39.5836 18.2029C39.6773 18.2461 39.748 18.3173 39.7956 18.4167C39.846 18.5164 39.8711 18.6503 39.8711 18.8187V21.0795H40.6603V18.8255C40.6603 18.5853 40.6331 18.3821 40.5789 18.2157C40.536 18.0628 40.4565 17.9224 40.347 17.8069C40.2464 17.7013 40.121 17.6222 39.9821 17.5765C39.8305 17.5268 39.6716 17.5028 39.5121 17.5054C39.3217 17.5026 39.1332 17.5433 38.9611 17.6244C38.7891 17.7054 38.6381 17.8247 38.5198 17.973ZM35.4433 21.0795V17.0058H36.9347V16.3573H33.1528V17.0058H34.6309V21.0795H35.4433Z" fill="white"/>
<path fill-rule="evenodd" clip-rule="evenodd" d="M43.2738 21.1442C43.0318 21.1479 42.7911 21.1051 42.5654 21.0179C42.364 20.9358 42.1818 20.8133 42.0305 20.658C41.8834 20.5013 41.769 20.3173 41.6941 20.1163C41.6148 19.9012 41.5751 19.6738 41.5767 19.4447V19.3153C41.5767 19.0408 41.617 18.7921 41.6976 18.5692C41.7778 18.3467 41.8897 18.1565 42.0334 17.9986C42.1734 17.8404 42.3473 17.7151 42.5424 17.6319C42.7434 17.5464 42.9599 17.5034 43.1785 17.5054C43.4313 17.5054 43.652 17.5476 43.8413 17.6319C44.0302 17.7162 44.1869 17.8352 44.311 17.9888C44.4372 18.1401 44.5308 18.3207 44.5923 18.5305C44.6545 18.7403 44.6859 18.9716 44.6863 19.2246V19.5584H42.3702C42.3782 19.6693 42.3974 19.7741 42.4283 19.8732C42.4718 20.003 42.5349 20.1165 42.6172 20.2138C42.7004 20.311 42.8007 20.3877 42.9181 20.4442C43.0351 20.4982 43.1689 20.5251 43.3193 20.5251C43.5086 20.5251 43.677 20.4873 43.825 20.4114C43.9733 20.3356 44.1012 20.2286 44.2099 20.0903L44.624 20.4894C44.54 20.608 44.4401 20.7148 44.3273 20.807C44.2057 20.9067 44.0565 20.9878 43.8806 21.0502C43.6854 21.1163 43.4798 21.1482 43.2738 21.1442ZM42.4187 18.8256C42.4053 18.8823 42.3945 18.9395 42.3865 18.9972H43.9094V18.9359C43.9069 18.7999 43.8781 18.6657 43.825 18.5403C43.7782 18.4206 43.6979 18.3169 43.5935 18.2412C43.489 18.1661 43.3494 18.1285 43.1756 18.1285C43.0452 18.1285 42.9286 18.1565 42.8266 18.2123C42.7238 18.2688 42.6373 18.3502 42.575 18.4491C42.5027 18.5654 42.4501 18.6926 42.4187 18.8256Z" fill="white"/>
<path d="M51.8714 21.0248C52.0214 20.9532 52.1535 20.8499 52.2588 20.7218L52.2793 21.0797H53.0227V17.5703H52.2333V20.0889C52.1781 20.208 52.0912 20.3096 51.9817 20.3826C51.8534 20.4689 51.6775 20.512 51.4535 20.512C51.3783 20.5125 51.3035 20.5016 51.2316 20.4796C51.1626 20.4582 51.0995 20.4204 51.0485 20.3693C50.9925 20.3112 50.9503 20.2414 50.9248 20.1649C50.8918 20.0611 50.8764 19.9526 50.8789 19.8439V17.5703H50.0928V19.8375C50.0928 20.0688 50.1212 20.2679 50.1776 20.4346C50.234 20.6012 50.3134 20.7362 50.4158 20.8395C50.5199 20.9434 50.644 21.0202 50.7878 21.0698C50.9315 21.1195 51.0891 21.1444 51.2608 21.1444C51.4978 21.1444 51.7013 21.1045 51.8714 21.0248ZM55.7078 18.1414V17.5698H55.078V16.7104H54.2919V17.5698H53.7173V18.1408H54.2919V20.158C54.2919 20.3983 54.3308 20.5907 54.4094 20.7356C54.4875 20.8807 54.5962 20.9854 54.7358 21.0497C54.8749 21.1125 55.0346 21.1439 55.2151 21.1439C55.3263 21.1439 55.4241 21.1364 55.5089 21.1213C55.5958 21.1063 55.6719 21.089 55.7375 21.0694L55.7341 20.4728C55.6426 20.4912 55.5498 20.5011 55.4567 20.5022C55.381 20.5022 55.3146 20.4924 55.2573 20.4728C55.2005 20.4525 55.1528 20.412 55.124 20.3591C55.0931 20.3009 55.078 20.2176 55.078 20.1091V18.1408L55.7078 18.1414ZM58.3373 21.0248C58.4919 20.9496 58.6215 20.8486 58.7256 20.7218L58.7452 21.0797H59.4895V17.5703H58.7001V20.0889C58.6449 20.2079 58.5575 20.3095 58.4485 20.3826C58.3202 20.4689 58.1438 20.512 57.9198 20.512C57.8417 20.512 57.7677 20.5012 57.6979 20.4796C57.629 20.4581 57.5663 20.4204 57.5153 20.3693C57.4593 20.3113 57.4167 20.2414 57.3912 20.1649C57.3581 20.0611 57.3427 19.9526 57.3456 19.8439V17.5703H56.5591V19.8375C56.5591 20.0688 56.5875 20.2679 56.6439 20.4346C56.7004 20.6012 56.7798 20.7362 56.8822 20.8395C56.9866 20.9434 57.1107 21.0202 57.2545 21.0698C57.3978 21.1195 57.5554 21.1444 57.7276 21.1444C57.9645 21.1444 58.1681 21.1045 58.3373 21.0248ZM61.3454 18.6811V21.0797H60.5593V17.5703H61.3099L61.3321 17.9825L61.3454 17.9595C61.4349 17.817 61.546 17.7057 61.6785 17.6256C61.8131 17.5456 61.969 17.5055 62.1449 17.5055C62.193 17.5055 62.2439 17.5098 62.2983 17.5183C62.3551 17.5271 62.3973 17.5369 62.4257 17.5477L62.419 18.2742C62.3133 18.2572 62.2067 18.2485 62.0998 18.2482C61.9648 18.2482 61.8461 18.2678 61.7441 18.307C61.6547 18.338 61.5732 18.3873 61.5047 18.4517C61.4357 18.5162 61.3818 18.5943 61.3454 18.6811Z" fill="white"/>
<path fill-rule="evenodd" clip-rule="evenodd" d="M64.6703 21.1444C64.4091 21.1444 64.173 21.1023 63.962 21.0179C63.7605 20.936 63.5783 20.8134 63.427 20.6581C63.2799 20.5015 63.1654 20.3173 63.0906 20.1164C63.0112 19.9013 62.9715 19.6739 62.9732 19.4448V19.3154C62.9732 19.0409 63.0133 18.7922 63.094 18.5693C63.1742 18.3468 63.2862 18.1566 63.43 17.9988C63.5704 17.8404 63.7442 17.7152 63.9394 17.6321C64.1404 17.5465 64.3569 17.5035 64.5755 17.5056C64.8279 17.5056 65.0485 17.5477 65.2378 17.6321C65.4272 17.7163 65.5839 17.8354 65.708 17.9889C65.8338 18.1402 65.9274 18.3208 65.988 18.5306C66.0511 18.7404 66.0829 18.9718 66.0829 19.2247V19.5586H63.7668C63.7747 19.6693 63.794 19.7743 63.8249 19.8733C63.8684 20.003 63.9315 20.1166 64.0142 20.214C64.0965 20.311 64.1964 20.3878 64.3143 20.4444C64.4317 20.4983 64.5658 20.5253 64.7155 20.5253C64.891 20.5286 65.0648 20.4896 65.2215 20.4116C65.3695 20.3357 65.4978 20.2287 65.6064 20.0905L66.021 20.4894C65.937 20.6081 65.8371 20.715 65.7243 20.8071C65.5901 20.9133 65.4389 20.9956 65.2767 21.0503C65.0816 21.1165 64.8764 21.1483 64.6703 21.1444ZM63.8153 18.8257C63.8019 18.8824 63.791 18.9397 63.7831 18.9972H65.3064V18.936C65.3035 18.8 65.2746 18.6658 65.2215 18.5404C65.1747 18.4208 65.0941 18.317 64.99 18.2414C64.8851 18.1662 64.746 18.1286 64.5721 18.1286C64.4417 18.1286 64.3251 18.1566 64.2227 18.2124C64.1224 18.2667 64.0389 18.3456 63.972 18.4492C63.8989 18.5652 63.8458 18.6924 63.8153 18.8257ZM68.7316 19.2895V19.3639C68.7316 19.6169 68.7688 19.8515 68.8427 20.0679C68.9167 20.2836 69.0245 20.4728 69.1658 20.6356C69.3075 20.7957 69.4784 20.921 69.6811 21.0116C69.8858 21.1001 70.1178 21.1444 70.3761 21.1444C70.6331 21.1444 70.8621 21.1002 71.0652 21.0121C71.267 20.9208 71.4388 20.7954 71.5805 20.6356C71.7247 20.4693 71.8346 20.2764 71.9035 20.0679C71.9775 19.8515 72.0147 19.6169 72.0147 19.3639V19.2895C72.0147 19.0365 71.9775 18.8019 71.9035 18.5855C71.835 18.3767 71.7255 18.1837 71.5805 18.0178C71.438 17.855 71.2608 17.7265 71.0619 17.6418C70.8429 17.5482 70.6076 17.5017 70.3694 17.5056C70.1132 17.5056 69.8825 17.551 69.6781 17.6418C69.4759 17.7304 69.3037 17.8557 69.1624 18.0178C69.0191 18.1843 68.9104 18.3772 68.8427 18.5855C68.7688 18.8019 68.7316 19.0365 68.7316 19.2895ZM69.5185 19.3639V19.2895C69.5185 19.1335 69.5344 18.9865 69.567 18.8483C69.5967 18.7162 69.6485 18.5902 69.7204 18.4757C69.7901 18.3675 69.8783 18.283 69.9849 18.2223C70.0931 18.1595 70.2214 18.1281 70.3694 18.1281C70.5177 18.1281 70.6448 18.1595 70.7509 18.2223C70.8604 18.283 70.9498 18.3674 71.0192 18.4752C71.0907 18.583 71.1433 18.7074 71.1759 18.8483C71.2102 18.9865 71.2273 19.1335 71.2273 19.2895V19.3639C71.2273 19.5218 71.2102 19.671 71.1759 19.8115C71.1433 19.952 71.0924 20.0753 71.0226 20.1812C70.9557 20.285 70.8629 20.3709 70.7547 20.4311C70.6393 20.4944 70.509 20.5257 70.3761 20.5219C70.2264 20.5219 70.0965 20.4916 69.9882 20.4311C69.8796 20.3708 69.7881 20.2849 69.7204 20.1812C69.6476 20.068 69.5958 19.9428 69.567 19.8115C69.534 19.6646 69.5173 19.5145 69.5185 19.3639Z" fill="white"/>
<path d="M73.9976 21.0794H73.2111V18.1411H72.6699V17.5695H73.2111V17.2323C73.2111 16.9708 73.26 16.7514 73.3582 16.5739C73.4585 16.3941 73.6014 16.259 73.7857 16.1685C73.9705 16.0754 74.1894 16.029 74.4414 16.0293C74.5196 16.0293 74.5969 16.0346 74.673 16.0454C74.7494 16.054 74.8234 16.068 74.8953 16.0876L74.8761 16.6906C74.8284 16.6796 74.7804 16.672 74.7315 16.668C74.6776 16.6636 74.6232 16.6615 74.5693 16.6616C74.449 16.6616 74.3457 16.6844 74.2584 16.7298C74.1752 16.7719 74.1067 16.8387 74.0632 16.921C74.0168 17.0182 73.9947 17.1248 73.9976 17.2323V17.5695H74.7252V18.1406H73.9976V21.0794ZM78.2682 18.5568V21.0794H77.4817V17.57H78.2227L78.2474 17.9656C78.3627 17.8218 78.5035 17.7107 78.6694 17.6323C78.8462 17.5473 79.0497 17.505 79.2796 17.5053C79.4413 17.5053 79.5876 17.5291 79.7201 17.5769C79.8555 17.622 79.9717 17.6944 80.0694 17.7941C80.1422 17.866 80.2023 17.9531 80.25 18.0553C80.2705 18.026 80.2918 17.9971 80.3139 17.969C80.4322 17.8242 80.5764 17.7107 80.7481 17.6284C80.9333 17.5429 81.1351 17.5008 81.3395 17.5053C81.5196 17.5053 81.6805 17.5301 81.8222 17.5798C81.9655 17.6276 82.0871 17.7032 82.1874 17.8068C82.2873 17.9104 82.3634 18.0455 82.416 18.2122C82.4683 18.3766 82.4937 18.5756 82.4937 18.8093V21.0794H81.7047V18.8059C81.7047 18.6284 81.6784 18.4911 81.6257 18.394C81.5823 18.3024 81.505 18.2306 81.4105 18.193C81.3165 18.1539 81.2049 18.1342 81.0749 18.1342C80.9525 18.1342 80.8451 18.1571 80.7519 18.2029C80.6608 18.2456 80.5814 18.3089 80.52 18.3877C80.4568 18.4663 80.4088 18.5557 80.3774 18.6514C80.3791 18.6808 80.3795 18.7107 80.3795 18.7411V21.0794H79.593V18.8097C79.593 18.6388 79.5671 18.5048 79.5145 18.4078C79.4697 18.3147 79.3916 18.241 79.2963 18.1999C79.1906 18.1541 79.0752 18.132 78.9599 18.1352C78.8124 18.1352 78.6857 18.1633 78.5817 18.2195C78.4801 18.2751 78.3936 18.3542 78.3301 18.4499C78.3067 18.4839 78.2866 18.5195 78.2682 18.5568Z" fill="white"/>
<path fill-rule="evenodd" clip-rule="evenodd" d="M83.4142 19.3639V19.2895C83.4142 19.0365 83.451 18.8019 83.5249 18.5855C83.5985 18.3675 83.7059 18.1783 83.8446 18.0178C83.9855 17.8555 84.1622 17.7269 84.3603 17.6418C84.5785 17.5482 84.8138 17.5017 85.052 17.5056C85.3111 17.5056 85.5418 17.551 85.744 17.6418C85.9484 17.7304 86.121 17.8557 86.2627 18.0178C86.4039 18.1779 86.5117 18.3672 86.5857 18.5855C86.6597 18.8019 86.6969 19.0365 86.6969 19.2895V19.3639C86.6969 19.6169 86.6597 19.8515 86.5857 20.0679C86.5117 20.2836 86.4039 20.4728 86.2627 20.6356C86.1201 20.7968 85.9442 20.9251 85.7465 21.0116C85.5443 21.1001 85.3153 21.1444 85.0582 21.1444C84.82 21.1484 84.5831 21.1034 84.3637 21.0121C84.1664 20.9254 83.9901 20.7969 83.848 20.6356C83.7038 20.4693 83.5939 20.2764 83.5249 20.0679C83.4489 19.841 83.4117 19.6031 83.4142 19.3639ZM84.2003 19.2895V19.3639C84.2003 19.5218 84.2166 19.671 84.2492 19.8115C84.2822 19.952 84.3332 20.0753 84.4025 20.1812C84.4719 20.2873 84.5613 20.3707 84.6704 20.4311C84.7787 20.4916 84.9078 20.5219 85.0582 20.5219C85.2041 20.5219 85.3303 20.4916 85.4373 20.4311C85.5451 20.3708 85.637 20.2849 85.7047 20.1812C85.777 20.068 85.8297 19.9428 85.8577 19.8115C85.8924 19.671 85.9104 19.5218 85.9104 19.3639V19.2895C85.9104 19.1335 85.8924 18.9865 85.8577 18.8483C85.8289 18.7157 85.7758 18.5895 85.701 18.4757C85.6354 18.37 85.543 18.2828 85.4339 18.2223C85.3173 18.1572 85.1853 18.1247 85.052 18.1281C84.9036 18.1281 84.7757 18.1595 84.6667 18.2223C84.5593 18.2838 84.4686 18.3707 84.4025 18.4752C84.3332 18.583 84.2822 18.7074 84.2492 18.8483C84.2161 18.993 84.1994 19.141 84.2003 19.2895Z" fill="white"/>
<path d="M88.3964 18.5859V21.0796H87.6099V17.5702H88.3508L88.3763 17.9932L88.3926 17.9726C88.513 17.8263 88.6647 17.7086 88.8369 17.6285C89.0161 17.5448 89.213 17.5027 89.4111 17.5055C89.5803 17.5055 89.7345 17.5294 89.8712 17.5771C90.0103 17.6221 90.1294 17.6967 90.2268 17.8006C90.3267 17.9046 90.4036 18.0397 90.4558 18.206C90.5077 18.3704 90.5331 18.5726 90.5331 18.8124V21.0796H89.7441V18.8099C89.7441 18.6413 89.7191 18.5083 89.6689 18.4109C89.6267 18.3171 89.5515 18.242 89.4566 18.2002C89.3492 18.1534 89.2318 18.1313 89.1143 18.1354C88.9789 18.1354 88.859 18.1635 88.7516 18.2197C88.6454 18.2757 88.5535 18.3544 88.4812 18.4502C88.4499 18.4927 88.4219 18.5379 88.3964 18.5859Z" fill="white"/>
<path fill-rule="evenodd" clip-rule="evenodd" d="M93.1532 21.1442C92.9108 21.1479 92.6705 21.105 92.4457 21.0179C92.2438 20.9358 92.0616 20.8133 91.9104 20.658C91.7632 20.5013 91.6487 20.3173 91.5735 20.1163C91.4945 19.9012 91.4548 19.6738 91.4561 19.4447V19.3153C91.4561 19.0408 91.4966 18.7921 91.5769 18.5692C91.6575 18.3467 91.7695 18.1565 91.9133 17.9986C92.0533 17.8404 92.2271 17.7151 92.4219 17.6319C92.6229 17.5464 92.8398 17.5034 93.0579 17.5054C93.3108 17.5054 93.5314 17.5476 93.7207 17.6319C93.9101 17.7162 94.0668 17.8352 94.1905 17.9888C94.3167 18.1401 94.4107 18.3207 94.4713 18.5305C94.534 18.7403 94.5658 18.9716 94.5658 19.2246V19.5584H92.2501C92.2576 19.6693 92.2769 19.7741 92.3082 19.8732C92.3517 20.003 92.4144 20.1165 92.4971 20.2138C92.5803 20.311 92.6801 20.3877 92.7976 20.4442C92.915 20.4982 93.0483 20.5251 93.1988 20.5251C93.3881 20.5251 93.5565 20.4873 93.704 20.4114C93.852 20.3356 93.9803 20.2286 94.0893 20.0903L94.5039 20.4894C94.4195 20.608 94.3196 20.7148 94.2068 20.807C94.073 20.9131 93.9218 20.9954 93.76 21.0502C93.5649 21.1164 93.3588 21.1482 93.1532 21.1442ZM92.2986 18.8256C92.2852 18.8823 92.2744 18.9395 92.266 18.9972H93.7893V18.9359C93.7864 18.7999 93.7575 18.6656 93.704 18.5403C93.6572 18.4207 93.577 18.3169 93.4729 18.2412C93.3689 18.1661 93.2293 18.1285 93.055 18.1285C92.9246 18.1285 92.808 18.1565 92.7056 18.2123C92.6058 18.2666 92.5222 18.3455 92.4545 18.4491C92.3826 18.5654 92.3295 18.6926 92.2986 18.8256Z" fill="white"/>
<path d="M96.2793 21.0704L95.0293 17.5703H95.8772L96.6433 19.9674L97.3784 17.5703H98.22L96.8042 21.6145C96.7666 21.7106 96.7248 21.8047 96.6771 21.8964C96.6224 22.0018 96.5534 22.0992 96.4711 22.1856C96.3883 22.2784 96.2855 22.353 96.1618 22.4092C96.0377 22.4673 95.8868 22.4965 95.7117 22.4965C95.642 22.4965 95.5743 22.4899 95.5086 22.4768C95.4485 22.4666 95.3887 22.4549 95.3289 22.4416L95.3264 21.8445C95.3783 21.8491 95.4305 21.8524 95.4823 21.8542C95.5935 21.8574 95.7042 21.841 95.8091 21.8057C95.8931 21.7782 95.9671 21.7263 96.021 21.6567C96.0774 21.5874 96.1251 21.4943 96.1648 21.3773L96.2793 21.0704Z" fill="white"/>
</g>
<defs>
<clipPath id="clip0_4_2517">
<rect width="117.015" height="28" fill="white" transform="translate(0.109863 0.878418)"/>
</clipPath>
</defs>
</svg>
