<svg width="30" height="29" viewBox="0 0 30 29" fill="none" xmlns="http://www.w3.org/2000/svg">
<g clip-path="url(#clip0_4_2534)">
<path fill-rule="evenodd" clip-rule="evenodd" d="M14.4301 0.878418C22.0619 0.878418 28.2473 7.05147 28.2473 14.6676C28.2473 22.2836 22.0608 28.4567 14.4301 28.4567C6.79931 28.4567 0.612793 22.2836 0.612793 14.6676C0.612793 7.05147 6.79821 0.878418 14.4301 0.878418ZM5.90907 18.6771C5.90907 18.1953 6.29965 17.8058 6.7814 17.8058C7.26322 17.8058 7.65379 18.1953 7.65379 18.6771C7.65379 19.1589 7.26322 19.5483 6.7814 19.5483C6.29965 19.5483 5.90907 19.1589 5.90907 18.6771ZM26.0513 14.6687C26.0592 17.7484 24.8334 20.7022 22.6474 22.8701L22.6463 22.869C20.4512 25.0584 17.5336 26.2651 14.4291 26.2651C11.3459 26.274 8.38771 25.0516 6.21184 22.869C4.01684 20.6785 2.8079 17.7653 2.8079 14.6687C2.80002 11.5901 4.02585 8.63637 6.21184 6.46838C9.07323 3.61149 13.031 2.47909 17.0709 3.35934L17.1013 3.3661C17.3343 3.42576 17.475 3.66327 17.4154 3.89627C17.3557 4.12928 17.1182 4.26999 16.8852 4.21033C13.1424 3.39536 9.47733 4.44222 6.8298 7.08412C4.80817 9.08886 3.67465 11.8208 3.6814 14.6687C3.67465 17.5165 4.80817 20.2485 6.8298 22.2532C8.84358 24.2727 11.5789 25.4028 14.4302 25.395C17.2814 25.4039 20.0179 24.2727 22.0305 22.2532C24.0522 20.2485 25.1857 17.5165 25.1789 14.6687C25.17 11.7994 24.0184 9.05283 21.9799 7.03345H21.9788C21.8087 6.86461 21.8076 6.58883 21.9765 6.41883C22.1464 6.24776 22.4223 6.2466 22.5933 6.41544C24.7906 8.58233 26.0513 11.5912 26.0513 14.6687ZM18.9462 4.88571C18.9462 4.40507 19.3369 4.01447 19.8197 4.01447L19.8175 4.0156H19.8873C20.368 4.03473 20.7428 4.43996 20.7237 4.92061C20.7045 5.40126 20.2993 5.7761 19.8186 5.75696C19.3369 5.75696 18.9462 5.36637 18.9462 4.88571ZM20.843 8.26714C24.3797 11.7971 24.3797 17.5402 20.843 21.0702L20.8407 21.0691C19.1263 22.7812 16.8503 23.7211 14.4279 23.7211H14.3468C11.9121 23.7076 9.58542 22.7103 7.89808 20.9554C7.74947 20.7866 7.75396 20.5321 7.90817 20.369C8.07368 20.1933 8.34946 20.1843 8.52507 20.3498C10.0503 21.937 12.153 22.8386 14.3536 22.851H14.4279C16.6026 22.8577 18.6896 21.9955 20.2238 20.4545C23.4207 17.2644 23.4207 12.0729 20.2238 8.88288C17.0259 5.69168 11.8243 5.69168 8.62745 8.88288C6.66095 10.8392 5.82462 13.6612 6.40657 16.374C6.43811 16.5913 6.30303 16.7984 6.09139 16.8581C5.85952 16.9222 5.61863 16.7871 5.55335 16.5541C4.90948 13.5532 5.83588 10.4318 8.01177 8.26714C11.5496 4.73713 17.3062 4.73713 20.843 8.26714ZM8.23577 14.6676C8.23577 18.0737 11.0127 20.8451 14.4257 20.8451V20.8428C16.4743 20.844 18.389 19.832 19.544 18.1413C19.8603 17.6775 19.741 17.046 19.2761 16.7297C18.8112 16.4135 18.1786 16.5339 17.8611 16.9976C17.0867 18.1334 15.8001 18.8122 14.4257 18.8122C12.1361 18.8122 10.2721 16.9515 10.2721 14.6664C10.2721 12.3814 12.135 10.5207 14.4257 10.5207C15.8001 10.5207 17.0867 11.1994 17.8611 12.3352C18.1786 12.799 18.8112 12.9194 19.2761 12.6031C19.741 12.2879 19.8614 11.6554 19.544 11.1916C18.389 9.50083 16.4732 8.49003 14.4257 8.49003C11.0127 8.49003 8.23577 11.2613 8.23577 14.6676Z" fill="white"/>
</g>
<defs>
<clipPath id="clip0_4_2534">
<rect width="137.887" height="28" fill="white" transform="translate(0.612793 0.878418)"/>
</clipPath>
</defs>
</svg>
