<svg width="195" height="23" viewBox="0 0 195 23" fill="none" xmlns="http://www.w3.org/2000/svg">
<g opacity="0.6">
<path d="M6.88757 22.2646H9.01917L2.62432 0.985352H0.492676L6.88757 22.2646Z" fill="#00B2B9"/>
</g>
<g opacity="0.6">
<path d="M12.5716 22.2646H14.4664L8.07154 0.985352H6.17676L12.5716 22.2646Z" fill="#00B2B9"/>
</g>
<g opacity="0.6">
<path d="M18.0194 22.2646H19.9141L13.5193 0.985352H11.6245L18.0194 22.2646Z" fill="#00B2B9"/>
</g>
<g opacity="0.6">
<path d="M23.4667 22.2646H25.5983L19.2034 0.985352H17.0718L23.4667 22.2646Z" fill="#00B2B9"/>
</g>
<g opacity="0.6">
<path d="M28.9143 22.2646H31.046L24.6511 0.985352H22.7563L28.9143 22.2646Z" fill="#00B2B9"/>
</g>
<g opacity="0.6">
<path d="M34.5985 22.2646H36.4932L30.0984 0.985352H28.2036L34.5985 22.2646Z" fill="#00B2B9"/>
</g>
<g opacity="0.6">
<path d="M40.0458 22.2646H41.9405L35.7825 0.985352H33.6509L40.0458 22.2646Z" fill="#00B2B9"/>
</g>
<g opacity="0.6">
<path d="M45.8798 22.2646H48.0114L41.6165 0.985352H39.4849L45.8798 22.2646Z" fill="#9A1EFB"/>
</g>
<g opacity="0.6">
<path d="M51.5638 22.2646H53.4586L47.0637 0.985352H45.1689L51.5638 22.2646Z" fill="#9A1EFB"/>
</g>
<g opacity="0.6">
<path d="M57.0116 22.2646H58.9063L52.5114 0.985352H50.6167L57.0116 22.2646Z" fill="#9A1EFB"/>
</g>
<g opacity="0.6">
<path d="M62.4589 22.2646H64.5905L58.1956 0.985352H56.064L62.4589 22.2646Z" fill="#9A1EFB"/>
</g>
<g opacity="0.6">
<path d="M67.9065 22.2646H70.0382L63.6433 0.985352H61.7485L67.9065 22.2646Z" fill="#9A1EFB"/>
</g>
<g opacity="0.6">
<path d="M73.5907 22.2646H75.4854L69.0905 0.985352H67.1958L73.5907 22.2646Z" fill="#9A1EFB"/>
</g>
<g opacity="0.6">
<path d="M79.038 22.2646H80.9327L74.7747 0.985352H72.6431L79.038 22.2646Z" fill="#9A1EFB"/>
</g>
<g opacity="0.6">
<path d="M83.5892 22.2646H85.7208L79.326 0.985352H77.1943L83.5892 22.2646Z" fill="url(#paint0_linear_4_1414)"/>
</g>
<g opacity="0.6">
<path d="M89.2733 22.2646H91.1681L84.7732 0.985352H82.8784L89.2733 22.2646Z" fill="url(#paint1_linear_4_1414)"/>
</g>
<g opacity="0.6">
<path d="M94.721 22.2646H96.6158L90.2209 0.985352H88.3262L94.721 22.2646Z" fill="url(#paint2_linear_4_1414)"/>
</g>
<g opacity="0.6">
<path d="M100.168 22.2646H102.3L95.9051 0.985352H93.7734L100.168 22.2646Z" fill="url(#paint3_linear_4_1414)"/>
</g>
<g opacity="0.6">
<path d="M105.616 22.2646H107.748L101.353 0.985352H99.458L105.616 22.2646Z" fill="url(#paint4_linear_4_1414)"/>
</g>
<g opacity="0.6">
<path d="M111.3 22.2646H113.195L106.8 0.985352H104.905L111.3 22.2646Z" fill="url(#paint5_linear_4_1414)"/>
</g>
<g opacity="0.6">
<path d="M116.747 22.2646H118.642L112.484 0.985352H110.353L116.747 22.2646Z" fill="url(#paint6_linear_4_1414)"/>
</g>
<g opacity="0.6">
<path d="M121.299 22.2646H123.43L117.035 0.985352H114.904L121.299 22.2646Z" fill="#00B2B9"/>
</g>
<g opacity="0.6">
<path d="M126.983 22.2646H128.878L122.483 0.985352H120.588L126.983 22.2646Z" fill="#00B2B9"/>
</g>
<g opacity="0.6">
<path d="M132.43 22.2646H134.325L127.93 0.985352H126.035L132.43 22.2646Z" fill="#00B2B9"/>
</g>
<g opacity="0.6">
<path d="M137.878 22.2646H140.009L133.615 0.985352H131.483L137.878 22.2646Z" fill="#00B2B9"/>
</g>
<g opacity="0.6">
<path d="M143.325 22.2646H145.457L139.062 0.985352H137.167L143.325 22.2646Z" fill="#00B2B9"/>
</g>
<g opacity="0.6">
<path d="M149.01 22.2646H150.904L144.509 0.985352H142.615L149.01 22.2646Z" fill="#00B2B9"/>
</g>
<g opacity="0.6">
<path d="M154.457 22.2646H156.352L150.194 0.985352H148.062L154.457 22.2646Z" fill="#00B2B9"/>
</g>
<g opacity="0.6">
<path d="M159.009 22.2646H161.14L154.745 0.985352H152.614L159.009 22.2646Z" fill="#9A1EFB"/>
</g>
<g opacity="0.6">
<path d="M164.693 22.2646H166.588L160.193 0.985352H158.298L164.693 22.2646Z" fill="#9A1EFB"/>
</g>
<g opacity="0.6">
<path d="M170.14 22.2646H172.035L165.64 0.985352H163.746L170.14 22.2646Z" fill="#9A1EFB"/>
</g>
<g opacity="0.6">
<path d="M175.588 22.2646H177.719L171.325 0.985352H169.193L175.588 22.2646Z" fill="#9A1EFB"/>
</g>
<g opacity="0.6">
<path d="M181.035 22.2646H183.167L176.772 0.985352H174.877L181.035 22.2646Z" fill="#9A1EFB"/>
</g>
<g opacity="0.6">
<path d="M186.72 22.2646H188.614L182.219 0.985352H180.325L186.72 22.2646Z" fill="#9A1EFB"/>
</g>
<g opacity="0.6">
<path d="M192.167 22.2646H194.062L187.904 0.985352H185.772L192.167 22.2646Z" fill="#9A1EFB"/>
</g>
<defs>
<linearGradient id="paint0_linear_4_1414" x1="77.1943" y1="11.625" x2="85.7208" y2="11.625" gradientUnits="userSpaceOnUse">
<stop stop-color="#00B2B9"/>
<stop offset="1" stop-color="#9A1EFB"/>
</linearGradient>
<linearGradient id="paint1_linear_4_1414" x1="82.8784" y1="11.625" x2="91.1681" y2="11.625" gradientUnits="userSpaceOnUse">
<stop stop-color="#00B2B9"/>
<stop offset="1" stop-color="#9A1EFB"/>
</linearGradient>
<linearGradient id="paint2_linear_4_1414" x1="88.3262" y1="11.625" x2="96.6158" y2="11.625" gradientUnits="userSpaceOnUse">
<stop stop-color="#00B2B9"/>
<stop offset="1" stop-color="#9A1EFB"/>
</linearGradient>
<linearGradient id="paint3_linear_4_1414" x1="93.7734" y1="11.625" x2="102.3" y2="11.625" gradientUnits="userSpaceOnUse">
<stop stop-color="#00B2B9"/>
<stop offset="1" stop-color="#9A1EFB"/>
</linearGradient>
<linearGradient id="paint4_linear_4_1414" x1="99.458" y1="11.625" x2="107.748" y2="11.625" gradientUnits="userSpaceOnUse">
<stop stop-color="#00B2B9"/>
<stop offset="1" stop-color="#9A1EFB"/>
</linearGradient>
<linearGradient id="paint5_linear_4_1414" x1="104.905" y1="11.625" x2="113.195" y2="11.625" gradientUnits="userSpaceOnUse">
<stop stop-color="#00B2B9"/>
<stop offset="1" stop-color="#9A1EFB"/>
</linearGradient>
<linearGradient id="paint6_linear_4_1414" x1="110.353" y1="11.625" x2="118.642" y2="11.625" gradientUnits="userSpaceOnUse">
<stop stop-color="#00B2B9"/>
<stop offset="1" stop-color="#9A1EFB"/>
</linearGradient>
</defs>
</svg>
