<svg width="57" height="41" viewBox="0 0 57 41" fill="none" xmlns="http://www.w3.org/2000/svg">
<path d="M0.0839844 20.7314C0.0839844 8.40417 2.36591 1.77642 6.92977 0.846278C7.30245 0.769723 28.202 0.731445 28.6054 0.731445C28.9255 0.731445 48.7032 0.754412 49.0038 0.802259C53.7239 1.5525 56.084 8.19364 56.084 20.7295C56.084 33.229 53.7367 39.8721 49.0429 40.653C48.7303 40.7047 28.9383 40.7314 28.6047 40.7314C28.2102 40.7314 7.31823 40.6951 6.95231 40.6224C2.37343 39.7113 0.0839844 33.0779 0.0839844 20.7314Z" fill="black"/>
<path d="M0.477539 20.609C0.477539 8.76982 2.67757 2.42532 7.07762 1.57364C7.41874 1.50857 28.2844 1.47412 28.6519 1.47412C28.9712 1.47412 48.7489 1.499 49.0479 1.54876C53.5382 2.29517 55.784 8.64733 55.784 20.6071C55.784 32.609 53.5224 38.9669 48.9998 39.677C48.7151 39.721 28.9539 39.744 28.6519 39.744C28.3738 39.744 7.59156 39.7248 7.32783 39.6866C2.76097 39.0301 0.477539 32.6703 0.477539 20.609Z" fill="url(#paint0_linear_4_979)"/>
<path d="M1.33984 21.6346C1.33984 10.3906 24.102 4.77148 28.6057 4.77148C33.1087 4.77148 54.8288 10.3906 54.8288 21.6346C54.8288 32.138 52.8639 37.7361 48.9335 38.427C48.6562 38.4748 28.9018 38.4997 28.6057 38.4997C28.2248 38.4997 7.34934 38.4595 7.00071 38.3791C3.22655 37.5102 1.33984 31.9275 1.33984 21.6346Z" fill="black"/>
<path d="M1.38672 20.5516C1.38672 9.8014 3.44474 4.19183 7.56077 3.72101C7.75012 3.69996 28.4543 3.68848 28.6526 3.68848C28.9156 3.68848 48.6392 3.70762 48.8872 3.74589C52.8792 4.36407 54.8756 9.96408 54.8756 20.5516C54.8756 31.3191 52.8101 36.9325 48.679 37.388C48.4972 37.4071 28.8427 37.4186 28.6526 37.4186C28.3814 37.4186 7.6066 37.3976 7.35189 37.3574C3.37486 36.7201 1.38672 31.1181 1.38672 20.5516Z" fill="#FFEAB6"/>
<path d="M1.38672 20.6088C1.38672 9.85853 3.44474 4.24895 7.56077 3.77814C7.75012 3.75709 28.4543 3.74561 28.6526 3.74561C28.9156 3.74561 48.6392 3.76474 48.8872 3.80302C52.8792 4.4212 54.8756 10.0212 54.8756 20.6088C54.8756 31.3762 52.8101 36.9896 48.679 37.4451C48.4972 37.4643 28.8427 37.4758 28.6526 37.4758C28.3814 37.4758 7.6066 37.4547 7.35189 37.4145C3.37486 36.7772 1.38672 31.1734 1.38672 20.6088Z" fill="url(#paint1_linear_4_979)"/>
<path opacity="0.5" d="M28.6526 34.9804C28.3641 34.9804 7.57279 34.9574 7.30305 34.9115C3.51461 34.2627 1.54601 29.0684 1.39649 19.3345C1.39048 19.7326 1.38672 20.1383 1.38672 20.5536C1.38672 30.9613 3.31625 36.5536 7.17531 37.3268C7.48488 37.3881 28.3175 37.4206 28.6519 37.4206C29.0035 37.4206 48.8098 37.3861 49.1344 37.3172C52.9611 36.5077 54.8749 30.9192 54.8749 20.5536C54.8749 20.1383 54.8711 19.7326 54.8651 19.3345C54.7171 29.0091 52.7718 34.1995 49.0292 34.9C48.7376 34.9536 28.966 34.9804 28.6526 34.9804Z" fill="#0E4D99"/>
<defs>
<linearGradient id="paint0_linear_4_979" x1="28.1309" y1="39.7452" x2="28.1309" y2="1.475" gradientUnits="userSpaceOnUse">
<stop stop-color="#AE50EC"/>
<stop offset="0.5123" stop-color="#6206C8"/>
</linearGradient>
<linearGradient id="paint1_linear_4_979" x1="28.1309" y1="4.9422" x2="28.1309" y2="38.1097" gradientUnits="userSpaceOnUse">
<stop offset="0.00223473" stop-color="#00E3FF"/>
<stop offset="1" stop-color="#7A01F3"/>
</linearGradient>
</defs>
</svg>
