<svg width="19" height="17" viewBox="0 0 19 17" fill="none" xmlns="http://www.w3.org/2000/svg">
<path d="M0.509946 9.20201L4.41171 10.9337C4.61292 11.0232 4.84831 11.0018 5.02847 10.8794L13.625 5.01598C13.7867 4.90499 13.9971 4.86968 14.1826 4.93778C14.389 5.01346 14.5652 5.16228 14.2917 5.44732C13.8933 5.86101 9.95993 9.84776 8.55282 11.2742C8.29244 11.5391 8.33978 11.9641 8.65276 12.1697L15.8145 16.8678C16.1933 17.1162 16.7127 16.8955 16.7745 16.4591L18.8826 1.58921C18.947 1.1339 18.4696 0.784542 18.0291 0.964898L0.525726 8.1224C0.0352105 8.32167 0.0246907 8.98634 0.509946 9.20201Z" fill="white"/>
</svg>
