<svg width="22" height="21" viewBox="0 0 22 21" fill="none" xmlns="http://www.w3.org/2000/svg">
<g opacity="0.42">
<path d="M7.44533 2.0415H0.82666L15.3567 20.4151H21.8688L7.44533 2.0415ZM4.47857 3.77065H6.35515L18.0368 18.5574H16.2167L4.47857 3.77065Z" fill="black"/>
<path d="M9.14086 11.5122L1.22949 20.4152H4.47899L10.5125 13.4873L9.14086 11.5122Z" fill="black"/>
<path d="M17.3199 2.0415L11.9795 7.81921L13.4353 9.67449L20.7101 2.0415H17.3199Z" fill="black"/>
</g>
<path d="M7.15871 1.49414H0.540039L15.0701 19.8678H21.5822L7.15871 1.49414ZM4.19326 3.22329H6.06984L17.7515 18.01H15.9301L4.19326 3.22329Z" fill="white"/>
<path d="M8.85521 10.9648L0.943848 19.8679H4.19335L10.2268 12.9387L8.85521 10.9648Z" fill="white"/>
<path d="M17.0343 1.49414L11.6938 7.27059L13.1496 9.12586L20.4245 1.49414H17.0343Z" fill="white"/>
<path d="M6.69142 0.936523H0.0727539L14.6028 19.3102H21.1149L6.69142 0.936523ZM3.72466 2.66441H5.60124L17.2829 17.4511H15.4615L3.72466 2.66441Z" fill="black"/>
<path d="M8.38695 10.4072L0.475586 19.3103H3.72509L9.75855 12.3811L8.38695 10.4072Z" fill="black"/>
<path d="M16.567 0.936523L11.2266 6.71297L12.6823 8.56825L19.9572 0.936523H16.567Z" fill="black"/>
<path d="M3.72461 2.66455H5.60119L17.2828 17.4525H15.4628L3.72461 2.66455Z" fill="white"/>
</svg>
