<svg width="202" height="49" viewBox="0 0 202 49" fill="none" xmlns="http://www.w3.org/2000/svg">
<path d="M0.509766 24.5684C0.509766 9.77563 8.69943 1.82233 25.0788 0.706158C26.4163 0.614292 101.423 0.568359 102.871 0.568359C104.02 0.568359 175.001 0.595919 176.079 0.653335C193.019 1.55362 201.49 9.523 201.49 24.5661C201.49 39.5655 193.065 47.5372 176.219 48.4742C175.098 48.5362 104.066 48.5684 102.868 48.5684C101.453 48.5684 26.4729 48.5247 25.1597 48.4374C8.7264 47.3442 0.509766 39.3841 0.509766 24.5684Z" fill="black"/>
<path d="M1.92285 24.4209C1.92285 10.2138 9.81858 2.60042 25.61 1.57841C26.8343 1.50032 101.72 1.45898 103.038 1.45898C104.184 1.45898 175.165 1.48884 176.238 1.54855C192.353 2.44425 200.414 10.0668 200.414 24.4186C200.414 38.8209 192.297 46.4504 176.066 47.3024C175.044 47.3553 104.122 47.3828 103.038 47.3828C102.041 47.3828 27.4545 47.3598 26.508 47.3139C10.1179 46.5262 1.92285 38.8944 1.92285 24.4209Z" fill="url(#paint0_linear_4_4168)"/>
<path d="M5.01562 25.6528C5.01562 12.16 86.7073 5.41699 102.871 5.41699C119.032 5.41699 196.983 12.16 196.983 25.6528C196.983 38.2568 189.932 44.9745 175.825 45.8036C174.83 45.861 103.933 45.8909 102.871 45.8909C101.504 45.8909 26.5833 45.8426 25.332 45.7462C11.7869 44.7035 5.01562 38.0042 5.01562 25.6528Z" fill="black"/>
<path d="M5.18555 24.353C5.18555 11.4527 12.5716 4.72121 27.3437 4.15623C28.0233 4.13097 102.329 4.11719 103.041 4.11719C103.985 4.11719 174.771 4.14015 175.661 4.18609C189.988 4.92791 197.153 11.6479 197.153 24.353C197.153 37.2739 189.74 44.01 174.914 44.5566C174.261 44.5796 103.723 44.5934 103.041 44.5934C102.067 44.5934 27.5082 44.5681 26.5941 44.5199C12.3208 43.7551 5.18555 37.0328 5.18555 24.353Z" fill="#FFEAB6"/>
<path d="M5.18555 24.4223C5.18555 11.522 12.5716 4.79054 27.3437 4.22557C28.0233 4.2003 102.329 4.18652 103.041 4.18652C103.985 4.18652 174.771 4.20949 175.661 4.25542C189.988 4.99724 197.153 11.7172 197.153 24.4223C197.153 37.3433 189.74 44.0794 174.914 44.626C174.261 44.6489 103.723 44.6627 103.041 44.6627C102.067 44.6627 27.5082 44.6374 26.5941 44.5892C12.3208 43.8244 5.18555 37.0998 5.18555 24.4223Z" fill="url(#paint1_linear_4_4168)"/>
<path opacity="0.5" d="M103.041 41.6667C102.005 41.6667 27.3869 41.6392 26.4188 41.584C12.8224 40.8055 5.75723 34.5724 5.2206 22.8916C5.19903 23.3693 5.18555 23.8562 5.18555 24.3546C5.18555 36.8438 12.1105 43.5546 25.9604 44.4824C27.0714 44.5559 101.838 44.595 103.038 44.595C104.3 44.595 175.383 44.5536 176.548 44.4709C190.282 43.4994 197.15 36.7932 197.15 24.3546C197.15 23.8562 197.137 23.3693 197.115 22.8916C196.584 34.5012 189.603 40.7297 176.171 41.5703C175.124 41.6346 104.165 41.6667 103.041 41.6667Z" fill="#0E4D99"/>
<defs>
<linearGradient id="paint0_linear_4_4168" x1="101.169" y1="47.3843" x2="101.169" y2="1.46004" gradientUnits="userSpaceOnUse">
<stop stop-color="#AE50EC"/>
<stop offset="0.5123" stop-color="#6206C8"/>
</linearGradient>
<linearGradient id="paint1_linear_4_4168" x1="101.168" y1="5.62244" x2="101.168" y2="45.4235" gradientUnits="userSpaceOnUse">
<stop offset="0.00223473" stop-color="#00E3FF"/>
<stop offset="1" stop-color="#7A01F3"/>
</linearGradient>
</defs>
</svg>
