<svg width="202" height="49" viewBox="0 0 202 49" fill="none" xmlns="http://www.w3.org/2000/svg">
<path d="M0.509766 24.333C0.509766 9.54028 8.69943 1.58698 25.0788 0.470807C26.4163 0.37894 101.423 0.333008 102.871 0.333008C104.02 0.333008 175.001 0.360567 176.079 0.417984C193.019 1.31827 201.49 9.28765 201.49 24.3307C201.49 39.3301 193.065 47.3018 176.219 48.2388C175.098 48.3009 104.066 48.333 102.868 48.333C101.453 48.333 26.4729 48.2894 25.1597 48.2021C8.7264 47.1089 0.509766 39.1487 0.509766 24.333Z" fill="black"/>
<path d="M1.92285 24.1856C1.92285 9.97847 9.81858 2.36507 25.61 1.34306C26.8343 1.26497 101.72 1.22363 103.038 1.22363C104.184 1.22363 175.165 1.25349 176.238 1.3132C192.353 2.2089 200.414 9.83148 200.414 24.1833C200.414 38.5855 192.297 46.215 176.066 47.0671C175.044 47.1199 104.122 47.1475 103.038 47.1475C102.041 47.1475 27.4545 47.1245 26.508 47.0786C10.1179 46.2908 1.92285 38.659 1.92285 24.1856Z" fill="url(#paint0_linear_4_4206)"/>
<path d="M5.01562 25.4174C5.01562 11.9246 86.7073 5.18164 102.871 5.18164C119.032 5.18164 196.983 11.9246 196.983 25.4174C196.983 38.0215 189.932 44.7392 175.825 45.5682C174.83 45.6257 103.933 45.6555 102.871 45.6555C101.504 45.6555 26.5833 45.6073 25.332 45.5108C11.7869 44.4681 5.01562 37.7688 5.01562 25.4174Z" fill="black"/>
<path d="M5.18555 24.1176C5.18555 11.2173 12.5716 4.48585 27.3437 3.92088C28.0233 3.89562 102.329 3.88184 103.041 3.88184C103.985 3.88184 174.771 3.9048 175.661 3.95074C189.988 4.69255 197.153 11.4126 197.153 24.1176C197.153 37.0386 189.74 43.7747 174.914 44.3213C174.261 44.3442 103.723 44.358 103.041 44.358C102.067 44.358 27.5082 44.3327 26.5941 44.2845C12.3208 43.5197 5.18555 36.7974 5.18555 24.1176Z" fill="#FFEAB6"/>
<path d="M5.18555 24.187C5.18555 11.2867 12.5716 4.55519 27.3437 3.99021C28.0233 3.96495 102.329 3.95117 103.041 3.95117C103.985 3.95117 174.771 3.97414 175.661 4.02007C189.988 4.76189 197.153 11.4819 197.153 24.187C197.153 37.1079 189.74 43.844 174.914 44.3906C174.261 44.4136 103.723 44.4273 103.041 44.4273C102.067 44.4273 27.5082 44.4021 26.5941 44.3539C12.3208 43.5891 5.18555 36.8645 5.18555 24.187Z" fill="url(#paint1_linear_4_4206)"/>
<path opacity="0.5" d="M103.041 41.4314C102.005 41.4314 27.3869 41.4038 26.4188 41.3487C12.8224 40.5701 5.75723 34.337 5.2206 22.6562C5.19903 23.134 5.18555 23.6208 5.18555 24.1192C5.18555 36.6084 12.1105 43.3192 25.9604 44.2471C27.0714 44.3206 101.838 44.3596 103.038 44.3596C104.3 44.3596 175.383 44.3183 176.548 44.2356C190.282 43.2641 197.15 36.5579 197.15 24.1192C197.15 23.6208 197.137 23.134 197.115 22.6562C196.584 34.2658 189.603 40.4943 176.171 41.3349C175.124 41.3992 104.165 41.4314 103.041 41.4314Z" fill="#0E4D99"/>
<defs>
<linearGradient id="paint0_linear_4_4206" x1="101.169" y1="47.1489" x2="101.169" y2="1.22469" gradientUnits="userSpaceOnUse">
<stop stop-color="#AE50EC"/>
<stop offset="0.5123" stop-color="#6206C8"/>
</linearGradient>
<linearGradient id="paint1_linear_4_4206" x1="101.168" y1="5.38708" x2="101.168" y2="45.1881" gradientUnits="userSpaceOnUse">
<stop offset="0.00223473" stop-color="#00E3FF"/>
<stop offset="1" stop-color="#7A01F3"/>
</linearGradient>
</defs>
</svg>
