<svg width="41" height="40" viewBox="0 0 41 40" fill="none" xmlns="http://www.w3.org/2000/svg">
<path d="M22.5122 3.38379V6.75046C29.8289 7.65046 35.0122 14.3005 34.1122 21.6171C33.3455 27.6838 28.5789 32.5005 22.5122 33.2171V36.5505C31.6789 35.6338 38.3455 27.5005 37.4289 18.3338C36.6789 10.4171 30.3955 4.16712 22.5122 3.38379ZM19.1789 3.43379C15.9289 3.75046 12.8289 5.00046 10.2955 7.10046L12.6789 9.56712C14.5455 8.06712 16.7955 7.10046 19.1789 6.76712V3.43379ZM7.94554 9.45046C5.86295 11.9802 4.5807 15.0726 4.26221 18.3338H7.59554C7.91221 15.9671 8.84554 13.7171 10.3289 11.8338L7.94554 9.45046ZM26.6789 14.1671L18.5455 22.3005L15.0122 18.7671L13.2455 20.5338L18.5455 25.8338L28.4455 15.9338L26.6789 14.1671ZM4.27887 21.6671C4.61221 24.9338 5.89554 28.0171 7.96221 30.5505L10.3289 28.1671C8.85695 26.2832 7.91864 24.0382 7.61221 21.6671H4.27887ZM12.6789 30.6171L10.2955 32.9005C12.8205 35.0044 15.9111 36.3149 19.1789 36.6671V33.3338C16.8078 33.0274 14.5628 32.0891 12.6789 30.6171Z" fill="#5BFF52"/>
</svg>
