<svg width="75" height="75" viewBox="0 0 75 75" fill="none" xmlns="http://www.w3.org/2000/svg">
<path d="M37.5028 61.5189C42.4875 59.9772 46.65 56.933 49.9903 52.3861C53.3305 47.8392 55.2833 42.764 55.8486 37.1606H37.5028V12.9379L20.2484 19.342C19.8517 19.5003 19.5454 19.7377 19.3296 20.0542C19.1117 20.3708 19.0028 20.7264 19.0028 21.1211V35.7145C19.0028 36.1133 19.0542 36.5953 19.1569 37.1606H37.5028V61.5189ZM37.5028 64.4234C37.2232 64.4234 36.9282 64.3977 36.6179 64.3463C36.3075 64.2949 36.0197 64.2178 35.7545 64.1151C29.6845 61.8026 24.8611 57.8806 21.2844 52.3491C17.7078 46.8176 15.9194 40.8297 15.9194 34.3856V21.1797C15.9194 20.1313 16.2226 19.1827 16.829 18.3337C17.4354 17.4848 18.2114 16.8681 19.1569 16.4837L35.7607 10.3171C36.3609 10.0992 36.9416 9.99023 37.5028 9.99023C38.0639 9.99023 38.6457 10.0992 39.2479 10.3171L55.8486 16.4837C56.7942 16.8681 57.5701 17.4848 58.1765 18.3337C58.7829 19.1827 59.0861 20.1313 59.0861 21.1797V34.3856C59.0861 40.8297 57.2978 46.8176 53.7211 52.3491C50.1444 57.8806 45.3211 61.8026 39.251 64.1151C38.9838 64.2178 38.696 64.2949 38.3877 64.3463C38.0794 64.3977 37.7844 64.4234 37.5028 64.4234Z" fill="url(#paint0_linear_4_2376)"/>
<defs>
<linearGradient id="paint0_linear_4_2376" x1="37.5028" y1="9.99023" x2="37.5028" y2="64.4234" gradientUnits="userSpaceOnUse">
<stop stop-color="#13D2E6"/>
<stop offset="1" stop-color="#9A1EFB"/>
</linearGradient>
</defs>
</svg>
