<svg width="224" height="26" viewBox="0 0 224 26" fill="none" xmlns="http://www.w3.org/2000/svg">
<g opacity="0.6">
<path d="M8.78013 25.2012H11.0946L3.28325 0.65625H0.96875L8.78013 25.2012Z" fill="#00B2B9"/>
</g>
<g opacity="0.6">
<path d="M15.4344 25.2012H17.7489L9.9375 0.65625H7.62305L15.4344 25.2012Z" fill="#00B2B9"/>
</g>
<g opacity="0.6">
<path d="M22.0883 25.2012H24.6921L16.8807 0.65625H14.2769L22.0883 25.2012Z" fill="#00B2B9"/>
</g>
<g opacity="0.6">
<path d="M28.7423 25.2012H31.3461L23.5347 0.65625H21.2202L28.7423 25.2012Z" fill="#00B2B9"/>
</g>
<g opacity="0.6">
<path d="M35.6859 25.2012H38.0004L30.189 0.65625H27.8745L35.6859 25.2012Z" fill="#00B2B9"/>
</g>
<g opacity="0.6">
<path d="M42.3402 25.2012H44.6547L37.1326 0.65625H34.5288L42.3402 25.2012Z" fill="#00B2B9"/>
</g>
<g opacity="0.6">
<path d="M49.4657 25.2012H52.0695L44.2581 0.65625H41.6543L49.4657 25.2012Z" fill="#9A1EFB"/>
</g>
<g opacity="0.6">
<path d="M56.409 25.2012H58.7235L50.9122 0.65625H48.5977L56.409 25.2012Z" fill="#9A1EFB"/>
</g>
<g opacity="0.6">
<path d="M63.0633 25.2012H65.3778L57.5664 0.65625H55.252L63.0633 25.2012Z" fill="#9A1EFB"/>
</g>
<g opacity="0.6">
<path d="M69.7172 25.2012H72.321L64.5096 0.65625H61.9058L69.7172 25.2012Z" fill="#9A1EFB"/>
</g>
<g opacity="0.6">
<path d="M76.3712 25.2012H78.975L71.1636 0.65625H68.8491L76.3712 25.2012Z" fill="#9A1EFB"/>
</g>
<g opacity="0.6">
<path d="M83.3148 25.2012H85.6293L77.8179 0.65625H75.5034L83.3148 25.2012Z" fill="#9A1EFB"/>
</g>
<g opacity="0.6">
<path d="M89.9691 25.2012H92.2836L84.7615 0.65625H82.1577L89.9691 25.2012Z" fill="#9A1EFB"/>
</g>
<g opacity="0.6">
<path d="M95.5287 25.2012H98.1325L90.3211 0.65625H87.7173L95.5287 25.2012Z" fill="url(#paint0_linear_4_2164)"/>
</g>
<g opacity="0.6">
<path d="M102.472 25.2012H104.787L96.9751 0.65625H94.6606L102.472 25.2012Z" fill="url(#paint1_linear_4_2164)"/>
</g>
<g opacity="0.6">
<path d="M109.126 25.2012H111.441L103.629 0.65625H101.315L109.126 25.2012Z" fill="url(#paint2_linear_4_2164)"/>
</g>
<g opacity="0.6">
<path d="M115.78 25.2012H118.384L110.573 0.65625H107.969L115.78 25.2012Z" fill="url(#paint3_linear_4_2164)"/>
</g>
<g opacity="0.6">
<path d="M122.434 25.2012H125.038L117.227 0.65625H114.912L122.434 25.2012Z" fill="url(#paint4_linear_4_2164)"/>
</g>
<g opacity="0.6">
<path d="M129.378 25.2012H131.692L123.881 0.65625H121.566L129.378 25.2012Z" fill="url(#paint5_linear_4_2164)"/>
</g>
<g opacity="0.6">
<path d="M136.032 25.2012H138.347L130.825 0.65625H128.221L136.032 25.2012Z" fill="url(#paint6_linear_4_2164)"/>
</g>
<g opacity="0.6">
<path d="M141.592 25.2012H144.195L136.384 0.65625H133.78L141.592 25.2012Z" fill="#00B2B9"/>
</g>
<g opacity="0.6">
<path d="M148.535 25.2012H150.85L143.038 0.65625H140.724L148.535 25.2012Z" fill="#00B2B9"/>
</g>
<g opacity="0.6">
<path d="M155.189 25.2012H157.504L149.692 0.65625H147.378L155.189 25.2012Z" fill="#00B2B9"/>
</g>
<g opacity="0.6">
<path d="M161.843 25.2012H164.447L156.636 0.65625H154.032L161.843 25.2012Z" fill="#00B2B9"/>
</g>
<g opacity="0.6">
<path d="M168.497 25.2012H171.101L163.29 0.65625H160.975L168.497 25.2012Z" fill="#00B2B9"/>
</g>
<g opacity="0.6">
<path d="M175.441 25.2012H177.755L169.944 0.65625H167.629L175.441 25.2012Z" fill="#00B2B9"/>
</g>
<g opacity="0.6">
<path d="M182.095 25.2012H184.41L176.888 0.65625H174.284L182.095 25.2012Z" fill="#00B2B9"/>
</g>
<g opacity="0.6">
<path d="M187.654 25.2012H190.258L182.447 0.65625H179.843L187.654 25.2012Z" fill="#9A1EFB"/>
</g>
<g opacity="0.6">
<path d="M194.598 25.2012H196.912L189.101 0.65625H186.786L194.598 25.2012Z" fill="#9A1EFB"/>
</g>
<g opacity="0.6">
<path d="M201.252 25.2012H203.566L195.755 0.65625H193.44L201.252 25.2012Z" fill="#9A1EFB"/>
</g>
<g opacity="0.6">
<path d="M207.906 25.2012H210.509L202.698 0.65625H200.094L207.906 25.2012Z" fill="#9A1EFB"/>
</g>
<g opacity="0.6">
<path d="M214.56 25.2012H217.163L209.352 0.65625H207.038L214.56 25.2012Z" fill="#9A1EFB"/>
</g>
<g opacity="0.6">
<path d="M221.503 25.2012H223.818L216.006 0.65625H213.692L221.503 25.2012Z" fill="#9A1EFB"/>
</g>
<defs>
<linearGradient id="paint0_linear_4_2164" x1="87.7173" y1="12.9287" x2="98.1325" y2="12.9287" gradientUnits="userSpaceOnUse">
<stop stop-color="#00B2B9"/>
<stop offset="1" stop-color="#9A1EFB"/>
</linearGradient>
<linearGradient id="paint1_linear_4_2164" x1="94.6606" y1="12.9287" x2="104.787" y2="12.9287" gradientUnits="userSpaceOnUse">
<stop stop-color="#00B2B9"/>
<stop offset="1" stop-color="#9A1EFB"/>
</linearGradient>
<linearGradient id="paint2_linear_4_2164" x1="101.315" y1="12.9287" x2="111.441" y2="12.9287" gradientUnits="userSpaceOnUse">
<stop stop-color="#00B2B9"/>
<stop offset="1" stop-color="#9A1EFB"/>
</linearGradient>
<linearGradient id="paint3_linear_4_2164" x1="107.969" y1="12.9287" x2="118.384" y2="12.9287" gradientUnits="userSpaceOnUse">
<stop stop-color="#00B2B9"/>
<stop offset="1" stop-color="#9A1EFB"/>
</linearGradient>
<linearGradient id="paint4_linear_4_2164" x1="114.912" y1="12.9287" x2="125.038" y2="12.9287" gradientUnits="userSpaceOnUse">
<stop stop-color="#00B2B9"/>
<stop offset="1" stop-color="#9A1EFB"/>
</linearGradient>
<linearGradient id="paint5_linear_4_2164" x1="121.566" y1="12.9287" x2="131.692" y2="12.9287" gradientUnits="userSpaceOnUse">
<stop stop-color="#00B2B9"/>
<stop offset="1" stop-color="#9A1EFB"/>
</linearGradient>
<linearGradient id="paint6_linear_4_2164" x1="128.221" y1="12.9287" x2="138.347" y2="12.9287" gradientUnits="userSpaceOnUse">
<stop stop-color="#00B2B9"/>
<stop offset="1" stop-color="#9A1EFB"/>
</linearGradient>
</defs>
</svg>
