<svg width="241" height="49" viewBox="0 0 241 49" fill="none" xmlns="http://www.w3.org/2000/svg">
<path d="M0.758301 24.25C0.758301 9.45727 10.538 1.50397 30.0974 0.387799C31.6946 0.295933 121.264 0.25 122.993 0.25C124.365 0.25 209.126 0.27756 210.415 0.334976C230.644 1.23526 240.758 9.20464 240.758 24.2477C240.758 39.2471 230.698 47.2188 210.582 48.1558C209.242 48.2178 124.42 48.25 122.99 48.25C121.299 48.25 31.7622 48.2064 30.194 48.1191C10.5702 47.0259 0.758301 39.0657 0.758301 24.25Z" fill="black"/>
<path d="M2.44531 24.1025C2.44531 9.89546 11.874 2.28206 30.7314 1.26005C32.1933 1.18196 121.618 1.14062 123.192 1.14062C124.561 1.14062 209.323 1.17048 210.604 1.2302C229.848 2.12589 239.473 9.74847 239.473 24.1002C239.473 38.5025 229.78 46.132 210.398 46.9841C209.178 47.0369 124.487 47.0645 123.192 47.0645C122.001 47.0645 32.934 47.0415 31.8037 46.9956C12.2314 46.2078 2.44531 38.576 2.44531 24.1025Z" fill="url(#paint0_linear_4_2354)"/>
<path d="M6.13867 25.3344C6.13867 11.8416 103.691 5.09863 122.993 5.09863C142.291 5.09863 235.377 11.8416 235.377 25.3344C235.377 37.9384 226.956 44.6561 210.111 45.4852C208.923 45.5427 124.261 45.5725 122.993 45.5725C121.36 45.5725 31.8937 45.5243 30.3995 45.4278C14.2245 44.3851 6.13867 37.6858 6.13867 25.3344Z" fill="black"/>
<path d="M6.34131 24.0346C6.34131 11.1343 15.1614 4.40285 32.8015 3.83787C33.613 3.81261 122.345 3.79883 123.195 3.79883C124.322 3.79883 208.852 3.82179 209.915 3.86773C227.023 4.60955 235.579 11.3295 235.579 24.0346C235.579 36.9556 226.727 43.6917 209.023 44.2383C208.243 44.2612 124.01 44.275 123.195 44.275C122.033 44.275 32.998 44.2497 31.9063 44.2015C14.8619 43.4367 6.34131 36.7144 6.34131 24.0346Z" fill="#FFEAB6"/>
<path d="M6.34131 24.104C6.34131 11.2037 15.1614 4.47218 32.8015 3.90721C33.613 3.88194 122.345 3.86816 123.195 3.86816C124.322 3.86816 208.852 3.89113 209.915 3.93706C227.023 4.67888 235.579 11.3989 235.579 24.104C235.579 37.0249 226.727 43.761 209.023 44.3076C208.243 44.3306 124.01 44.3443 123.195 44.3443C122.033 44.3443 32.998 44.3191 31.9063 44.2709C14.8619 43.5061 6.34131 36.7815 6.34131 24.104Z" fill="url(#paint1_linear_4_2354)"/>
<path opacity="0.5" d="M123.195 41.3484C121.959 41.3484 32.8531 41.3208 31.697 41.2657C15.4609 40.4871 7.02399 34.254 6.38317 22.5732C6.35741 23.0509 6.34131 23.5378 6.34131 24.0362C6.34131 36.5254 14.6107 43.2362 31.1496 44.1641C32.4763 44.2375 121.759 44.2766 123.192 44.2766C124.699 44.2766 209.583 44.2353 210.974 44.1526C227.374 43.1811 235.576 36.4749 235.576 24.0362C235.576 23.5378 235.56 23.0509 235.534 22.5732C234.9 34.1828 226.563 40.4113 210.523 41.2519C209.274 41.3162 124.538 41.3484 123.195 41.3484Z" fill="#0E4D99"/>
<defs>
<linearGradient id="paint0_linear_4_2354" x1="120.96" y1="47.0659" x2="120.96" y2="1.14168" gradientUnits="userSpaceOnUse">
<stop stop-color="#AE50EC"/>
<stop offset="0.5123" stop-color="#6206C8"/>
</linearGradient>
<linearGradient id="paint1_linear_4_2354" x1="120.959" y1="5.30408" x2="120.959" y2="45.1051" gradientUnits="userSpaceOnUse">
<stop offset="0.00223473" stop-color="#00E3FF"/>
<stop offset="1" stop-color="#7A01F3"/>
</linearGradient>
</defs>
</svg>
