<svg width="241" height="49" viewBox="0 0 241 49" fill="none" xmlns="http://www.w3.org/2000/svg">
<path d="M0.0141602 24.25C0.0141602 9.45727 9.79385 1.50397 29.3532 0.387799C30.9504 0.295933 120.52 0.25 122.249 0.25C123.621 0.25 208.382 0.27756 209.67 0.334976C229.9 1.23526 240.014 9.20464 240.014 24.2477C240.014 39.2471 229.954 47.2188 209.838 48.1558C208.498 48.2178 123.676 48.25 122.246 48.25C120.555 48.25 31.0181 48.2064 29.4498 48.1191C9.82605 47.0259 0.0141602 39.0657 0.0141602 24.25Z" fill="black"/>
<path d="M1.70117 24.1025C1.70117 9.89546 11.1299 2.28206 29.9872 1.26005C31.4492 1.18196 120.874 1.14062 122.448 1.14062C123.817 1.14062 208.578 1.17048 209.86 1.2302C229.104 2.12589 238.729 9.74847 238.729 24.1002C238.729 38.5025 229.036 46.132 209.654 46.9841C208.433 47.0369 123.743 47.0645 122.448 47.0645C121.257 47.0645 32.1898 47.0415 31.0595 46.9956C11.4873 46.2078 1.70117 38.576 1.70117 24.1025Z" fill="url(#paint0_linear_4_2337)"/>
<path d="M5.39453 25.3344C5.39453 11.8416 102.947 5.09863 122.248 5.09863C141.547 5.09863 234.633 11.8416 234.633 25.3344C234.633 37.9384 226.212 44.6561 209.367 45.4852C208.179 45.5427 123.517 45.5725 122.248 45.5725C120.616 45.5725 31.1495 45.5243 29.6554 45.4278C13.4804 44.3851 5.39453 37.6858 5.39453 25.3344Z" fill="black"/>
<path d="M5.59717 24.0346C5.59717 11.1343 14.4172 4.40285 32.0574 3.83787C32.8689 3.81261 121.601 3.79883 122.451 3.79883C123.578 3.79883 208.108 3.82179 209.171 3.86773C226.279 4.60955 234.835 11.3295 234.835 24.0346C234.835 36.9556 225.983 43.6917 208.279 44.2383C207.499 44.2612 123.266 44.275 122.451 44.275C121.289 44.275 32.2538 44.2497 31.1622 44.2015C14.1178 43.4367 5.59717 36.7144 5.59717 24.0346Z" fill="#FFEAB6"/>
<path d="M5.59717 24.104C5.59717 11.2037 14.4172 4.47218 32.0574 3.90721C32.8689 3.88194 121.601 3.86816 122.451 3.86816C123.578 3.86816 208.108 3.89113 209.171 3.93706C226.279 4.67888 234.835 11.3989 234.835 24.104C234.835 37.0249 225.983 43.761 208.279 44.3076C207.499 44.3306 123.266 44.3443 122.451 44.3443C121.289 44.3443 32.2538 44.3191 31.1622 44.2709C14.1178 43.5061 5.59717 36.7815 5.59717 24.104Z" fill="url(#paint1_linear_4_2337)"/>
<path opacity="0.5" d="M122.451 41.3484C121.215 41.3484 32.1089 41.3208 30.9529 41.2657C14.7167 40.4871 6.27985 34.254 5.63903 22.5732C5.61327 23.0509 5.59717 23.5378 5.59717 24.0362C5.59717 36.5254 13.8666 43.2362 30.4054 44.1641C31.7321 44.2375 121.015 44.2766 122.448 44.2766C123.955 44.2766 208.839 44.2353 210.23 44.1526C226.63 43.1811 234.832 36.4749 234.832 24.0362C234.832 23.5378 234.816 23.0509 234.79 22.5732C234.156 34.1828 225.819 40.4113 209.779 41.2519C208.53 41.3162 123.794 41.3484 122.451 41.3484Z" fill="#0E4D99"/>
<defs>
<linearGradient id="paint0_linear_4_2337" x1="120.215" y1="47.0659" x2="120.215" y2="1.14168" gradientUnits="userSpaceOnUse">
<stop stop-color="#AE50EC"/>
<stop offset="0.5123" stop-color="#6206C8"/>
</linearGradient>
<linearGradient id="paint1_linear_4_2337" x1="120.215" y1="5.30408" x2="120.215" y2="45.1051" gradientUnits="userSpaceOnUse">
<stop offset="0.00223473" stop-color="#00E3FF"/>
<stop offset="1" stop-color="#7A01F3"/>
</linearGradient>
</defs>
</svg>
