<svg width="394" height="1055" viewBox="0 0 394 1055" fill="none" xmlns="http://www.w3.org/2000/svg">
<path d="M113.68 1054H17C8.16344 1054 1 1046.84 1 1038V17C1 8.16344 8.16345 1 17 1H110.378C112.887 1 115.361 1.59005 117.6 2.7225L133.249 10.6377C135.487 11.7701 137.961 12.3602 140.47 12.3602H251.329C255.208 12.3602 258.955 10.951 261.872 8.3949L265.787 4.96526C268.705 2.40915 272.451 1 276.33 1H377C385.837 1 393 8.16342 393 17V1038C393 1046.84 385.837 1054 377 1054H276.33C272.451 1054 268.705 1052.59 265.787 1050.03L259.877 1044.86C256.96 1042.3 253.213 1040.89 249.334 1040.89H140.676C136.797 1040.89 133.051 1042.3 130.133 1044.86L124.223 1050.03C121.306 1052.59 117.559 1054 113.68 1054Z" stroke="#13D2E6" stroke-width="2"/>
<path d="M394 198.438C394 200.458 379.459 202.128 360.561 202.399C358.796 202.424 202.963 202.438 201.126 202.438C199.098 202.438 34.8238 202.421 32.8799 202.391C14.2612 202.095 0 200.438 0 198.438C0 196.484 13.5895 194.859 31.5602 194.507C33.9202 194.462 198.635 194.438 201.126 194.438C203.266 194.438 359.396 194.455 361.447 194.49C379.911 194.801 394 196.45 394 198.438Z" fill="url(#paint0_linear_0_1)"/>
<path d="M131.235 3.12605C131.235 1.5474 135.914 0.241966 141.994 0.0304996C142.562 0.0106092 192.699 0.000133751 193.29 0.00013368C193.942 0.000133601 246.796 0.0126905 247.421 0.0367678C253.412 0.268122 258 1.56308 258 3.12604C258 4.65236 253.628 5.92219 247.846 6.19752C247.087 6.23311 194.092 6.25196 193.29 6.25196C192.602 6.25196 142.369 6.23836 141.709 6.21114C135.768 5.96827 131.235 4.67959 131.235 3.12605Z" fill="url(#paint1_linear_0_1)"/>
<path d="M131.235 1051.87C131.235 1050.3 135.914 1048.99 141.994 1048.78C142.562 1048.76 192.699 1048.75 193.29 1048.75C193.942 1048.75 246.796 1048.76 247.421 1048.78C253.412 1049.02 258 1050.31 258 1051.87C258 1053.4 253.628 1054.67 247.846 1054.95C247.087 1054.98 194.092 1055 193.29 1055C192.602 1055 142.369 1054.99 141.709 1054.96C135.768 1054.72 131.235 1053.43 131.235 1051.87Z" fill="url(#paint2_linear_0_1)"/>
<defs>
<linearGradient id="paint0_linear_0_1" x1="197.004" y1="201.062" x2="197.004" y2="193.301" gradientUnits="userSpaceOnUse">
<stop offset="0.00223473" stop-color="#00FBFF"/>
<stop offset="0.7368" stop-color="white"/>
</linearGradient>
<linearGradient id="paint1_linear_0_1" x1="194.616" y1="1.07512" x2="194.616" y2="7.13983" gradientUnits="userSpaceOnUse">
<stop offset="0.00223473" stop-color="#00FBFF"/>
<stop offset="0.7368" stop-color="white"/>
</linearGradient>
<linearGradient id="paint2_linear_0_1" x1="194.616" y1="1049.82" x2="194.616" y2="1055.89" gradientUnits="userSpaceOnUse">
<stop offset="0.00223473" stop-color="#00FBFF"/>
<stop offset="0.7368" stop-color="white"/>
</linearGradient>
</defs>
</svg>
