<svg width="390" height="257" viewBox="0 0 390 257" fill="none" xmlns="http://www.w3.org/2000/svg">
<g filter="url(#filter0_g_314_7404)">
<path d="M337.638 15.7578H315.751L307.38 15.7957L270.874 16.4188L252.621 16.7304M368.066 15.5208L370.158 15.5113V15.5113C372.467 15.5009 374.343 17.3692 374.343 19.6776V75.5082C374.343 77.4974 373.647 79.4238 372.374 80.9526V80.9526C371.102 82.4815 370.405 84.4079 370.405 86.3971V162.326C370.405 163.559 371.2 164.651 372.374 165.029V165.029C373.548 165.407 374.343 166.499 374.343 167.732V228.001C374.343 235.733 368.075 242.001 360.343 242.001H228.348C224.833 242.001 221.52 240.364 219.384 237.573V237.573C217.249 234.781 213.935 233.144 210.421 233.144H169.88C166.365 233.144 163.052 234.781 160.916 237.573V237.573C158.781 240.364 155.467 242.001 151.953 242.001H29.6567C21.9248 242.001 15.6567 235.733 15.6567 228.001V168.602C15.6567 166.761 16.5592 165.037 18.0721 163.987V163.987C19.5849 162.938 20.4874 161.214 20.4874 159.372V84.4706C20.4874 82.6294 19.5849 80.9051 18.0721 79.8558V79.8558C16.5592 78.8064 15.6567 77.0821 15.6567 75.2409L15.6567 19.8578C15.6567 17.4468 17.6112 15.4924 20.0222 15.4924V15.4924M142.3 15.4922L50.5801 15.4924" stroke="#BCFCFF" stroke-width="4"/>
</g>
<defs>
<filter id="filter0_g_314_7404" x="0.656738" y="0.492188" width="388.687" height="256.509" filterUnits="userSpaceOnUse" color-interpolation-filters="sRGB">
<feFlood flood-opacity="0" result="BackgroundImageFix"/>
<feBlend mode="normal" in="SourceGraphic" in2="BackgroundImageFix" result="shape"/>
<feTurbulence type="fractalNoise" baseFrequency="2 2" numOctaves="3" seed="475" />
<feDisplacementMap in="shape" scale="26" xChannelSelector="R" yChannelSelector="G" result="displacedImage" width="100%" height="100%" />
<feMerge result="effect1_texture_314_7404">
<feMergeNode in="displacedImage"/>
</feMerge>
</filter>
</defs>
</svg>
