<svg width="408" height="275" viewBox="0 0 408 275" fill="none" xmlns="http://www.w3.org/2000/svg">
<g filter="url(#filter0_f_314_7405)">
<path d="M316.38 24.7956L324.751 24.7576H346.638M377.066 24.5206L379.158 24.5111V24.5111C381.467 24.5007 383.343 26.3691 383.343 28.6774V84.508C383.343 86.4972 382.647 88.4236 381.374 89.9525V89.9525C380.102 91.4813 379.405 93.4077 379.405 95.3969V171.326C379.405 172.559 380.2 173.651 381.374 174.029V174.029C382.548 174.406 383.343 175.498 383.343 176.731V237C383.343 244.732 377.075 251 369.343 251H237.348C233.833 251 230.52 249.363 228.384 246.572V246.572C226.249 243.781 222.935 242.144 219.421 242.144H178.88C175.365 242.144 172.052 243.781 169.916 246.572V246.572C167.781 249.363 164.467 251 160.953 251H38.6567C30.9248 251 24.6567 244.732 24.6567 237V177.602C24.6567 175.761 25.5592 174.037 27.0721 172.987V172.987C28.5849 171.938 29.4874 170.213 29.4874 168.372V93.4704C29.4874 91.6292 28.5849 89.905 27.0721 88.8556V88.8556C25.5592 87.8062 24.6567 86.0819 24.6567 84.2407L24.6567 28.8576C24.6567 26.4467 26.6112 24.4922 29.0222 24.4922V24.4922M94.5035 24.4922H59.5801" stroke="#BCFCFF" stroke-width="4"/>
</g>
<defs>
<filter id="filter0_f_314_7405" x="0.656738" y="0.492188" width="406.687" height="274.508" filterUnits="userSpaceOnUse" color-interpolation-filters="sRGB">
<feFlood flood-opacity="0" result="BackgroundImageFix"/>
<feBlend mode="normal" in="SourceGraphic" in2="BackgroundImageFix" result="shape"/>
<feGaussianBlur stdDeviation="11" result="effect1_foregroundBlur_314_7405"/>
</filter>
</defs>
</svg>
